<?xml version="1.0" encoding="iso-8859-1"?>
<!-- Uploaded to: SVG Repo, www.svgrepo.com, Generator: SVG Repo Mixer Tools -->
<svg height="800px" width="800px" version="1.1" id="Capa_1" xmlns="http://www.w3.org/2000/svg" xmlns:xlink="http://www.w3.org/1999/xlink" 
	 viewBox="0 0 307.48 307.48" xml:space="preserve">
<g>
	<path style="fill:#010002;" d="M269.569,106.57c-3.497-0.163-7.006-0.261-10.503-0.397c-4.15-23.834-6.315-48.185-18.748-69.517
		c-15.86-27.201-48.288-34.359-77.278-36.268C130.356-1.76,94.491,4.631,71.016,28.982c-18.999,19.7-23.366,49.071-24.416,76.005
		c-1.931,0.005-3.867,0.022-5.798,0.022c-4.661,0.005-8.044,1.953-10.225,4.781c-1.996,2.148-3.329,5.053-3.372,8.817
		c-0.533,47.026-14.794,107.237,6.288,151.445c14.245,29.866,60.515,31.128,88.776,34.473c42.621,5.047,94.177,6.114,131.935-17.459
		c15.866-9.905,26.902-26.82,28.55-45.525c3.476-39.417,3.655-81.939,0.419-121.367C282.541,112.509,277.45,106.94,269.569,106.57z
		 M86.468,53.272c14.908-25.357,50.98-26.222,76.571-25.694c53.988,1.115,60.792,36.746,68.238,77.675
		c-52.465-1.322-104.968-0.696-157.455-0.381C74.6,86.897,77.162,69.106,86.468,53.272z M255.927,217.206
		c-0.397,20.946,0.577,36.36-18.792,48.451c-31.84,19.88-79.399,15.442-114.873,11.667c-15.354-1.637-30.644-4.509-45.585-8.392
		c-13.179-3.421-17.095-4.183-21.049-17.47c-11.101-37.252-3.709-80.134-1.697-119.311c67.618-0.234,135.28-1.49,202.861,1.126
		C258.076,161.243,256.46,189.216,255.927,217.206z"/>
	<path style="fill:#010002;" d="M140.723,188.188c-0.076,13.304-1.033,26.575-0.642,39.885c0.517,17.497,27.712,17.552,27.195,0
		c-0.392-13.309,0.566-26.581,0.642-39.885C168.021,170.642,140.826,170.653,140.723,188.188z"/>
</g>
</svg>