<?xml version="1.0" encoding="utf-8"?>
<!-- Generator: Adobe Illustrator 17.1.0, SVG Export Plug-In . SVG Version: 6.00 Build 0)  -->
<!DOCTYPE svg PUBLIC "-//W3C//DTD SVG 1.1//EN" "http://www.w3.org/Graphics/SVG/1.1/DTD/svg11.dtd">
<svg version="1.1" xmlns="http://www.w3.org/2000/svg" xmlns:xlink="http://www.w3.org/1999/xlink" x="0px" y="0px"
	 viewBox="0 0 64 64" enable-background="new 0 0 64 64" xml:space="preserve">
<g id="guide" display="none">
</g>
<g id="fill_outline" display="none">
	<g id="pizza_3_" display="inline">
		<path fill="#EBA653" d="M34,30V8c12.15,0,22,9.85,22,22H34z"/>
		<g>
			<path fill="#FF8000" d="M30,56C17.85,56,8,46.15,8,34s9.85-22,22-22V7C15.088,7,3,19.088,3,34s12.088,27,27,27s27-12.088,27-27
				h-5C52,46.15,42.15,56,30,56z"/>
			<path d="M30,62C14.561,62,2,49.439,2,34S14.561,6,30,6c0.553,0,1,0.448,1,1v5c0,0.552-0.447,1-1,1C18.421,13,9,22.42,9,34
				s9.421,21,21,21s21-9.42,21-21c0-0.552,0.447-1,1-1h5c0.553,0,1,0.448,1,1C58,49.439,45.439,62,30,62z M29,8.019
				C15.126,8.547,4,19.999,4,34c0,14.336,11.663,26,26,26c14.001,0,25.453-11.125,25.981-25h-3.003C52.453,47.22,42.347,57,30,57
				C17.317,57,7,46.682,7,34c0-12.347,9.78-22.453,22-22.979V8.019z"/>
		</g>
		<g>
			<path fill="#EBA653" d="M8,34c0,12.15,9.85,22,22,22s22-9.85,22-22H30V12C17.85,12,8,21.85,8,34z"/>
			<path d="M30,57C17.317,57,7,46.682,7,34s10.317-23,23-23c0.553,0,1,0.448,1,1v21h21c0.553,0,1,0.448,1,1
				C53,46.682,42.683,57,30,57z M29,13.023C17.883,13.547,9,22.755,9,34c0,11.58,9.421,21,21,21c11.244,0,20.453-8.883,20.977-20H30
				c-0.553,0-1-0.448-1-1V13.023z"/>
		</g>
		<g>
			<path fill="#FF8000" d="M34,3v5c12.15,0,22,9.85,22,22h5C61,15.088,48.912,3,34,3z"/>
			<path d="M61,31h-5c-0.553,0-1-0.448-1-1c0-11.58-9.421-21-21-21c-0.553,0-1-0.448-1-1V3c0-0.552,0.447-1,1-1
				c15.439,0,28,12.561,28,28C62,30.552,61.553,31,61,31z M56.979,29h3.003C59.466,15.458,48.542,4.534,35,4.019v3.002
				C46.889,7.533,56.467,17.112,56.979,29z"/>
		</g>
		<path d="M56,31H46v-2h8.977C54.469,18.214,45.786,9.531,35,9.023V29h5v2h-6c-0.553,0-1-0.448-1-1V8c0-0.552,0.447-1,1-1
			c12.683,0,23,10.318,23,23C57,30.552,56.553,31,56,31z"/>
		<rect x="42" y="29" width="2" height="2"/>
		<g>
			<path fill="#ED1C24" d="M35.627,44.627c1.83-1.83,1.83-4.797,0-6.627L29,44.627C30.83,46.458,33.797,46.458,35.627,44.627z"/>
			<path d="M32.313,47c-1.519,0-2.946-0.591-4.021-1.666c-0.391-0.391-0.391-1.023,0-1.414l6.627-6.627
				c0.391-0.391,1.023-0.39,1.414,0C37.408,38.367,38,39.795,38,41.314c0,1.519-0.592,2.947-1.666,4.021
				C35.26,46.409,33.832,47,32.313,47z M30.511,44.531c1.379,0.776,3.26,0.541,4.409-0.61c0.696-0.696,1.08-1.622,1.08-2.606
				c0-0.642-0.163-1.259-0.47-1.803L30.511,44.531z"/>
		</g>
		<g>
			<path fill="#ED1C24" d="M17.971,28.029c-1.373-1.373-3.598-1.373-4.971,0L17.971,33C19.343,31.627,19.343,29.402,17.971,28.029z"
				/>
			<path d="M17.971,34c-0.266,0-0.52-0.105-0.707-0.293l-4.971-4.971C12.105,28.549,12,28.294,12,28.029s0.105-0.52,0.293-0.707
				C13.146,26.469,14.279,26,15.485,26s2.34,0.469,3.192,1.322c1.76,1.76,1.76,4.625,0,6.385C18.49,33.895,18.236,34,17.971,34z
				 M14.56,28.175l3.265,3.264c0.355-0.904,0.168-1.973-0.561-2.703C16.56,28.035,15.458,27.822,14.56,28.175z"/>
		</g>
		<g>
			<path fill="#ED1C24" d="M42.971,20.029c-1.373-1.373-3.598-1.373-4.971,0L42.971,25C44.343,23.627,44.343,21.402,42.971,20.029z"
				/>
			<path d="M42.971,26c-0.266,0-0.52-0.105-0.707-0.293l-4.971-4.971C37.105,20.549,37,20.294,37,20.029s0.105-0.52,0.293-0.707
				C38.146,18.469,39.279,18,40.485,18s2.34,0.469,3.192,1.322c1.76,1.76,1.76,4.625,0,6.385C43.49,25.895,43.236,26,42.971,26z
				 M39.56,20.175l3.265,3.264c0.355-0.904,0.168-1.973-0.561-2.703C41.561,20.035,40.458,19.822,39.56,20.175z"/>
		</g>
		<path d="M24,50h-2c-0.553,0-1-0.448-1-1s0.447-1,1-1h2c0.553,0,1,0.448,1,1S24.553,50,24,50z"/>
		<path d="M26,29h-2c-0.553,0-1-0.448-1-1s0.447-1,1-1h2c0.553,0,1,0.448,1,1S26.553,29,26,29z"/>
		<path d="M24.293,20.707c-0.256,0-0.512-0.098-0.707-0.293c-0.391-0.391-0.391-1.023,0-1.414L25,17.586
			c0.391-0.391,1.023-0.391,1.414,0s0.391,1.023,0,1.414L25,20.414C24.805,20.609,24.549,20.707,24.293,20.707z"/>
		<path d="M47.586,23c-0.256,0-0.512-0.098-0.707-0.293c-0.391-0.391-0.391-1.023,0-1.414l1.414-1.414
			c0.391-0.391,1.023-0.391,1.414,0s0.391,1.023,0,1.414l-1.414,1.414C48.098,22.902,47.842,23,47.586,23z"/>
		<path d="M45.414,42c-0.256,0-0.512-0.098-0.707-0.293l-1.414-1.414c-0.391-0.391-0.391-1.023,0-1.414s1.023-0.391,1.414,0
			l1.414,1.414c0.391,0.391,0.391,1.023,0,1.414C45.926,41.902,45.67,42,45.414,42z"/>
		<g>
			<circle fill="#FFFFFF" cx="21" cy="42" r="2"/>
			<path d="M21,45c-1.654,0-3-1.346-3-3s1.346-3,3-3s3,1.346,3,3S22.654,45,21,45z M21,41c-0.552,0-1,0.449-1,1s0.448,1,1,1
				s1-0.449,1-1S21.552,41,21,41z"/>
		</g>
		<g>
			<path fill="#FFFFFF" d="M45,15c1.362,0,2.562-0.684,3.285-1.724c-2.013-1.721-4.338-3.086-6.882-3.995
				C41.152,9.803,41,10.382,41,11C41,13.209,42.791,15,45,15z"/>
			<path d="M45,16c-2.757,0-5-2.243-5-5c0-0.733,0.168-1.457,0.5-2.151c0.223-0.463,0.756-0.682,1.239-0.511
				c2.633,0.941,5.054,2.346,7.195,4.177c0.391,0.333,0.465,0.909,0.172,1.331C48.17,15.195,46.635,16,45,16z M42.03,10.594
				C42.01,10.729,42,10.865,42,11c0,1.654,1.346,3,3,3c0.667,0,1.307-0.225,1.825-0.624C45.35,12.235,43.743,11.303,42.03,10.594z"
				/>
		</g>
		<g>
			<path fill="#ED1C24" d="M14,42c0-1.657-1.343-3-3-3c-0.861,0-1.632,0.368-2.179,0.949c0.5,1.784,1.219,3.476,2.127,5.046
				C10.965,44.995,10.982,45,11,45C12.657,45,14,43.657,14,42z"/>
			<path d="M11,46c-0.049,0-0.125-0.006-0.173-0.013c-0.348-0.009-0.571-0.19-0.745-0.491c-0.96-1.659-1.708-3.434-2.225-5.276
				c-0.095-0.338-0.006-0.701,0.235-0.956C8.86,38.449,9.893,38,11,38c2.206,0,4,1.794,4,4S13.206,46,11,46z M9.966,40.293
				c0.395,1.259,0.909,2.479,1.536,3.643C12.362,43.713,13,42.93,13,42c0-1.103-0.897-2-2-2C10.63,40,10.275,40.102,9.966,40.293z"
				/>
		</g>
		<g>
			<path fill="#FFFFFF" d="M34,52c-1.657,0-3,1.343-3,3c0,0.341,0.069,0.663,0.174,0.968c2.023-0.106,3.97-0.491,5.812-1.107
				C36.912,53.27,35.609,52,34,52z"/>
			<path d="M31.174,56.968c-0.426,0-0.807-0.27-0.946-0.676C30.074,55.845,30,55.422,30,55c0-2.206,1.794-4,4-4
				c2.135,0,3.886,1.675,3.985,3.814c0.021,0.446-0.258,0.853-0.682,0.995c-1.972,0.66-4.017,1.049-6.077,1.158
				C31.209,56.968,31.191,56.968,31.174,56.968z M34,53c-1.07,0-1.947,0.846-1.998,1.904c1.287-0.123,2.563-0.366,3.813-0.726
				C35.503,53.48,34.807,53,34,53z"/>
		</g>
		<rect x="26" y="36" width="2" height="2"/>
		<rect x="40" y="46" width="2" height="2"/>
		<rect x="49" y="25" width="2" height="2"/>
		<rect x="37" y="25" width="2" height="2"/>
		<rect x="37" y="14" width="2" height="2"/>
		<rect x="12" y="34" width="2" height="2"/>
		<rect x="19" y="22" width="2" height="2"/>
	</g>
</g>
<g id="flat" display="none">
	<g id="pizza_2_" display="inline">
		<path fill="#EBA653" d="M30,56C17.85,56,8,46.15,8,34s9.85-22,22-22V7C15.088,7,3,19.088,3,34s12.088,27,27,27s27-12.088,27-27h-5
			C52,46.15,42.15,56,30,56z"/>
		<path fill="#F4CC9B" d="M8,34c0,12.15,9.85,22,22,22s22-9.85,22-22H30V12C17.85,12,8,21.85,8,34z"/>
		<path fill="#EBA653" d="M34,3v5c12.15,0,22,9.85,22,22h5C61,15.088,48.912,3,34,3z"/>
		<path fill="#F4CC9B" d="M34,30V8c12.15,0,22,9.85,22,22H34z"/>
		<path fill="#DF563C" d="M35.627,44.627c1.83-1.83,1.83-4.797,0-6.627L29,44.627C30.83,46.458,33.797,46.458,35.627,44.627z"/>
		<path fill="#DF563C" d="M17.971,28.029c-1.373-1.373-3.598-1.373-4.971,0L17.971,33C19.343,31.627,19.343,29.402,17.971,28.029z"
			/>
		<path fill="#DF563C" d="M42.971,20.029c-1.373-1.373-3.598-1.373-4.971,0L42.971,25C44.343,23.627,44.343,21.402,42.971,20.029z"
			/>
		<path fill="#61B46F" d="M24,50h-2c-0.553,0-1-0.448-1-1s0.447-1,1-1h2c0.553,0,1,0.448,1,1S24.553,50,24,50z"/>
		<path fill="#61B46F" d="M26,29h-2c-0.553,0-1-0.448-1-1s0.447-1,1-1h2c0.553,0,1,0.448,1,1S26.553,29,26,29z"/>
		<path fill="#61B46F" d="M24.293,20.707c-0.256,0-0.512-0.098-0.707-0.293c-0.391-0.391-0.391-1.023,0-1.414L25,17.586
			c0.391-0.391,1.023-0.391,1.414,0s0.391,1.023,0,1.414L25,20.414C24.805,20.609,24.549,20.707,24.293,20.707z"/>
		<path fill="#61B46F" d="M47.586,23c-0.256,0-0.512-0.098-0.707-0.293c-0.391-0.391-0.391-1.023,0-1.414l1.414-1.414
			c0.391-0.391,1.023-0.391,1.414,0s0.391,1.023,0,1.414l-1.414,1.414C48.098,22.902,47.842,23,47.586,23z"/>
		<path fill="#61B46F" d="M45.414,42c-0.256,0-0.512-0.098-0.707-0.293l-1.414-1.414c-0.391-0.391-0.391-1.023,0-1.414
			s1.023-0.391,1.414,0l1.414,1.414c0.391,0.391,0.391,1.023,0,1.414C45.926,41.902,45.67,42,45.414,42z"/>
		<circle fill="#DF563C" cx="21" cy="42" r="2"/>
		<path fill="#DF563C" d="M45,15c1.362,0,2.562-0.684,3.285-1.724c-2.013-1.721-4.338-3.086-6.882-3.995
			C41.152,9.803,41,10.382,41,11C41,13.209,42.791,15,45,15z"/>
		<path fill="#DF563C" d="M14,42c0-1.657-1.343-3-3-3c-0.861,0-1.632,0.368-2.179,0.949c0.5,1.784,1.219,3.476,2.127,5.046
			C10.965,44.995,10.982,45,11,45C12.657,45,14,43.657,14,42z"/>
		<path fill="#DF563C" d="M34,52c-1.657,0-3,1.343-3,3c0,0.341,0.069,0.663,0.174,0.968c2.023-0.106,3.97-0.491,5.812-1.107
			C36.912,53.27,35.609,52,34,52z"/>
		<rect x="26" y="36" fill="#615553" width="2" height="2"/>
		<rect x="40" y="46" fill="#615553" width="2" height="2"/>
		<rect x="49" y="25" fill="#615553" width="2" height="2"/>
		<rect x="37" y="25" fill="#615553" width="2" height="2"/>
		<rect x="37" y="14" fill="#615553" width="2" height="2"/>
		<rect x="12" y="34" fill="#615553" width="2" height="2"/>
		<rect x="19" y="22" fill="#615553" width="2" height="2"/>
	</g>
</g>
<g id="outline__x28_Expand_x2F_Unite_x29_">
	<g id="pizza_1_">
		<path d="M57,33h-5H31V12V7c0-0.552-0.447-1-1-1C14.561,6,2,18.561,2,34s12.561,28,28,28s28-12.561,28-28
			C58,33.448,57.553,33,57,33z M50.949,35c-0.009,0.199-0.015,0.398-0.03,0.595c-0.025,0.333-0.055,0.664-0.096,0.992
			c-0.045,0.363-0.102,0.722-0.165,1.079c-0.057,0.322-0.117,0.643-0.189,0.959c-0.08,0.352-0.172,0.7-0.269,1.045
			c-0.087,0.309-0.175,0.618-0.276,0.921c-0.113,0.34-0.24,0.674-0.369,1.007c-0.115,0.295-0.23,0.589-0.358,0.878
			c-0.145,0.326-0.303,0.644-0.464,0.962c-0.141,0.279-0.281,0.559-0.435,0.831c-0.175,0.31-0.364,0.61-0.553,0.91
			c-0.166,0.263-0.33,0.527-0.507,0.781c-0.203,0.291-0.42,0.571-0.637,0.851c-0.189,0.244-0.375,0.491-0.574,0.727
			c-0.23,0.272-0.475,0.53-0.718,0.79c-0.21,0.224-0.415,0.451-0.634,0.666c-0.256,0.251-0.527,0.486-0.795,0.723
			c-0.228,0.202-0.451,0.408-0.688,0.6c-0.28,0.227-0.575,0.436-0.867,0.649c-0.245,0.178-0.485,0.363-0.737,0.531
			c-0.304,0.202-0.623,0.384-0.938,0.57c-0.258,0.153-0.511,0.314-0.776,0.456c-0.33,0.176-0.673,0.329-1.013,0.488
			c-0.267,0.125-0.529,0.26-0.802,0.374c-0.119,0.05-0.245,0.086-0.366,0.134C37.104,52.04,35.677,51,34,51c-2.206,0-4,1.794-4,4
			c-7.258,0-13.666-3.703-17.439-9.318C13.993,45.073,15,43.652,15,42c0-2.206-1.794-4-4-4c-0.542,0-1.066,0.111-1.55,0.316
			C9.158,36.922,9,35.48,9,34c0-0.714,0.037-1.419,0.107-2.114c0.023-0.231,0.071-0.454,0.101-0.683
			c0.062-0.46,0.119-0.922,0.21-1.372c0.054-0.267,0.133-0.524,0.197-0.787c0.098-0.402,0.188-0.806,0.309-1.198
			c0.084-0.274,0.192-0.538,0.287-0.807c0.13-0.368,0.253-0.739,0.403-1.098c0.113-0.271,0.247-0.531,0.372-0.796
			c0.16-0.342,0.314-0.688,0.492-1.019c0.141-0.263,0.3-0.513,0.451-0.768c0.188-0.318,0.371-0.639,0.575-0.946
			c0.167-0.251,0.35-0.488,0.527-0.731c0.214-0.294,0.424-0.59,0.653-0.872c0.191-0.235,0.396-0.458,0.597-0.684
			c0.239-0.27,0.475-0.542,0.727-0.799c0.213-0.217,0.439-0.421,0.661-0.629c0.261-0.245,0.522-0.491,0.795-0.723
			c0.234-0.198,0.478-0.382,0.72-0.569c0.282-0.219,0.564-0.438,0.858-0.642c0.253-0.176,0.516-0.339,0.777-0.504
			c0.301-0.19,0.602-0.38,0.913-0.555c0.271-0.153,0.55-0.292,0.829-0.433c0.318-0.161,0.637-0.32,0.964-0.465
			c0.288-0.128,0.582-0.242,0.876-0.357c0.333-0.13,0.667-0.257,1.008-0.37c0.303-0.101,0.611-0.189,0.92-0.276
			c0.346-0.097,0.694-0.19,1.047-0.27c0.316-0.071,0.636-0.131,0.957-0.188c0.357-0.063,0.717-0.12,1.08-0.165
			c0.328-0.041,0.659-0.071,0.992-0.096c0.197-0.015,0.397-0.021,0.595-0.03V34c0,0.552,0.447,1,1,1H50.949z M35.022,54.368
			c-0.322,0.08-0.643,0.167-0.969,0.232c-0.398,0.078-0.804,0.13-1.21,0.185c-0.26,0.036-0.518,0.086-0.78,0.111
			c-0.02,0.002-0.041,0.001-0.062,0.003C32.057,53.843,32.932,53,34,53c0.801,0,1.492,0.475,1.806,1.165
			C35.548,54.24,35.285,54.303,35.022,54.368z M9.966,40.293C10.276,40.102,10.63,40,11,40c1.103,0,2,0.897,2,2
			c0,0.928-0.636,1.71-1.494,1.935c-0.246-0.457-0.465-0.93-0.678-1.406c-0.056-0.126-0.125-0.247-0.179-0.374
			C10.392,41.549,10.166,40.927,9.966,40.293z M30,60C15.663,60,4,48.336,4,34C4,19.999,15.126,8.547,29,8.019v3.002
			c-0.031,0.001-0.061,0.005-0.091,0.006c-0.18,0.008-0.359,0.024-0.538,0.036c-0.205,0.014-0.411,0.027-0.615,0.047
			c-0.18,0.018-0.357,0.041-0.536,0.063c-0.201,0.024-0.401,0.047-0.6,0.077c-0.179,0.026-0.355,0.059-0.533,0.089
			c-0.196,0.034-0.392,0.066-0.586,0.105c-0.177,0.035-0.352,0.076-0.528,0.115c-0.191,0.043-0.382,0.085-0.57,0.132
			c-0.176,0.044-0.351,0.094-0.525,0.142c-0.185,0.051-0.37,0.102-0.553,0.157c-0.174,0.053-0.346,0.11-0.519,0.167
			c-0.18,0.06-0.36,0.119-0.539,0.183c-0.171,0.061-0.34,0.127-0.509,0.192c-0.175,0.068-0.351,0.135-0.524,0.207
			c-0.168,0.07-0.334,0.143-0.501,0.216c-0.17,0.075-0.341,0.151-0.509,0.23c-0.164,0.077-0.326,0.158-0.488,0.239
			c-0.166,0.083-0.331,0.167-0.495,0.254c-0.16,0.085-0.319,0.173-0.477,0.262c-0.161,0.09-0.32,0.181-0.479,0.275
			c-0.156,0.093-0.311,0.188-0.465,0.285c-0.155,0.097-0.309,0.195-0.462,0.296c-0.152,0.1-0.302,0.203-0.452,0.307
			c-0.15,0.104-0.299,0.21-0.447,0.318c-0.146,0.107-0.29,0.215-0.434,0.325c-0.145,0.112-0.289,0.225-0.432,0.339
			c-0.141,0.114-0.281,0.229-0.419,0.346c-0.139,0.118-0.277,0.237-0.413,0.358c-0.136,0.12-0.27,0.242-0.403,0.365
			c-0.134,0.124-0.265,0.25-0.396,0.377c-0.13,0.126-0.258,0.253-0.385,0.383c-0.128,0.13-0.253,0.262-0.377,0.396
			c-0.124,0.132-0.246,0.265-0.367,0.4c-0.122,0.137-0.242,0.277-0.361,0.417c-0.116,0.136-0.231,0.273-0.344,0.412
			c-0.116,0.143-0.229,0.289-0.342,0.435c-0.11,0.143-0.22,0.285-0.327,0.43c-0.109,0.148-0.214,0.299-0.32,0.45
			c-0.103,0.147-0.206,0.295-0.306,0.444c-0.102,0.154-0.201,0.311-0.3,0.467c-0.096,0.152-0.193,0.305-0.285,0.459
			c-0.095,0.159-0.186,0.321-0.277,0.482c-0.089,0.156-0.178,0.312-0.263,0.471c-0.089,0.166-0.173,0.334-0.257,0.502
			c-0.08,0.159-0.162,0.318-0.239,0.479c-0.081,0.171-0.158,0.345-0.235,0.519c-0.072,0.163-0.146,0.324-0.215,0.489
			c-0.074,0.178-0.143,0.359-0.213,0.54c-0.063,0.163-0.129,0.326-0.188,0.491c-0.067,0.186-0.128,0.374-0.19,0.562
			c-0.055,0.165-0.112,0.328-0.163,0.495c-0.059,0.19-0.11,0.384-0.164,0.576c-0.047,0.167-0.096,0.333-0.139,0.502
			c-0.05,0.198-0.093,0.399-0.139,0.599c-0.038,0.166-0.078,0.331-0.112,0.498c-0.042,0.209-0.077,0.422-0.113,0.633
			c-0.028,0.161-0.06,0.322-0.084,0.484C7.226,30.772,7.201,31,7.173,31.226c-0.018,0.152-0.041,0.302-0.056,0.455
			c-0.025,0.251-0.041,0.505-0.058,0.759c-0.009,0.131-0.023,0.262-0.029,0.394C7.01,33.22,7,33.609,7,34
			c0,2.145,0.302,4.22,0.853,6.191c0.002,0.009,0.001,0.019,0.004,0.028c0.012,0.044,0.029,0.088,0.042,0.132
			c0.104,0.361,0.216,0.718,0.337,1.071c0.029,0.084,0.056,0.169,0.086,0.253c0.296,0.833,0.637,1.644,1.023,2.43
			c0.066,0.134,0.136,0.266,0.205,0.4c0.128,0.249,0.26,0.495,0.397,0.738c0.047,0.083,0.088,0.17,0.136,0.253
			c0.017,0.03,0.037,0.053,0.056,0.08C14.131,52.402,21.536,57,30,57c0.391,0,0.78-0.01,1.166-0.03
			c0.019-0.001,0.038-0.003,0.057-0.004c0.001,0,0.002,0,0.004,0c0.006,0,0.011-0.001,0.017-0.001
			c0.107-0.006,0.213-0.017,0.32-0.024c0.252-0.017,0.504-0.032,0.754-0.057c0.106-0.011,0.211-0.027,0.317-0.039
			c0.102-0.012,0.204-0.025,0.305-0.038c0.171-0.022,0.343-0.04,0.512-0.066c0.163-0.025,0.324-0.057,0.486-0.085
			c0.088-0.015,0.176-0.03,0.264-0.046c0.043-0.008,0.087-0.014,0.13-0.023c0.079-0.015,0.159-0.028,0.237-0.044
			c0.167-0.034,0.331-0.074,0.497-0.112c0.2-0.045,0.401-0.088,0.6-0.139c0.17-0.043,0.338-0.093,0.506-0.14
			c0.191-0.053,0.382-0.104,0.571-0.162c0.149-0.046,0.296-0.097,0.444-0.146c0.038-0.013,0.077-0.022,0.115-0.034
			c0.008-0.003,0.013-0.008,0.021-0.011c0.159-0.054,0.319-0.105,0.477-0.162c0.166-0.06,0.33-0.126,0.495-0.19
			c0.179-0.07,0.359-0.138,0.536-0.212c0.166-0.069,0.328-0.143,0.492-0.216c0.173-0.077,0.346-0.153,0.516-0.234
			c0.162-0.077,0.321-0.159,0.481-0.239c0.168-0.085,0.335-0.168,0.501-0.257c0.159-0.085,0.315-0.174,0.471-0.263
			c0.161-0.091,0.323-0.182,0.482-0.278c0.155-0.093,0.307-0.19,0.46-0.286c0.156-0.098,0.311-0.196,0.465-0.298
			c0.15-0.1,0.298-0.203,0.446-0.307c0.151-0.106,0.302-0.212,0.451-0.321c0.145-0.107,0.287-0.216,0.43-0.326
			c0.145-0.112,0.289-0.224,0.431-0.339c0.142-0.115,0.281-0.232,0.419-0.35c0.138-0.117,0.276-0.235,0.411-0.356
			c0.136-0.121,0.269-0.244,0.402-0.368c0.133-0.124,0.265-0.25,0.395-0.377c0.129-0.127,0.256-0.255,0.383-0.385
			c0.127-0.13,0.253-0.262,0.376-0.395c0.124-0.133,0.245-0.268,0.366-0.404c0.121-0.136,0.24-0.274,0.358-0.413
			c0.117-0.138,0.231-0.277,0.345-0.418c0.115-0.142,0.228-0.286,0.339-0.431c0.11-0.143,0.219-0.288,0.325-0.434
			c0.108-0.148,0.215-0.298,0.32-0.449c0.103-0.148,0.204-0.297,0.304-0.447c0.102-0.154,0.201-0.309,0.299-0.466
			c0.096-0.153,0.191-0.307,0.283-0.462c0.094-0.159,0.186-0.319,0.277-0.481c0.088-0.157,0.176-0.315,0.261-0.474
			c0.088-0.165,0.172-0.331,0.256-0.499c0.081-0.161,0.161-0.322,0.238-0.485c0.08-0.169,0.156-0.34,0.231-0.511
			c0.073-0.165,0.146-0.331,0.215-0.498c0.072-0.175,0.14-0.351,0.209-0.528c0.064-0.167,0.129-0.334,0.19-0.504
			c0.065-0.181,0.125-0.364,0.186-0.547c0.056-0.169,0.112-0.338,0.164-0.509c0.057-0.186,0.108-0.374,0.16-0.562
			c0.048-0.172,0.096-0.344,0.14-0.518c0.048-0.19,0.09-0.381,0.133-0.573c0.039-0.176,0.08-0.351,0.115-0.528
			c0.039-0.194,0.071-0.39,0.105-0.586c0.03-0.177,0.063-0.353,0.089-0.531c0.03-0.2,0.052-0.401,0.077-0.603
			c0.021-0.178,0.045-0.355,0.063-0.534c0.02-0.204,0.033-0.41,0.047-0.616c0.013-0.179,0.028-0.357,0.036-0.537
			c0.001-0.031,0.005-0.061,0.006-0.091h3.003C55.453,48.875,44.001,60,30,60z"/>
		<path d="M34,2c-0.553,0-1,0.448-1,1v5v22c0,0.552,0.447,1,1,1h6v-2h-5V9.051c0.205,0.01,0.411,0.016,0.615,0.031
			c0.312,0.024,0.623,0.051,0.931,0.088c0.377,0.046,0.749,0.106,1.119,0.171c0.299,0.053,0.599,0.106,0.894,0.172
			c0.369,0.082,0.732,0.181,1.094,0.282c0.157,0.044,0.312,0.089,0.467,0.136C40.042,10.284,40,10.641,40,11c0,2.757,2.243,5,5,5
			c1.248,0,2.435-0.472,3.345-1.294c0.641,0.602,1.257,1.229,1.819,1.906c0.125,0.15,0.235,0.313,0.355,0.467
			c0.283,0.361,0.565,0.723,0.825,1.102c0.139,0.204,0.262,0.419,0.394,0.628c0.219,0.346,0.439,0.69,0.638,1.049
			c0.131,0.236,0.245,0.482,0.367,0.723c0.175,0.347,0.351,0.694,0.508,1.052c0.113,0.26,0.211,0.528,0.314,0.793
			c0.137,0.354,0.274,0.708,0.393,1.071c0.091,0.279,0.168,0.565,0.248,0.849c0.101,0.362,0.2,0.724,0.282,1.094
			c0.066,0.295,0.119,0.595,0.172,0.895c0.066,0.37,0.125,0.742,0.171,1.119c0.037,0.308,0.065,0.62,0.088,0.932
			c0.016,0.204,0.021,0.41,0.031,0.615H46v2h10h5c0.553,0,1-0.448,1-1C62,14.561,49.439,2,34,2z M42,11
			c0-0.128,0.01-0.256,0.029-0.384c0.112,0.047,0.228,0.086,0.339,0.134c0.358,0.156,0.705,0.332,1.052,0.508
			c0.241,0.122,0.487,0.236,0.723,0.366c0.359,0.199,0.704,0.419,1.049,0.638c0.209,0.132,0.424,0.255,0.628,0.394
			c0.338,0.231,0.659,0.485,0.983,0.735C46.288,13.78,45.658,14,45,14C43.346,14,42,12.654,42,11z M56.979,29
			c-0.001-0.02-0.004-0.039-0.005-0.059c-0.031-0.671-0.094-1.334-0.181-1.99c-0.011-0.081-0.019-0.162-0.031-0.242
			c-0.092-0.64-0.213-1.271-0.357-1.893c-0.021-0.089-0.04-0.178-0.062-0.266c-0.15-0.613-0.325-1.216-0.523-1.809
			c-0.03-0.09-0.06-0.18-0.091-0.269c-0.205-0.589-0.432-1.167-0.682-1.733c-0.037-0.084-0.075-0.166-0.113-0.25
			c-0.259-0.567-0.538-1.123-0.84-1.664c-0.04-0.071-0.082-0.141-0.122-0.212c-0.313-0.547-0.645-1.082-1.001-1.6
			c-0.037-0.054-0.076-0.105-0.113-0.158c-0.37-0.529-0.759-1.045-1.171-1.54c-0.024-0.029-0.049-0.056-0.074-0.085
			c-0.806-0.959-1.69-1.85-2.64-2.667c-0.015-0.015-0.022-0.034-0.039-0.048c-0.054-0.046-0.112-0.084-0.166-0.129
			c-0.028-0.024-0.055-0.049-0.083-0.072c-0.389-0.323-0.791-0.631-1.201-0.929c-0.127-0.092-0.254-0.185-0.383-0.274
			c-0.039-0.027-0.078-0.054-0.117-0.081c-0.414-0.284-0.838-0.555-1.271-0.812c-0.126-0.075-0.253-0.149-0.38-0.222
			c-0.054-0.031-0.108-0.06-0.162-0.09c-0.444-0.248-0.896-0.482-1.358-0.701c-0.109-0.052-0.22-0.101-0.33-0.151
			c-0.076-0.034-0.151-0.068-0.227-0.101c-0.475-0.21-0.957-0.407-1.448-0.585c-0.024-0.009-0.047-0.02-0.071-0.029
			c-0.009-0.003-0.018-0.001-0.027-0.004c-0.06-0.021-0.121-0.04-0.181-0.061C41.44,8.241,41.348,8.21,41.256,8.18
			c-0.591-0.197-1.192-0.372-1.804-0.521c-0.09-0.022-0.181-0.042-0.272-0.063c-0.621-0.143-1.249-0.264-1.888-0.356
			c-0.082-0.012-0.165-0.021-0.247-0.031c-0.654-0.087-1.316-0.15-1.986-0.181C35.039,7.026,35.02,7.022,35,7.021V4.019
			C48.542,4.534,59.466,15.458,59.981,29H56.979z"/>
		<rect x="42" y="29" width="2" height="2"/>
		<path d="M28.293,45.334C29.367,46.409,30.795,47,32.313,47s2.946-0.591,4.021-1.665C37.408,44.261,38,42.833,38,41.314
			c0-1.519-0.592-2.947-1.666-4.021c-0.391-0.39-1.023-0.39-1.414,0l-6.627,6.627C27.902,44.311,27.902,44.944,28.293,45.334z
			 M35.53,39.511c0.307,0.544,0.47,1.161,0.47,1.803c0,0.984-0.384,1.91-1.08,2.606c-1.149,1.151-3.03,1.387-4.409,0.61
			L35.53,39.511z"/>
		<path d="M18.678,27.322C17.825,26.469,16.691,26,15.485,26s-2.34,0.469-3.192,1.322C12.105,27.51,12,27.764,12,28.029
			s0.105,0.52,0.293,0.707l4.971,4.971C17.451,33.895,17.705,34,17.971,34s0.52-0.105,0.707-0.293
			C20.437,31.947,20.437,29.083,18.678,27.322z M17.824,31.439l-3.265-3.264c0.898-0.353,2-0.14,2.704,0.562
			C17.992,29.466,18.18,30.535,17.824,31.439z"/>
		<path d="M42.971,26c0.266,0,0.52-0.105,0.707-0.293c1.76-1.76,1.76-4.625,0-6.385C42.825,18.469,41.691,18,40.485,18
			s-2.34,0.469-3.192,1.322C37.105,19.51,37,19.764,37,20.029s0.105,0.52,0.293,0.707l4.971,4.971
			C42.451,25.895,42.705,26,42.971,26z M42.264,20.736c0.729,0.729,0.916,1.799,0.561,2.703l-3.265-3.264
			C40.458,19.822,41.561,20.035,42.264,20.736z"/>
		<path d="M24,48h-2c-0.553,0-1,0.448-1,1s0.447,1,1,1h2c0.553,0,1-0.448,1-1S24.553,48,24,48z"/>
		<path d="M24,29h2c0.553,0,1-0.448,1-1s-0.447-1-1-1h-2c-0.553,0-1,0.448-1,1S23.447,29,24,29z"/>
		<path d="M24.293,20.707c0.256,0,0.512-0.098,0.707-0.293L26.414,19c0.391-0.391,0.391-1.023,0-1.414s-1.023-0.391-1.414,0
			L23.586,19c-0.391,0.391-0.391,1.023,0,1.414C23.781,20.609,24.037,20.707,24.293,20.707z"/>
		<path d="M48.293,19.879l-1.414,1.414c-0.391,0.391-0.391,1.023,0,1.414C47.074,22.902,47.33,23,47.586,23s0.512-0.098,0.707-0.293
			l1.414-1.414c0.391-0.391,0.391-1.023,0-1.414S48.684,19.488,48.293,19.879z"/>
		<path d="M44.707,41.707C44.902,41.902,45.158,42,45.414,42s0.512-0.098,0.707-0.293c0.391-0.391,0.391-1.023,0-1.414l-1.414-1.414
			c-0.391-0.391-1.023-0.391-1.414,0s-0.391,1.023,0,1.414L44.707,41.707z"/>
		<path d="M24,42c0-1.654-1.346-3-3-3s-3,1.346-3,3s1.346,3,3,3S24,43.654,24,42z M20,42c0-0.551,0.448-1,1-1s1,0.449,1,1
			s-0.448,1-1,1S20,42.551,20,42z"/>
		<rect x="26" y="36" width="2" height="2"/>
		<rect x="40" y="46" width="2" height="2"/>
		<rect x="49" y="25" width="2" height="2"/>
		<rect x="37" y="25" width="2" height="2"/>
		<rect x="37" y="14" width="2" height="2"/>
		<rect x="12" y="34" width="2" height="2"/>
		<rect x="19" y="22" width="2" height="2"/>
	</g>
</g>
<g id="outline__x28_Non-Ex_x29_" display="none">
	<g id="pizza" display="inline">
		<path fill="none" stroke="#000000" stroke-width="2" stroke-linejoin="round" stroke-miterlimit="10" d="M30,56
			C17.85,56,8,46.15,8,34s9.85-22,22-22V7C15.088,7,3,19.088,3,34s12.088,27,27,27s27-12.088,27-27h-5C52,46.15,42.15,56,30,56z"/>
		<path fill="none" stroke="#000000" stroke-width="2" stroke-linejoin="round" stroke-miterlimit="10" d="M8,34
			c0,12.15,9.85,22,22,22s22-9.85,22-22H30V12C17.85,12,8,21.85,8,34z"/>
		<path fill="none" stroke="#000000" stroke-width="2" stroke-linejoin="round" stroke-miterlimit="10" d="M34,3v5
			c12.15,0,22,9.85,22,22h5C61,15.088,48.912,3,34,3z"/>
		<path fill="none" stroke="#000000" stroke-width="2" stroke-linejoin="round" stroke-miterlimit="10" d="M46,30h10
			c0-12.15-9.85-22-22-22v22h6"/>
		
			<line fill="none" stroke="#000000" stroke-width="2" stroke-linejoin="round" stroke-miterlimit="10" x1="42" y1="30" x2="44" y2="30"/>
		<path fill="none" stroke="#000000" stroke-width="2" stroke-linejoin="round" stroke-miterlimit="10" d="M35.627,44.627
			c1.83-1.83,1.83-4.797,0-6.627L29,44.627C30.83,46.458,33.797,46.458,35.627,44.627z"/>
		<path fill="none" stroke="#000000" stroke-width="2" stroke-linejoin="round" stroke-miterlimit="10" d="M17.971,28.029
			c-1.373-1.373-3.598-1.373-4.971,0L17.971,33C19.343,31.627,19.343,29.402,17.971,28.029z"/>
		<path fill="none" stroke="#000000" stroke-width="2" stroke-linejoin="round" stroke-miterlimit="10" d="M42.971,20.029
			c-1.373-1.373-3.598-1.373-4.971,0L42.971,25C44.343,23.627,44.343,21.402,42.971,20.029z"/>
		
			<line fill="none" stroke="#000000" stroke-width="2" stroke-linecap="round" stroke-linejoin="round" stroke-miterlimit="10" x1="22" y1="49" x2="24" y2="49"/>
		
			<line fill="none" stroke="#000000" stroke-width="2" stroke-linecap="round" stroke-linejoin="round" stroke-miterlimit="10" x1="24" y1="28" x2="26" y2="28"/>
		
			<line fill="none" stroke="#000000" stroke-width="2" stroke-linecap="round" stroke-linejoin="round" stroke-miterlimit="10" x1="24.293" y1="19.707" x2="25.707" y2="18.293"/>
		
			<line fill="none" stroke="#000000" stroke-width="2" stroke-linecap="round" stroke-linejoin="round" stroke-miterlimit="10" x1="47.586" y1="22" x2="49" y2="20.586"/>
		
			<line fill="none" stroke="#000000" stroke-width="2" stroke-linecap="round" stroke-linejoin="round" stroke-miterlimit="10" x1="44" y1="39.586" x2="45.414" y2="41"/>
		
			<circle fill="none" stroke="#000000" stroke-width="2" stroke-linecap="round" stroke-linejoin="round" stroke-miterlimit="10" cx="21" cy="42" r="2"/>
		<path fill="none" stroke="#000000" stroke-width="2" stroke-linejoin="round" stroke-miterlimit="10" d="M45,15
			c1.362,0,2.562-0.684,3.285-1.724c-2.013-1.721-4.338-3.086-6.882-3.995C41.152,9.803,41,10.382,41,11C41,13.209,42.791,15,45,15z
			"/>
		<path fill="none" stroke="#000000" stroke-width="2" stroke-linejoin="round" stroke-miterlimit="10" d="M14,42
			c0-1.657-1.343-3-3-3c-0.861,0-1.632,0.368-2.179,0.949c0.5,1.784,1.219,3.476,2.127,5.046C10.965,44.995,10.982,45,11,45
			C12.657,45,14,43.657,14,42z"/>
		<path fill="none" stroke="#000000" stroke-width="2" stroke-linejoin="round" stroke-miterlimit="10" d="M34,52
			c-1.657,0-3,1.343-3,3c0,0.341,0.069,0.663,0.174,0.968c2.023-0.106,3.97-0.491,5.812-1.107C36.912,53.27,35.609,52,34,52z"/>
		<line fill="none" stroke="#000000" stroke-width="2" stroke-miterlimit="10" x1="26" y1="37" x2="28" y2="37"/>
		<line fill="none" stroke="#000000" stroke-width="2" stroke-miterlimit="10" x1="40" y1="47" x2="42" y2="47"/>
		<line fill="none" stroke="#000000" stroke-width="2" stroke-miterlimit="10" x1="49" y1="26" x2="51" y2="26"/>
		<line fill="none" stroke="#000000" stroke-width="2" stroke-miterlimit="10" x1="37" y1="26" x2="39" y2="26"/>
		<line fill="none" stroke="#000000" stroke-width="2" stroke-miterlimit="10" x1="37" y1="15" x2="39" y2="15"/>
		<line fill="none" stroke="#000000" stroke-width="2" stroke-miterlimit="10" x1="12" y1="35" x2="14" y2="35"/>
		<line fill="none" stroke="#000000" stroke-width="2" stroke-miterlimit="10" x1="19" y1="23" x2="21" y2="23"/>
	</g>
</g>
<g id="tag" display="none">
</g>
</svg>
