<svg version="1.1" xmlns="http://www.w3.org/2000/svg" xmlns:xlink="http://www.w3.org/1999/xlink" x="0px" y="0px" enable-background="new 0 0 256 256" xml:space="preserve" viewBox="9.93 56.07 236.07 143.92">
<g><g><g><path fill="#fff" d="M240,111.4c-13.8,4.7-27.7,9.2-41.7,13.6c-0.2-34.2-12-68.9-17.7-68.9c-10.7,0-16.5,41.9-16.5,41.9c-35.5-28.9-73.4,0-73.4,0c-2.5-5-14-35.9-23.9-35.9c-9.9,0-9.1,40.9-9.1,40.9c-0.1,10.4,0.4,19.7,1.5,28c-14.9-0.8-29.8-1.7-44.6-3.2c-6.2-0.6-6.2,11.1,0,11.7c15.6,1.6,31.1,2.5,46.7,3.3c0.7,3.1,1.5,6.1,2.4,8.9c-15.5,3.1-31.1,5.8-46.7,8.2c-6.1,1-6.2,12.7,0,11.7c17.1-2.7,34.1-5.6,51.1-9c1.4,2.8,3.1,5.2,4.8,7.7c-13.1,7-26.5,13.1-40.3,18.1c-5.9,2.2-3.4,13.5,2.6,11.3c15.5-5.7,30.5-12.5,45.2-20.7c17.7,16.4,45,18.2,79.5,11.6c10.5-2,18.2-7,24-14c15,7.8,30.2,14.4,46.3,18.1c6.1,1.4,8.7-9.8,2.6-11.3c-14.8-3.5-28.9-9.3-42.7-16.4c1.5-2.9,2.8-6,3.8-9.3c15.2,1.9,30.5,2.6,45.7,4c6.2,0.6,6.2-11.1,0-11.7c-14.3-1.3-28.7-1.9-43-3.6c0.5-3.1,0.9-6.2,1.2-9.3c14.9-4.8,29.8-9.5,44.7-14.6C248.6,120.6,246,109.3,240,111.4z"/></g><g/><g/><g/><g/><g/><g/><g/><g/><g/><g/><g/><g/><g/><g/><g/></g></g>
</svg>