<svg version="1.0" xmlns="http://www.w3.org/2000/svg" preserveAspectRatio="xMidYMid meet" viewBox="16.53 26.03 77.47 73.03">

<g transform="translate(0.000000,118.000000) scale(0.100000,-0.100000)" fill="#fff" stroke="none">
<path d="M295 906 c-78 -35 -115 -109 -115 -232 l0 -87 35 36 c19 20 48 44 65 53 23 14 30 25 30 50 0 56 35 74 145 74 111 0 145 -18 145 -76 0 -19 4 -34 9 -34 5 0 35 -23 65 -51 l56 -51 0 88 c-1 125 -41 202 -123 233 -41 16 -275 13 -312 -3z"/>
<path d="M403 679 c-94 -18 -171 -78 -213 -165 -45 -93 -26 -238 39 -303 18 -18 33 -21 116 -21 92 0 95 1 85 19 -5 11 -10 68 -10 126 0 104 1 107 28 135 52 52 158 49 200 -5 15 -18 29 -25 56 -25 42 0 45 13 17 76 -51 113 -196 187 -318 163z"/>
<path d="M503 460 c-34 -14 -43 -42 -43 -139 0 -78 3 -94 20 -111 41 -41 150 -16 150 35 0 12 14 15 70 15 51 0 70 -4 70 -13 0 -7 9 -23 20 -35 16 -17 32 -22 70 -22 70 0 80 18 80 141 0 80 -3 99 -18 112 -45 41 -135 24 -148 -28 -6 -23 -10 -25 -70 -25 -61 0 -64 1 -79 30 -23 44 -72 60 -122 40z"/>
</g>
</svg>