<?xml version="1.0" encoding="utf-8" ?><svg xmlns="http://www.w3.org/2000/svg" xmlns:xlink="http://www.w3.org/1999/xlink" width="600" height="600" viewBox="0 0 600 600"><path fill="white" d="M468.107 166.515C490.848 165.221 502.021 171.929 519.443 185.87C529.24 193.71 531.019 194.519 538.508 204.998C552.632 224.761 559.631 246.682 560.134 270.981C560.173 290.959 553.56 313.912 545.801 332.184C543.161 337.839 539.645 342.542 535.504 347.112C524.485 359.274 505.767 361.303 490.089 361.424C469.061 361.586 444.402 348.359 429.835 333.499C417.351 332.384 400.536 332.027 389.808 339.869C380.139 346.937 369.751 364.053 363.98 374.841C362.709 377.02 362.044 382.322 360.701 384.19C353.912 393.623 350.524 401.667 346.241 412.519C336.584 436.987 325.074 467.1 342.329 491.167C350.621 502.734 366.862 511.254 379.921 516.374C382.962 517.545 388.931 517.971 392.367 518.52L392.111 518.326L391.689 517.998C387.254 514.591 384.521 508.985 382.314 503.968C378.16 494.53 378.094 486.513 379.543 476.59C381.687 461.912 386.919 449.323 392.542 435.779C402.212 412.288 411.997 388.446 430.141 370.052C439.175 360.865 452.137 352.004 465.43 357.731C481.689 364.736 483.474 380.487 483.626 396.368C483.86 420.761 476.192 443.152 466.791 465.379C456.994 488.539 440.896 510.723 416.847 520.472C407.278 524.335 392.038 525.818 381.987 523.699C377.758 522.807 374.472 521.445 370.544 519.706C353.818 510.789 339.943 503.855 331.633 485.335C324.377 469.166 326.329 447.023 332.662 430.735C321.419 423.741 310.104 418.227 298.174 412.695C287.059 407.541 283.304 405.117 270.638 407.24C260.125 408.818 246.371 409.066 236.915 404.06C221.638 395.973 215.283 380.781 206.332 367.289C204.63 364.723 190.655 357.706 187.085 356.565C183.187 360.949 180.618 366.575 177.372 371.285C169.471 382.648 159.222 391.054 146.028 395.418C129.662 400.832 110.383 398.129 95.2473 390.407C76.3231 380.751 63.8769 363.993 57.8071 343.888C55.3827 335.858 53.8163 326.844 54.3395 318.346C56.676 291.128 66.907 258.164 78.8086 233.527C85.7814 219.869 97.8677 207.312 112.98 203.265C133.455 197.781 156.509 197.538 175.362 208.231C187.342 215.025 199.554 224.706 203.615 238.351C210.255 226.03 223.834 220.316 235.783 214.761C275.641 196.233 309.632 216.939 326.751 254.581C334.994 251.276 346.447 252.007 355.302 251.876C367.723 251.691 379.971 251.203 392.286 249.383C396.657 248.738 401.345 248.041 405.724 247.672L405.639 247.191C403.787 236.331 404.28 226.585 406.485 215.785C408.928 203.819 411.973 201.727 420.843 193.497C434.947 180.411 448.599 169.629 468.107 166.515ZM264.286 400.597C273.526 398.305 280.385 391.241 284.916 383.095C299.751 356.426 304.157 324.758 296.883 295.091C295.469 288.938 292.893 283.394 290.498 277.599C283.815 261.426 273.379 242.769 257.779 233.853C249.097 228.89 240.679 224.183 230.569 224.506C219.919 227.936 210.211 238.021 205.275 248.11C195.78 268.054 193.37 292.187 195.565 313.989C196.337 321.657 199.861 330.938 201.855 338.386C203.244 343.576 206.021 347.469 208.369 352.132C210.114 355.598 209.495 360.147 212.565 363.08C214.229 364.876 215.077 369.357 216.575 371.512C223.523 383.034 232.639 398.734 247.393 400.436C253.885 401.186 257.792 401.644 264.286 400.597ZM483.027 354.446C505.097 356.07 528.557 353.547 539.064 331.06C546.848 314.399 551.673 294.95 553.35 276.544C554.864 249.447 544.931 221.774 527.489 201.075C524.378 197.383 519.694 194.423 516.037 191.437C505.253 182.631 493.078 173.844 478.669 173.091C476.74 172.99 470.879 172.903 468.969 173.261C458.014 174.395 455.769 176.805 446.979 181.74C452.28 183.628 457.128 186.832 462.558 188.717C471.948 192.024 481.208 195.385 490.09 199.934C495.659 202.785 499.701 207.853 503.579 212.577C520.731 233.468 528.987 262.375 523.092 289.04C521.838 294.713 520.856 300.556 518.725 306.03C509.771 328.341 500.241 348.169 474.364 352.867C477.124 353.386 480.278 354.059 483.027 354.446ZM179.811 353.871C172.929 348.725 165.267 345.044 157.68 341.071C154.376 339.341 150.108 337.679 147.337 335.169C146.294 334.225 145.844 332.88 145.64 331.521C144.243 322.209 154.468 295.247 158.744 286.569C160.167 283.68 161.831 280.876 163.801 278.324C165.514 276.105 168.185 272.798 171.139 272.516C176.184 272.035 185.059 276.723 189.838 278.8C190.347 269.361 195.362 252.829 199.841 244.51C194.277 240.402 187.279 236.658 180.056 238.279C141.175 243.828 122.155 309.28 120.719 342.747C120.899 350.847 121.7 360.133 124.531 367.704C126.998 374.301 132.415 380.061 137.68 384.362C148.365 393.09 160.422 380.993 167.681 373.256C170.138 370.462 171.843 368.239 173.66 364.947C175.616 361.403 177.381 357.067 179.811 353.871ZM439.298 187.266C436.384 188.981 433.721 191.853 431.182 193.683C421.05 200.987 415.765 206.817 412.459 219.119C409.608 229.726 411.09 236.823 410.992 247.022C434.374 245.036 456.475 240.153 479.596 236.827C482.297 236.525 484.062 240.981 485.122 242.939C492.703 256.942 494.72 274.366 489.818 289.597C487.467 296.087 488.143 300.313 480.072 301.311C465.672 303.093 451.077 303.13 436.628 304.61C431.3 305.155 427.198 307.361 421.622 307.157C424.816 314.957 426.293 318.733 431.616 325.345C438.386 334.03 446.88 340.419 456.681 345.333C463.572 348.789 464.233 349.072 471.745 347.113C478.813 345.27 485.405 343.585 491.227 338.724C501.819 330.023 509.441 313.222 513.744 300.318C515.939 293.736 517.376 284.263 518.202 277.415C518.91 271.545 518.437 263.595 517.431 257.814C515.685 247.783 509.678 231.059 503.164 223.296C496.015 215.451 486.915 205.906 477.437 201.151C471.315 198.08 463.996 196.628 457.757 193.771C451.093 190.719 446.727 187.774 439.298 187.266ZM346.092 313.315C348.509 329.146 348.688 341.59 343.815 357.133C348.209 357.85 353.112 360.086 357.205 361.828C358.333 362.309 361.641 364.195 362.565 363.946L362.979 363.345C367.381 356.031 372.726 348.981 377.416 341.771C379.389 338.738 384.589 334.704 387.791 332.867C390.609 331.804 398.189 328.302 400.831 327.86C407.677 326.717 417.796 325.749 424.679 326.716C420.887 322.547 416.408 312.712 415.034 307.222C411.37 307.249 406.961 307.213 403.339 307.45C395.936 307.875 388.898 310.634 381.25 311.226C369.235 312.155 358.042 311.466 346.092 313.315ZM140.829 206.092C115.781 206.795 96.0033 212.068 84.2784 237.11C71.9959 263.342 62.0924 294.975 60.9209 324.055C61.8789 340.739 69.6211 361.437 82.0274 372.946C92.2718 382.449 101.733 387.529 115.212 390.353C123.991 392.192 127.342 391.675 135.79 391.408L135.983 391.127C135.207 390.422 135.124 390.393 134.257 389.891C122.862 381.175 116.484 370.135 115.107 355.659C111.859 321.5 124.235 281.7 144.331 254.121C154.78 239.78 177.371 225.52 195.13 234.136C193.425 231.783 191.103 228.463 189.082 226.471C178.987 216.515 166.005 209.094 151.872 206.954C147.738 206.328 144.932 206.123 140.829 206.092ZM279.131 399.914C284.431 398.915 287.904 398.178 293.108 396.457C304.253 392.443 319.527 384.024 327.669 375.319C336.285 366.108 342.104 341.836 341.465 329.262C340.046 311.641 335.237 293.175 329.196 276.571C322.239 257.451 312.413 237.822 296.011 225.169C285.156 216.795 275.139 213.396 261.271 214.571C252.749 215.398 249.006 217.15 241.356 219.307C250.354 221.518 266.553 230.668 272.732 237.174C282.535 247.496 290.674 260.43 295.872 273.688C298.126 279.07 300.66 284.422 302.229 290.062C307.81 310.119 308.397 333.537 303.261 353.697C299.461 368.613 291.731 390.232 279.329 399.766L279.131 399.914ZM455.222 362.512C443.361 364 433.704 374.943 426.654 383.942C414.445 399.525 407.17 417.714 399.537 435.912C392.32 453.257 383.898 472.252 385.567 491.502C386.111 497.771 390.316 508.152 395.271 512.331C396.497 513.364 401.634 515.333 403.225 516.918C403.607 517.298 406.58 516.602 407.481 516.412C435.62 510.253 453.435 482.02 463.265 457.049C472.832 432.748 480.85 406.171 475.543 379.845C473.593 369.944 465.742 361.924 455.222 362.512Z"/></svg>