<?xml version="1.0" standalone="no"?>
<!DOCTYPE svg PUBLIC "-//W3C//DTD SVG 20010904//EN"
 "http://www.w3.org/TR/2001/REC-SVG-20010904/DTD/svg10.dtd">
<svg version="1.0" xmlns="http://www.w3.org/2000/svg"
 width="100.000000pt" height="109.000000pt" viewBox="0 0 100.000000 109.000000"
 preserveAspectRatio="xMidYMid meet">

<g transform="translate(0.000000,109.000000) scale(0.100000,-0.100000)"
fill="#fff" stroke="none">
<path d="M277 1053 c-4 -3 -7 -71 -7 -149 l0 -143 32 -36 31 -36 -18 -264
c-19 -282 -19 -281 28 -306 28 -15 76 7 84 39 3 14 -2 139 -12 278 l-17 254
31 35 32 36 -3 147 c-3 131 -5 147 -20 150 -15 3 -18 -4 -18 -45 0 -79 -12
-183 -21 -183 -5 0 -9 31 -9 69 0 95 -10 161 -25 161 -15 0 -25 -66 -25 -161
0 -38 -4 -69 -9 -69 -9 0 -21 104 -21 183 0 44 -13 61 -33 40z"/>
<path d="M603 1038 c-16 -18 -26 -55 -42 -160 -32 -212 -28 -236 42 -253 26
-7 28 -11 23 -44 -11 -77 -29 -400 -23 -423 4 -16 19 -30 37 -38 25 -10 34
-10 55 4 15 10 29 24 32 32 3 9 -4 156 -16 327 -11 172 -24 362 -27 422 -3 61
-7 120 -10 133 -6 29 -44 29 -71 0z"/>
</g>
</svg>
