<?xml version="1.0" encoding="utf-8" ?><svg xmlns="http://www.w3.org/2000/svg" xmlns:xlink="http://www.w3.org/1999/xlink" width="600" height="600" viewBox="0 0 600 600"><path fill="white" d="M177.691 167.116C178.828 166.994 180.453 166.968 181.649 166.968C206.246 166.968 231.364 172.518 252.053 186.268C254.791 188.088 257.555 190.025 260.342 191.559L260.735 191.773C264.757 190.027 268.324 187.392 272.46 185.807C280.289 182.806 288.527 181.039 296.704 179.283C311.863 176.027 327.486 173.193 343.019 172.742C360.334 172.239 377.066 175.929 393.363 181.423C397.543 182.832 402.873 184.173 406.084 187.35C413.254 194.445 407.877 223.661 406.498 233.446C405.701 239.104 404.963 244.744 404.461 250.438C403.538 260.903 403.54 271.115 403.395 281.603C409.412 269.473 413.502 254.967 418.113 242.203C423.142 228.282 428.188 214.489 434.056 200.89C436.023 196.332 437.481 190.692 439.95 186.529C442.561 182.129 448.762 180.88 453.158 183.036C457.841 184.935 462.843 188.36 461.296 194.09C454.799 218.163 446.242 241.725 437.244 264.972C434.742 271.434 432.523 277.884 429.956 284.251C440.156 285.472 454.602 290.321 458.633 300.764C461.979 309.43 462.943 321.881 462.954 331.226C462.975 349.422 460.922 367.843 459.091 385.938C456.952 404.656 455.713 433.626 435.724 442.183C423.64 447.357 408.087 447.345 395.079 448.817C364.814 451.55 333.998 453.442 303.705 450.241C296.322 449.459 285.883 447.888 279.09 445.126C270.655 457.357 254.579 464.568 240.204 459.153C228.2 454.631 214.936 440.467 209.594 429.002C209.065 431.151 208.268 433.606 207.63 435.751C207.572 436.388 207.359 438.704 207.197 439.209C205.101 445.757 197.095 452.43 191.449 455.605C181.187 461.511 168.734 461.734 157.575 458.87C144.859 455.607 135.457 441.413 133.708 428.909C132.114 417.524 134.35 400.079 137.997 388.693C142.423 374.873 152.635 354.513 165.481 346.93C179.582 339.509 195.698 350.898 202.032 363.56L202.285 363.364C210.284 357.092 221.244 360.341 230.415 361.905C231.913 362.161 233.499 362.574 234.928 363.08C234.439 360.28 234.349 356.903 234.24 353.696C233.668 336.826 235.097 318.174 240.46 302.124C242.122 297.149 249.271 293.117 253.865 291.42C253.328 283.214 254.559 270.443 254.541 261.641C254.501 242.062 254.515 222.431 254.579 202.854C254.009 202.405 253.432 201.963 252.843 201.539C246.286 196.831 239.246 192.516 231.862 189.237C208.975 179.069 182.032 177.367 157.537 181.473C153.797 182.1 150.066 182.904 146.42 183.952C142.577 185.057 127.855 190.134 126.16 193.297C125.321 194.86 128.269 228.613 128.473 232.87C128.876 241.256 128.444 249.692 128.689 258.085C129.085 271.614 129.939 285.136 130.188 298.669C130.474 314.164 130.636 373.109 123 383.044C122.055 384.274 120.561 385.002 119.03 385.131C117.414 385.268 115.844 384.745 114.621 383.681C113.426 382.641 112.653 381.167 112.552 379.579C112.311 375.764 114.1 371.286 114.741 367.477C115.525 362.815 116.021 358.025 116.387 353.312C118.932 320.536 117.438 287.685 115.982 254.902C115.745 249.556 115.475 244.204 115.449 238.851C115.425 234.125 115.629 229.367 115.466 224.647C115.166 215.973 114.087 207.278 113.536 198.613C113.219 193.632 112.786 189.317 116.358 185.317C120.088 181.139 125.463 178.757 130.541 176.65C146.644 169.969 160.441 168.085 177.691 167.116ZM246.364 366.229C258.697 370.305 275.415 376.556 283.487 387.037C292.954 399.33 291.287 420.917 284.794 434.221C297.835 437.865 313.283 439.04 326.884 439.434C349.301 439.953 371.896 438.575 394.215 436.512C402.848 435.714 411.936 435.224 420.458 433.791C429.298 432.305 435.369 430.314 439.336 421.955C447.563 402.58 451.076 343.73 450.147 321.639C443.579 326.601 425.083 331.486 416.568 333.123C395.083 337.254 372.563 335.571 350.852 335.02C320.445 334.249 290.587 331.7 261.297 322.997C256.921 321.697 253.236 319.1 249.242 317.359C247.34 327.52 246.549 336.134 246.395 346.502C246.304 352.613 247.609 360.813 246.364 366.229ZM266.067 287.031C283.672 281.503 297.281 281.446 315.533 280.744L361.156 279.543C372.353 279.245 379.885 278.585 391.174 279.527C390.283 266.391 392.005 250.462 393.478 237.361C394.746 226.078 398.867 206.837 396.857 195.923C379.85 188.924 360.537 184.462 342.054 185.288C328.003 185.801 313.767 188.3 300.021 191.155C289.366 193.369 275.912 196.109 267.152 202.773C266.19 224.455 267.355 245.893 266.66 267.522C266.51 272.188 266.668 282.952 266.067 287.031ZM212.442 372.174C211.277 372.385 210.456 372.449 209.807 373.533C207.561 377.283 208.823 383.235 209.762 387.141L213.123 400.562C216.9 416.232 219.533 426.145 231.419 438.263C242.067 449.119 254.867 453.374 266.78 440.885C276.346 429.288 284.416 400.994 269.862 390.638C256.853 381.381 228.313 371.729 212.442 372.174ZM173.322 357.183C163.191 360.028 152.122 383.869 149.442 393.714C143.599 415.178 140.048 448.672 171.597 448.307C178.367 447.966 187.004 445.73 191.31 440.365C196.091 434.409 199.795 420.914 199.057 413.132C198.475 406.992 197.914 401.682 197.051 395.661C195.666 383.659 194.699 369.929 185.11 361.276C181.999 358.468 177.521 356.805 173.322 357.183ZM365.521 291.636C349.109 292.38 332.817 292.571 316.534 293.095C298.38 293.679 282.39 293.68 265.222 300.482C261.133 302.102 257.832 303.019 253.567 305.051C262.78 312.113 270.284 312.4 280.868 315.152C308.929 322.449 336.633 321.487 365.264 323.197C386.392 324.301 407.925 323.836 428.154 317.543C435.947 315.119 442.257 313.577 448.256 307.54C447.667 306.454 446.743 304.62 445.967 303.724C440.985 297.966 432.338 297.658 425.444 295.822C423.644 299.614 417.939 314.989 413.638 315.939C406.857 317.437 397.402 313.925 391.27 310.811C393.497 305.477 396.575 297.315 399.109 292.384C394.697 292.357 390.113 291.651 385.748 291.525C379.245 291.337 372.009 291.32 365.521 291.636Z"/><path fill="white" d="M331.773 207.302C342.888 206.442 356.602 207.608 366.576 212.663C372.286 215.557 370.544 224.768 363.034 223.785C358.99 223.255 355.123 221.208 351.132 220.5C340.048 218.535 328.087 219.394 317.057 221.464C311.205 222.405 305.429 223.903 299.827 225.831C296.447 226.994 292.81 228.837 289.276 229.365C287.763 229.592 286.349 229.059 285.18 228.106C283.884 227.051 283.09 225.686 282.935 224.009C282.792 222.469 283.347 221.012 284.334 219.845C290.556 212.486 321.846 207.966 331.773 207.302Z"/><path fill="white" d="M321.847 247.688C326.996 247.455 372.36 248.534 363.169 263.397C361.004 266.897 348.657 262.814 344.192 261.857C335.587 260.012 327.613 259.949 318.449 260.192C311.476 260.671 304.185 261.123 297.512 263.488C293.876 264.777 289.866 267.826 286.012 268.533C284.668 268.777 282.721 268.469 281.726 267.403C275.39 260.615 283.126 256.584 287.976 254.28C299.01 249.04 310.091 248.177 321.847 247.688Z"/><path fill="white" d="M165.139 250.617C168.301 250.518 171.602 250.467 174.767 250.645C191.704 251.602 208.422 253.762 224.953 257.603C229.027 258.55 234.628 259.45 234.399 264.836C234.051 273.032 224.366 270.248 219.284 269.088C215.602 268.272 211.806 267.434 208.075 266.778C205.96 266.074 197.063 264.997 194.616 264.735C183.316 263.528 172.049 262.322 160.678 263.223C155.553 263.629 150.825 264.48 145.774 265.281C143.429 265.607 141.388 265.629 139.477 264.089C137.166 262.647 136.521 257.525 138.737 255.782C144.271 251.43 158.454 251.017 165.139 250.617Z"/><path fill="white" d="M174.889 285.765C186.073 285.101 195.053 285.615 205.635 289.69C208.152 290.612 210.453 291.409 212.672 292.949C217.683 296.216 214.466 304.089 208.728 303.332C204.814 302.816 200.56 300.855 196.725 299.692C188.815 297.295 180.914 297.796 172.781 298.298C165.138 299.123 159.038 300.213 151.811 303.113C148.654 304.198 145.186 306.38 141.967 307.037C136.553 308.143 132.807 301.17 136.805 297.212C139.689 294.356 143.032 293.335 146.632 291.934C155.863 288.341 165.048 286.449 174.889 285.765Z"/><path fill="white" d="M167.168 209.593C170.185 209.384 173.24 209.34 176.264 209.371C184.831 209.457 211.673 211.808 217.147 217.754C218.055 218.739 218.71 220.001 218.616 221.37C218.517 222.803 217.533 224.467 216.421 225.348C212.825 228.2 201.588 224.744 197.41 223.948C194.046 223.308 190.675 222.824 187.278 222.398C177.25 220.999 166.027 221.318 156.134 223.657C149.494 225.228 140.948 232.981 137.912 222.182C138.131 220.967 138.411 219.314 139.292 218.419C145.459 212.16 159.104 210.3 167.168 209.593Z"/></svg>