<?xml version="1.0" encoding="utf-8" ?><svg xmlns="http://www.w3.org/2000/svg" xmlns:xlink="http://www.w3.org/1999/xlink" width="600" height="600" viewBox="0 0 600 600"><path transform="scale(0.857143 0.857143)" d="M251.144 140.434C255.071 138.669 268.603 129.447 272.905 126.591C285.024 118.546 297.679 110.95 309.719 102.876C321.772 94.793 332.313 85.7986 345.675 79.3777C354.48 75.1468 366.423 71.981 375.962 75.5865C390.783 81.4034 401.617 94.7504 413.831 104.305C449.566 132.259 484.918 161.431 522.681 186.598C531.201 192.268 539.792 197.828 548.454 203.279C563.085 212.432 644.351 261.654 648.303 270.8C649.099 272.644 649.024 275.024 648.29 276.873C647.275 279.429 645.102 281.713 642.502 282.665C641.265 283.118 639.854 283.3 638.543 283.175C633.995 282.74 628.725 280.184 624.445 278.564C608.954 272.662 593.781 265.955 578.989 258.47C571.776 254.845 564.653 250.766 557.455 247.243C557.141 262.24 556.204 277.426 555.995 292.258C555.592 329.119 556.028 365.984 557.302 402.826C557.76 417.002 558.059 430.852 559.413 445.001C560.096 452.129 559.893 459.533 560.959 466.643C579.488 467.876 598.141 470.047 616.612 471.968C622.638 472.594 626.505 474.897 630.648 479.116C641.839 490.515 640.066 515.645 620.818 516.739C616.153 516.977 609.264 515.829 604.29 515.244L579.177 512.403C554.909 509.771 531.675 507.99 507.446 505.912C450.328 501.804 393.075 499.858 335.811 500.077C280.734 499.988 225.665 501.437 170.669 504.42C160.333 504.996 149.966 505.23 139.642 505.845C127.535 506.567 79.6198 511.397 71.985 506.916C69.9086 505.698 68.436 503.801 67.9386 501.45C67.4884 499.323 68.0183 497.306 69.2862 495.551C75.7973 486.54 145.889 478.6 160.351 476.163C160.25 463.1 159.637 448.959 160.354 435.983C163.09 386.451 163.183 337.398 163.073 287.793C163.124 277.79 162.975 267.787 162.627 257.79C162.564 255.599 162.569 249.016 162.05 247.386C160.478 247.337 152.028 253.166 149.777 254.531C131.76 265.549 113.535 276.223 95.1113 286.547C91.5906 288.492 85.3303 292.272 81.6933 293.439C78.5968 294.438 75.299 294.643 72.1023 294.037C56.6569 291.056 48.2394 268.911 61.8665 258.604C65.1238 256.141 70.4075 253.602 74.1051 251.521C82.0374 247.065 89.9442 242.563 97.825 238.016C119.461 225.514 139.376 212.912 160.469 199.9C159.667 178.535 158.372 157.192 156.585 135.888C155.712 124.478 155.202 113.085 153.876 101.74C153.406 95.9739 152.114 90.6946 156.214 85.8731C160.588 80.7296 165.945 80.4398 172.184 79.7159C175.077 79.3802 178.052 79.1863 180.978 78.9415C188.581 78.2885 196.188 77.6853 203.799 77.1319C213.68 76.3903 223.999 75.1722 233.987 74.3093C239.377 73.8062 243.243 74.0312 247.256 78.2267C249.304 80.3709 250.73 83.0323 251.381 85.9254C252.247 89.9274 251.829 96.9095 251.91 101.123C252.16 114.179 251.187 127.44 251.144 140.434ZM190.064 229.44C189.6 233.24 189.914 239.998 190.003 243.948C190.185 251.199 190.307 258.45 190.37 265.703C190.614 304.625 189.385 343.367 187.031 382.214C185.883 401.177 184.974 420.326 183.262 439.249C182.505 446.944 181.613 454.626 180.587 462.291C180.122 465.717 179.254 470.492 178.994 473.812C203.175 471.123 227.387 468.718 251.625 466.598C259.074 465.998 266.529 465.488 273.991 465.071C277.802 464.838 283.656 464.589 287.329 464.029C285.838 430.758 283.835 398.369 282.945 365.003C282.674 356.452 282.555 347.898 282.588 339.343C282.564 325.438 282.261 309.384 292.207 298.29C298.38 291.404 307.189 289.398 316.09 289.193C324.965 289.04 334.107 289.149 342.999 289.298C360.475 290.068 377.908 291.329 395.327 292.93C403.134 293.648 411.174 293.305 418.871 294.833C423.756 295.804 428.469 300.857 428.573 305.916C428.691 311.659 428.065 317.509 427.733 323.262L425.993 356.822C424.542 391.331 423.385 425.851 422.524 460.379C446.871 460.749 471.212 461.45 495.541 462.481C501.623 462.706 507.702 463 513.778 463.364C518.411 463.687 523.908 464.372 528.474 464.204C527.849 454.094 527.444 443.972 527.26 433.845C526.975 400.535 529.198 366.935 529.543 333.599C529.698 318.679 531.611 303.175 532.129 288.229C533.075 269.859 534.343 253.622 536.706 235.413C530.442 231.599 523.707 226.778 517.658 222.578L487.527 201.472L393.133 134.643C390.774 132.971 365.781 115.04 364.807 114.825C360.955 116.694 355.856 120.125 352.145 122.477C344.516 127.319 336.92 132.214 329.358 137.16C304.468 153.373 279.663 169.717 254.944 186.19L209.822 216.224C206.109 218.693 192.591 227.253 190.064 229.44ZM220.45 105.433C213.8 105.628 207.104 106.226 200.466 106.751C194.937 107.188 189.096 107.369 183.611 107.929C183.595 112.39 184.094 116.895 184.376 121.351C185.595 140.587 187.265 160.094 187.721 179.349L188.139 181.489L188.478 181.667C190.807 180.616 197.03 176.469 199.38 174.901C205.607 170.748 212.706 166.45 218.685 162.015C219.89 150.704 219.824 136.072 220.499 124.536C220.711 120.916 221.202 108.893 221.005 105.706L220.45 105.433ZM315.887 315.537C308.344 318.213 307.946 323.622 307.587 330.841C306.649 349.648 307.158 368.188 305.975 387.025L302.568 436.8C302.097 443.947 301.026 456.312 301.284 463.329C323.585 462.054 345.912 461.282 368.247 461.014C373.729 460.918 379.133 460.577 384.626 460.595C386.986 460.591 392.036 460.771 394.144 460.33C395.306 459.14 395.469 448.2 395.61 445.775L400.166 353.245L401.042 332.722C401.18 328.779 401.2 323.94 401.596 320.104C395.886 319.441 389.87 319.238 384.102 318.885L347.52 316.939C337.997 316.452 324.997 314.87 315.887 315.537Z"/></svg>