<svg id="vector" xmlns="http://www.w3.org/2000/svg" width="191.0d" height="201.0d" viewBox="0 0 191.0 201.0"><path fill="#ffffff" d="M82.86,106.56C82.43,105.52 81.67,102.26 81.45,99.55C80.87,92.34 80.36,81.58 79.83,79.53C79.11,76.73 77.57,73.83 77.57,72.82C77.57,64.01 75.61,61.8 75.61,60.37C75.61,59.45 76.04,59.94 76.04,54.6C76.04,49.27 70.24,43.68 64.43,43.68L58.79,40.15V35.05H58.74C57.32,36.64 54.79,39.06 52.5,39.06C50.21,39.06 47.68,36.64 46.26,35.05H46.21V40.15L40.57,43.68C34.76,43.68 28.96,49.27 28.96,54.6C28.96,59.94 29.39,59.45 29.39,60.37C29.39,61.8 27.43,64.01 27.43,72.82C27.43,73.83 25.89,76.73 25.16,79.53C24.64,81.58 24.13,92.34 23.55,99.55C23.33,102.26 22.57,105.52 22.14,106.56C21.12,108.99 26.02,112.7 26.34,112.83C26.77,113 26.91,112.15 27.05,111.82C27.64,110.45 25.45,108.82 25.59,107.87C25.76,106.73 25.96,104.72 26.75,105.04C27.54,105.36 27.81,107.18 28.6,107.5C29.39,107.82 29.73,107.61 29.97,107.01C30.11,106.66 29.21,104.45 28.41,102.38C27.84,100.91 27.94,99.86 27.94,99.86C27.94,99.86 34.21,85.2 34.48,82.24C35.33,80.88 34.94,80.2 35.05,79.21C35.48,75.25 35.49,67.58 36.07,67.58C36.62,67.58 36.68,69.99 36.68,71.46C36.68,74.85 39.2,74.98 39.2,79.53C39.2,82.98 38.28,81.57 38.28,87.6C38.28,89.39 35.29,91.03 35.29,98.18C35.29,100.03 33.33,103.48 33.33,110.95C33.33,125.25 37.11,132.21 37.11,138.24C37.11,144.71 35.95,144.16 35.95,151.67C35.95,159.19 40.61,168.8 40.61,174.04C40.61,185.56 36.81,182.6 36.81,185.25C36.81,185.95 37.54,186.4 37.54,186.4L44.04,187.1H47.39L48.41,185.87C48.41,185.87 47.51,184.3 47.51,183.48C47.51,182.66 47.96,181.06 47.96,180.07C47.96,179.09 46.7,175.64 46.7,172.52C46.7,169.4 46.62,160.42 46.62,160.42C46.62,160.42 46.92,157.47 46.92,154.38C46.92,151.3 45.02,149.76 45.02,148.41C45.02,147.05 50.48,137.2 50.48,126.23C50.48,120.38 51.89,110.52 51.89,103.68H52.5H53.11C53.11,110.52 54.52,120.38 54.52,126.23C54.52,137.2 59.98,147.05 59.98,148.41C59.98,149.76 58.08,151.3 58.08,154.38C58.08,157.47 58.38,160.42 58.38,160.42C58.38,160.42 58.3,169.4 58.3,172.52C58.3,175.64 57.04,179.09 57.04,180.07C57.04,181.06 57.49,182.66 57.49,183.48C57.49,184.3 56.59,185.87 56.59,185.87L57.61,187.1H60.96L67.46,186.4C67.46,186.4 68.19,185.95 68.19,185.25C68.19,182.6 64.39,185.56 64.39,174.04C64.39,168.8 69.05,159.19 69.05,151.67C69.05,144.16 67.89,144.71 67.89,138.24C67.89,132.21 71.67,125.25 71.67,110.95C71.67,103.48 69.71,100.03 69.71,98.18C69.71,91.03 66.72,89.39 66.72,87.6C66.72,81.57 65.8,82.98 65.8,79.53C65.8,74.98 68.32,74.85 68.32,71.46C68.32,69.99 68.38,67.58 68.93,67.58C69.51,67.58 69.52,75.25 69.95,79.21C70.06,80.2 69.67,80.88 70.52,82.24C70.79,85.2 77.06,99.86 77.06,99.86C77.06,99.86 77.16,100.91 76.59,102.38C75.79,104.45 74.89,106.66 75.03,107.01C75.27,107.61 75.61,107.82 76.4,107.5C77.19,107.18 77.46,105.36 78.25,105.04C79.04,104.72 79.24,106.73 79.41,107.87C79.55,108.82 77.36,110.45 77.95,111.82C78.09,112.15 78.23,113 78.66,112.83C78.98,112.7 83.88,108.99 82.86,106.56Z" fill-rule="evenodd" id="path_0"/><path fill="#ffffff" d="M28.96,54.6C28.96,59.94 29.39,59.45 29.39,60.37C32.09,59.82 33.86,57.48 37.11,52C40.36,46.51 43.12,47.38 43.12,46.08C43.12,45.1 41.22,44.67 40.57,43.68C34.76,43.68 28.96,49.26 28.96,54.6Z" fill-rule="evenodd" id="path_1"/><path fill="#ffffff" d="M49.92,49.53C49.56,48.82 44.41,46.08 43.12,46.08C43.12,47.38 40.36,46.51 37.11,52C35.91,54.03 34.9,55.63 33.98,56.87C35.44,57.69 34.97,58.34 36.32,59.51C37.66,60.68 42.14,62.47 44.9,62.47C47.66,62.47 51.49,60.81 51.49,60.81V56.62C51.49,52.06 50.48,50.64 49.92,49.53Z" fill-rule="evenodd" id="path_2"/><path fill="#ffffff" d="M45.96,70.15V66C45.96,64.56 46.53,63.5 47.6,63.5C48.66,63.5 50.82,62.59 51.07,62.59C51.31,62.59 51.81,62.68 51.81,63.19V68.77C51.81,69.58 50.85,69.64 49.52,69.64C48.74,69.64 47.08,70.34 46.74,70.69C46.39,71.04 45.96,70.56 45.96,70.15Z" fill-rule="evenodd" id="path_3"/><path fill="#ffffff" d="M51.81,72.42C51.81,71.81 51.52,71.31 50.78,71.31H48.9C48.17,71.31 46.08,72.59 46.08,73.74V76.41C46.08,76.95 46.33,77.23 46.98,77.23H49.84C50.21,77.23 51.81,76.49 51.81,75.47V72.42Z" fill-rule="evenodd" id="path_4"/><path fill="#ffffff" d="M45.91,82.83V79.78C45.91,79.25 46.19,78.51 46.98,78.51H50.29C50.78,78.51 51.76,79.13 51.76,79.81V82.83C51.76,83.29 51.55,84.09 51.03,84.09H47.6C47.04,84.09 45.91,83.57 45.91,82.83Z" fill-rule="evenodd" id="path_5"/><path fill="#ffffff" d="M50.87,85.57H47.47C46.82,85.57 46.08,86.1 46.08,86.72C46.08,87.34 49.11,100.89 51.48,100.89H51.76C51.89,97.69 51.76,87.27 51.76,86.72C51.76,86.06 51.64,85.57 50.87,85.57Z" fill-rule="evenodd" id="path_6"/><path fill="#ffffff" d="M59.04,70.15V66C59.04,64.56 58.47,63.5 57.4,63.5C56.34,63.5 54.18,62.59 53.93,62.59C53.69,62.59 53.2,62.68 53.2,63.19V68.77C53.2,69.58 54.16,69.64 55.48,69.64C56.26,69.64 57.92,70.34 58.26,70.69C58.61,71.04 59.04,70.56 59.04,70.15Z" fill-rule="evenodd" id="path_7"/><path fill="#ffffff" d="M53.2,72.42C53.2,71.81 53.48,71.31 54.22,71.31H56.1C56.83,71.31 58.92,72.59 58.92,73.74V76.41C58.92,76.95 58.67,77.23 58.02,77.23H55.16C54.79,77.23 53.2,76.49 53.2,75.47V72.42Z" fill-rule="evenodd" id="path_8"/><path fill="#ffffff" d="M59.09,82.83V79.78C59.09,79.25 58.82,78.51 58.02,78.51H54.71C54.22,78.51 53.24,79.13 53.24,79.81V82.83C53.24,83.29 53.45,84.09 53.97,84.09H57.41C57.96,84.09 59.09,83.57 59.09,82.83Z" fill-rule="evenodd" id="path_9"/><path fill="#ffffff" d="M54.14,85.57H57.53C58.18,85.57 58.92,86.1 58.92,86.72C58.92,87.34 55.89,100.89 53.52,100.89H53.24C53.11,97.69 53.24,87.27 53.24,86.72C53.24,86.06 53.36,85.57 54.14,85.57Z" fill-rule="evenodd" id="path_10"/><path fill="#ffffff" d="M35.05,55.34C34.92,55.54 34.79,55.73 34.67,55.91C34.79,55.73 34.92,55.54 35.05,55.34Z" fill-rule="evenodd" id="path_11"/><path fill="#ffffff" d="M33.98,56.87C34.06,56.76 34.15,56.64 34.23,56.53C32.56,58.85 31.18,60.01 29.39,60.37C29.39,61.8 27.43,64.01 27.43,72.82C27.43,74.61 31.67,76.9 33.62,72.82C34.88,70.17 35.36,69.07 35.65,68.42C35.8,67.89 35.95,67.58 36.07,67.58C36.5,66.84 36.32,59.51 36.32,59.51C34.97,58.34 35.44,57.69 33.98,56.87Z" fill-rule="evenodd" id="path_12"/><path fill="#ffffff" d="M34.3,56.43C34.42,56.27 34.54,56.1 34.66,55.92C34.54,56.1 34.42,56.27 34.3,56.43Z" fill-rule="evenodd" id="path_13"/><path fill="#ffffff" d="M52.5,13C46.95,13 44.18,17.93 44.18,20.51C44.18,23.08 45.14,33.7 45.14,33.7C45.14,33.7 49.08,39.06 52.5,39.06C55.91,39.06 59.86,33.7 59.86,33.7C59.86,33.7 60.82,23.08 60.82,20.51C60.82,17.93 58.05,13 52.5,13Z" fill-rule="evenodd" id="path_14"/><path fill="#ffffff" d="M60.55,90.38C60.55,85.82 61.74,86.19 61.74,83.76C61.74,78.71 60.55,74.4 60.55,72.14C60.55,69.88 60.76,62.47 60.76,62.47L60.66,62.45C60.47,62.46 60.28,62.47 60.1,62.47C57.34,62.47 53.51,60.81 53.51,60.81H52.5H51.49C51.49,60.81 47.66,62.47 44.9,62.47C44.72,62.47 44.53,62.46 44.34,62.45L44.24,62.47C44.24,62.47 44.45,69.88 44.45,72.14C44.45,74.4 43.26,78.71 43.26,83.76C43.26,86.19 44.45,85.82 44.45,90.38C44.45,91.98 43.22,93.11 41.63,93.11C41.63,96.78 50.21,103.68 52.5,103.68C54.79,103.68 63.37,96.78 63.37,93.11C61.78,93.11 60.55,91.98 60.55,90.38Z" fill-rule="evenodd" id="path_15"/><path fill="#ffffff" d="M63.37,93.11C64.43,90.34 66.72,87.6 66.72,87.6L63.37,93.11Z" fill-rule="evenodd" id="path_16"/><path fill="#ffffff" d="M37.09,137.4C37.09,137.9 37.38,138.18 37.62,138.18C37.87,138.18 38.44,135.38 38.44,133.52C38.34,133.52 38.28,133.27 38.28,132.55C38.28,130 35.89,125.33 35.89,116.37C35.89,107.42 38.6,97.65 39.2,93.78L39.07,91.97C39.01,90.95 38.95,88.47 38.95,88.47L38.28,87.55C38.28,87.57 38.28,87.59 38.28,87.6C38.28,89.39 35.29,91.03 35.29,98.18C35.29,100.03 33.33,103.48 33.33,110.95C33.33,111.39 33.34,111.82 33.34,112.25C33.34,112.36 33.35,112.48 33.35,112.59C33.36,112.9 33.36,113.2 33.37,113.5C33.38,113.64 33.38,113.78 33.39,113.92C33.4,114.19 33.41,114.45 33.42,114.71C33.43,114.86 33.44,115.01 33.45,115.15C33.46,115.4 33.47,115.65 33.49,115.89C33.5,116.04 33.51,116.18 33.52,116.33C33.54,116.57 33.55,116.8 33.57,117.03C33.58,117.17 33.6,117.31 33.61,117.45C33.63,117.68 33.65,117.92 33.67,118.14C33.68,118.28 33.7,118.41 33.71,118.54C33.73,118.77 33.76,119 33.78,119.22C33.8,119.34 33.81,119.46 33.82,119.59C33.85,119.82 33.88,120.04 33.91,120.26C33.92,120.38 33.94,120.49 33.95,120.6C33.98,120.83 34.01,121.06 34.04,121.29C34.06,121.38 34.07,121.48 34.09,121.58C34.12,121.82 34.15,122.05 34.19,122.28C34.2,122.36 34.22,122.45 34.23,122.53C34.27,122.77 34.31,123.01 34.35,123.25C34.36,123.32 34.37,123.38 34.38,123.44C34.42,123.7 34.47,123.96 34.52,124.21C34.52,124.25 34.53,124.29 34.54,124.33C34.59,124.61 34.64,124.89 34.69,125.16C34.7,125.17 34.7,125.17 34.7,125.18C35.7,130.32 36.9,134.04 37.09,137.4L37.09,137.4Z" fill-rule="evenodd" id="path_17"/><path fill="#ffffff" d="M52.5,39.06C51.84,39.06 51.16,38.86 50.49,38.53H50.48C50.48,40.89 50.95,47.7 52.5,47.7C54.05,47.7 54.52,40.89 54.52,38.53H54.52C53.85,38.86 53.16,39.06 52.5,39.06Z" fill-rule="evenodd" id="path_18"/><path fill="#ffffff" d="M39.2,93.78C38.6,97.65 35.89,107.42 35.89,116.37C35.89,125.33 38.28,130 38.28,132.55C38.28,135.1 39.05,131.82 39.5,131.82C39.95,131.82 41.59,134.95 41.59,136.89C41.59,136.98 41.6,137.03 41.62,137.05C41.61,136.95 41.62,136.84 41.62,136.74C41.61,136.47 41.6,136.21 41.61,135.93C41.61,135.83 41.62,135.72 41.62,135.62C41.64,135.3 41.66,134.98 41.69,134.65C41.69,134.58 41.7,134.52 41.71,134.46C41.91,132.39 42.36,130.09 42.62,128.28C42.63,128.23 42.64,128.17 42.64,128.12C42.7,127.74 42.74,127.38 42.77,127.05C43.02,124.43 44.57,119.01 45.32,115.8C45.32,115.8 45.33,115.77 45.33,115.73C45.33,115.68 45.34,115.56 45.35,115.4C45.35,115.38 45.35,115.34 45.35,115.31C45.36,115.16 45.37,114.99 45.38,114.78C45.38,114.77 45.38,114.77 45.38,114.76C45.39,114.52 45.4,114.25 45.41,113.94C45.41,113.92 45.42,113.91 45.42,113.9C45.45,112.95 45.49,111.72 45.51,110.34C45.51,110.23 45.51,110.12 45.51,110.01C45.52,109.64 45.52,109.28 45.52,108.89C45.52,108.4 45.51,107.35 45.51,107.33C45.51,105 42.84,97.51 41.81,94.26C41.6,93.61 41.7,93.37 41.63,93.11C41.22,91.52 38.95,88.47 38.95,88.47L39.2,93.78Z" fill-rule="evenodd" id="path_19"/><path fill="#ffffff" d="M45.51,107.33C45.51,107.35 45.51,107.36 45.51,107.38C45.52,107.89 45.52,108.4 45.52,108.89C45.52,109.28 45.52,109.64 45.51,110.01C45.51,110.12 45.51,110.23 45.51,110.34C45.49,111.72 45.45,112.96 45.42,113.9C45.42,113.91 45.42,113.92 45.42,113.94C45.4,114.25 45.39,114.52 45.38,114.76C45.38,114.77 45.38,114.77 45.38,114.78C45.37,114.99 45.36,115.16 45.35,115.31C45.35,115.34 45.35,115.38 45.35,115.4C45.34,115.56 45.33,115.68 45.33,115.73C45.33,115.78 45.32,115.8 45.32,115.8C44.57,119.01 43.02,124.43 42.77,127.05C42.74,127.38 42.7,127.74 42.64,128.12C42.64,128.12 42.64,128.13 42.64,128.13C42.57,128.63 42.48,129.18 42.39,129.75C42.31,130.23 42.23,130.73 42.15,131.24C42.15,131.25 42.14,131.27 42.14,131.28C42.06,131.8 41.98,132.33 41.9,132.85C41.9,132.86 41.9,132.87 41.9,132.88C41.83,133.41 41.76,133.94 41.71,134.46C41.71,134.48 41.7,134.5 41.7,134.52C41.7,134.56 41.69,134.61 41.69,134.65C41.66,134.98 41.64,135.29 41.63,135.6C41.62,135.65 41.62,135.7 41.62,135.75C41.61,135.81 41.61,135.87 41.61,135.93C41.6,136.21 41.61,136.47 41.62,136.74V136.75C41.62,136.91 41.62,137.09 41.63,137.24C41.87,140.11 43.92,139.95 43.92,139.95C45.28,139.95 47.94,139.1 48.8,137.54C48.89,137.2 48.98,136.85 49.07,136.5C49.88,133.38 50.48,129.87 50.48,126.23C50.48,125.59 50.5,124.91 50.52,124.18C50.52,119.07 48.01,112.84 45.51,107.33Z" fill-rule="evenodd" id="path_20"/><path fill="#ffffff" d="M67.91,137.4C67.91,137.9 67.62,138.18 67.38,138.18C67.13,138.18 66.56,135.38 66.56,133.52C66.66,133.52 66.72,133.27 66.72,132.55C66.72,130 69.11,125.33 69.11,116.37C69.11,107.42 66.4,97.65 65.8,93.78L65.93,91.97C65.99,90.95 66.05,88.47 66.05,88.47L66.72,87.55C66.72,87.57 66.72,87.59 66.72,87.6C66.72,89.39 69.71,91.03 69.71,98.18C69.71,100.03 71.67,103.48 71.67,110.95C71.67,111.39 71.66,111.82 71.66,112.25C71.66,112.36 71.65,112.48 71.65,112.59C71.64,112.9 71.64,113.2 71.63,113.5C71.62,113.64 71.62,113.78 71.61,113.92C71.6,114.19 71.59,114.45 71.58,114.71C71.57,114.86 71.56,115.01 71.55,115.15C71.54,115.4 71.53,115.65 71.51,115.89C71.5,116.04 71.49,116.18 71.48,116.33C71.46,116.57 71.45,116.8 71.43,117.03C71.42,117.17 71.4,117.31 71.39,117.45C71.37,117.68 71.35,117.92 71.33,118.14C71.32,118.28 71.3,118.41 71.29,118.54C71.27,118.77 71.24,119 71.22,119.22C71.2,119.34 71.19,119.46 71.18,119.59C71.15,119.82 71.12,120.04 71.09,120.26C71.08,120.38 71.07,120.49 71.05,120.6C71.02,120.83 70.99,121.06 70.96,121.29C70.94,121.38 70.93,121.48 70.91,121.58C70.88,121.82 70.85,122.05 70.81,122.28C70.8,122.36 70.78,122.45 70.77,122.53C70.73,122.77 70.69,123.01 70.65,123.25C70.64,123.32 70.63,123.38 70.62,123.44C70.58,123.7 70.53,123.96 70.49,124.21C70.48,124.25 70.47,124.29 70.46,124.33C70.41,124.61 70.36,124.89 70.31,125.16C70.31,125.17 70.3,125.17 70.3,125.18C69.3,130.32 68.1,134.04 67.91,137.4L67.91,137.4Z" fill-rule="evenodd" id="path_21"/><path fill="#ffffff" d="M65.8,93.78C66.4,97.65 69.11,107.42 69.11,116.37C69.11,125.33 66.72,130 66.72,132.55C66.72,135.1 65.95,131.82 65.5,131.82C65.05,131.82 63.41,134.95 63.41,136.89C63.41,136.98 63.4,137.03 63.38,137.05C63.39,136.95 63.38,136.84 63.39,136.74C63.39,136.47 63.4,136.21 63.39,135.93C63.39,135.83 63.38,135.72 63.38,135.62C63.36,135.3 63.34,134.98 63.31,134.65C63.31,134.58 63.3,134.52 63.29,134.46C63.09,132.39 62.64,130.09 62.38,128.28C62.37,128.23 62.36,128.17 62.36,128.12C62.3,127.74 62.26,127.38 62.23,127.05C61.98,124.43 60.43,119.01 59.68,115.8C59.68,115.8 59.68,115.77 59.67,115.73C59.67,115.68 59.66,115.56 59.65,115.4C59.65,115.38 59.65,115.34 59.65,115.31C59.64,115.16 59.63,114.99 59.62,114.78C59.62,114.77 59.62,114.77 59.62,114.76C59.61,114.52 59.6,114.25 59.59,113.94C59.59,113.92 59.59,113.91 59.58,113.9C59.55,112.95 59.51,111.72 59.49,110.34C59.49,110.23 59.49,110.12 59.49,110.01C59.48,109.64 59.48,109.28 59.48,108.89C59.48,108.4 59.49,107.35 59.49,107.33C59.49,105 62.16,97.51 63.2,94.26C63.4,93.61 63.3,93.37 63.37,93.11C63.78,91.52 66.05,88.47 66.05,88.47L65.8,93.78Z" fill-rule="evenodd" id="path_22"/><path fill="#ffffff" d="M59.49,107.33C59.49,107.35 59.49,107.36 59.49,107.38C59.48,107.89 59.48,108.4 59.48,108.89C59.48,109.28 59.48,109.64 59.49,110.01C59.49,110.12 59.49,110.23 59.49,110.34C59.51,111.72 59.55,112.96 59.58,113.9C59.59,113.91 59.59,113.92 59.59,113.94C59.6,114.25 59.61,114.52 59.62,114.76C59.62,114.77 59.62,114.77 59.62,114.78C59.63,114.99 59.64,115.16 59.65,115.31C59.65,115.34 59.65,115.38 59.65,115.4C59.66,115.56 59.67,115.68 59.67,115.73C59.68,115.78 59.68,115.8 59.68,115.8C60.43,119.01 61.98,124.43 62.23,127.05C62.26,127.38 62.3,127.74 62.36,128.12C62.36,128.12 62.36,128.13 62.36,128.13C62.43,128.63 62.52,129.18 62.61,129.75C62.69,130.23 62.77,130.73 62.85,131.24C62.85,131.25 62.86,131.27 62.86,131.28C62.94,131.8 63.02,132.33 63.1,132.85C63.1,132.86 63.1,132.87 63.1,132.88C63.18,133.41 63.24,133.94 63.29,134.46C63.29,134.48 63.3,134.5 63.3,134.52C63.3,134.56 63.31,134.61 63.31,134.65C63.34,134.98 63.36,135.29 63.38,135.6C63.38,135.65 63.38,135.7 63.38,135.75C63.39,135.81 63.39,135.87 63.39,135.93C63.4,136.21 63.39,136.47 63.39,136.74V136.75C63.38,136.91 63.38,137.09 63.37,137.24C63.13,140.11 61.08,139.95 61.08,139.95C59.72,139.95 57.06,139.1 56.2,137.54C56.11,137.2 56.02,136.85 55.93,136.5C55.12,133.38 54.52,129.87 54.52,126.23C54.52,125.59 54.51,124.91 54.48,124.18C54.48,119.07 56.99,112.84 59.49,107.33Z" fill-rule="evenodd" id="path_23"/><path fill="#ffffff" d="M46.8,174.1C46.8,174.1 46.8,174.1 46.8,174.11C46.74,173.58 46.7,173.04 46.7,172.52C46.7,169.4 46.61,160.42 46.61,160.42C46.61,160.42 46.92,157.46 46.92,154.38C46.92,151.3 45.02,149.76 45.02,148.41C43.99,151.28 41.51,162.27 46.8,174.1Z" fill-rule="evenodd" id="path_24"/><path fill="#ffffff" d="M35.95,151.67C35.95,158.16 39.41,166.21 40.36,171.65C40.36,171.65 40.36,171.65 40.36,171.65C41.78,156.74 38.07,152.54 36.08,147.95C36,148.94 35.95,150.13 35.95,151.67Z" fill-rule="evenodd" id="path_25"/><path fill="#ffffff" d="M58.2,174.1C58.2,174.1 58.2,174.1 58.2,174.11C58.26,173.58 58.3,173.04 58.3,172.52C58.3,169.4 58.38,160.42 58.38,160.42C58.38,160.42 58.08,157.46 58.08,154.38C58.08,151.3 59.98,149.76 59.98,148.41C61.01,151.28 63.49,162.27 58.2,174.1Z" fill-rule="evenodd" id="path_26"/><path fill="#ffffff" d="M69.05,151.67C69.05,158.16 65.59,166.21 64.64,171.65C64.64,171.65 64.64,171.65 64.63,171.65C63.22,156.74 66.93,152.54 68.92,147.95C69,148.94 69.05,150.13 69.05,151.67Z" fill-rule="evenodd" id="path_27"/><path fill="#ffffff" d="M27.43,72.82C27.43,72.38 27.44,71.97 27.45,71.56C27.43,71.96 27.43,72.38 27.43,72.82Z" fill-rule="evenodd" id="path_28"/><path fill="#FF8303" d="M29.52,82.24C29.93,79.71 30.35,78.8 29.52,77.23C28.69,75.67 28.13,77.82 25.9,77.23C25.63,77.98 25.36,78.76 25.17,79.53C24.71,81.3 24.86,89.69 24.53,96.59C24.53,96.59 26.33,92.99 26.47,89.37C26.61,85.75 29.1,84.78 29.52,82.24Z" fill-rule="evenodd" id="path_29"/><path fill="#FF8303" d="M30,86.62C28.83,90.2 27.94,99.86 27.94,99.86C27.94,99.86 34.21,85.2 34.48,82.24C34.48,82.24 31.17,83.04 30,86.62Z" fill-rule="evenodd" id="path_30"/><path fill="#ffffff" d="M76.04,54.6C76.04,59.94 75.61,59.45 75.61,60.37C72.91,59.82 71.14,57.48 67.89,52C64.64,46.51 61.88,47.38 61.88,46.08C61.88,45.1 63.78,44.67 64.43,43.68C70.24,43.68 76.04,49.26 76.04,54.6Z" fill-rule="evenodd" id="path_31"/><path fill="#ffffff" d="M55.07,49.53C55.44,48.82 60.59,46.08 61.88,46.08C61.88,47.38 64.64,46.51 67.89,52C69.09,54.03 70.1,55.63 71.02,56.87C69.56,57.69 70.03,58.34 68.68,59.51C67.34,60.68 62.86,62.47 60.1,62.47C57.34,62.47 53.51,60.81 53.51,60.81V56.62C53.51,52.06 54.52,50.64 55.07,49.53Z" fill-rule="evenodd" id="path_32"/><path fill="#ffffff" d="M69.96,55.34C70.08,55.54 70.21,55.73 70.34,55.91C70.21,55.73 70.08,55.54 69.96,55.34Z" fill-rule="evenodd" id="path_33"/><path fill="#ffffff" d="M71.02,56.87C70.94,56.76 70.85,56.64 70.77,56.53C72.44,58.85 73.83,60.01 75.61,60.37C75.61,61.8 77.57,64.01 77.57,72.82C77.57,74.61 73.33,76.9 71.38,72.82C70.12,70.17 69.64,69.07 69.35,68.42C69.2,67.89 69.05,67.58 68.93,67.58C68.5,66.84 68.68,59.51 68.68,59.51C70.03,58.34 69.56,57.69 71.02,56.87Z" fill-rule="evenodd" id="path_34"/><path fill="#ffffff" d="M70.7,56.43C70.58,56.27 70.46,56.1 70.34,55.92C70.46,56.1 70.58,56.27 70.7,56.43Z" fill-rule="evenodd" id="path_35"/><path fill="#FF8303" d="M75.48,82.24C75.07,79.71 74.65,78.8 75.48,77.23C76.31,75.67 76.87,77.82 79.1,77.23C79.37,77.98 79.64,78.76 79.83,79.53C80.29,81.3 80.14,89.69 80.47,96.59C80.47,96.59 78.67,92.99 78.53,89.37C78.39,85.75 75.9,84.78 75.48,82.24Z" fill-rule="evenodd" id="path_36"/><path fill="#FF8303" d="M75,86.62C76.17,90.2 77.06,99.86 77.06,99.86C77.06,99.86 70.78,85.2 70.52,82.24C70.52,82.24 73.83,83.04 75,86.62Z" fill-rule="evenodd" id="path_37"/><path fill="#ffffff" d="M44.41,25.02C44.41,24.32 43.41,24.12 42.76,24.12C42.1,24.12 41.85,25.13 42.35,27.51C42.86,29.88 44.86,30.57 44.86,30.57L44.41,25.02Z" fill-rule="evenodd" id="path_38"/><path fill="#ffffff" d="M60.59,25.02C60.59,24.32 61.59,24.12 62.24,24.12C62.9,24.12 63.15,25.13 62.65,27.51C62.14,29.88 60.14,30.57 60.14,30.57L60.59,25.02Z" fill-rule="evenodd" id="path_39"/><path fill="#000000" d="M28.96,54.6C28.96,59.94 29.39,59.45 29.39,60.37C32.09,59.82 33.86,57.48 37.11,52C40.36,46.51 43.12,47.38 43.12,46.08C43.12,45.1 41.22,44.67 40.57,43.68C34.76,43.68 28.96,49.26 28.96,54.6Z" fill-opacity="0" stroke-linejoin="round" stroke="#000000" stroke-width="0.9" fill-rule="evenodd" id="path_40"/><path fill="#000000" d="M49.92,49.53C49.56,48.82 44.41,46.08 43.12,46.08C43.12,47.38 40.36,46.51 37.11,52C35.91,54.03 34.9,55.63 33.98,56.87H33.98C35.44,57.69 34.97,58.34 36.32,59.51C37.66,60.68 42.14,62.47 44.9,62.47C47.66,62.47 51.49,60.81 51.49,60.81V56.62C51.49,52.06 50.48,50.64 49.92,49.53Z" fill-opacity="0" stroke-linejoin="round" stroke="#000000" stroke-width="0.9" fill-rule="evenodd" id="path_41"/><path fill="#000000" d="M45.96,70.15V66C45.96,64.56 46.53,63.5 47.6,63.5C48.66,63.5 50.82,62.59 51.07,62.59C51.31,62.59 51.81,62.68 51.81,63.19V68.77C51.81,69.58 50.85,69.64 49.52,69.64C48.74,69.64 47.08,70.34 46.74,70.69C46.39,71.04 45.96,70.56 45.96,70.15Z" fill-opacity="0" stroke-linejoin="round" stroke="#000000" stroke-width="0.9" fill-rule="evenodd" id="path_42"/><path fill="#000000" d="M51.81,72.42C51.81,71.81 51.52,71.31 50.78,71.31H48.9C48.17,71.31 46.08,72.59 46.08,73.74V76.41C46.08,76.95 46.33,77.23 46.98,77.23H49.84C50.21,77.23 51.81,76.49 51.81,75.47V72.42Z" fill-opacity="0" stroke-linejoin="round" stroke="#000000" stroke-width="0.9" fill-rule="evenodd" id="path_43"/><path fill="#000000" d="M45.91,82.83V79.78C45.91,79.25 46.19,78.51 46.98,78.51H50.29C50.78,78.51 51.76,79.13 51.76,79.81V82.83C51.76,83.29 51.55,84.09 51.03,84.09H47.6C47.04,84.09 45.91,83.57 45.91,82.83Z" fill-opacity="0" stroke-linejoin="round" stroke="#000000" stroke-width="0.9" fill-rule="evenodd" id="path_44"/><path fill="#000000" d="M50.87,85.57H47.47C46.82,85.57 46.08,86.1 46.08,86.72C46.08,87.34 49.11,100.89 51.48,100.89H51.76C51.89,97.69 51.76,87.27 51.76,86.72C51.76,86.06 51.64,85.57 50.87,85.57Z" fill-opacity="0" stroke-linejoin="round" stroke="#000000" stroke-width="0.9" fill-rule="evenodd" id="path_45"/><path fill="#000000" d="M59.04,70.15V66C59.04,64.56 58.47,63.5 57.4,63.5C56.34,63.5 54.18,62.59 53.93,62.59C53.69,62.59 53.2,62.68 53.2,63.19V68.77C53.2,69.58 54.16,69.64 55.48,69.64C56.26,69.64 57.92,70.34 58.26,70.69C58.61,71.04 59.04,70.56 59.04,70.15Z" fill-opacity="0" stroke-linejoin="round" stroke="#000000" stroke-width="0.9" fill-rule="evenodd" id="path_46"/><path fill="#000000" d="M53.2,72.42C53.2,71.81 53.48,71.31 54.22,71.31H56.1C56.83,71.31 58.92,72.59 58.92,73.74V76.41C58.92,76.95 58.67,77.23 58.02,77.23H55.16C54.79,77.23 53.2,76.49 53.2,75.47V72.42Z" fill-opacity="0" stroke-linejoin="round" stroke="#000000" stroke-width="0.9" fill-rule="evenodd" id="path_47"/><path fill="#000000" d="M59.09,82.83V79.78C59.09,79.25 58.82,78.51 58.02,78.51H54.71C54.22,78.51 53.24,79.13 53.24,79.81V82.83C53.24,83.29 53.45,84.09 53.97,84.09H57.41C57.96,84.09 59.09,83.57 59.09,82.83Z" fill-opacity="0" stroke-linejoin="round" stroke="#000000" stroke-width="0.9" fill-rule="evenodd" id="path_48"/><path fill="#000000" d="M54.14,85.57H57.53C58.18,85.57 58.92,86.1 58.92,86.72C58.92,87.34 55.89,100.89 53.52,100.89H53.24C53.11,97.69 53.24,87.27 53.24,86.72C53.24,86.06 53.36,85.57 54.14,85.57Z" fill-opacity="0" stroke-linejoin="round" stroke="#000000" stroke-width="0.9" fill-rule="evenodd" id="path_49"/><path fill="#000000" d="M35.05,55.34C34.92,55.54 34.79,55.73 34.67,55.91C34.79,55.73 34.92,55.54 35.05,55.34Z" fill-opacity="0" stroke-linejoin="round" stroke="#000000" stroke-width="0.9" fill-rule="evenodd" id="path_50"/><path fill="#000000" d="M33.98,56.87C34.06,56.76 34.15,56.64 34.23,56.53C32.56,58.85 31.18,60.01 29.39,60.37C29.39,61.8 27.43,64.01 27.43,72.82C27.43,74.61 31.67,76.9 33.62,72.82C34.88,70.17 35.36,69.07 35.65,68.42C35.8,67.89 35.95,67.58 36.07,67.58C36.5,66.84 36.32,59.51 36.32,59.51C34.97,58.34 35.44,57.69 33.98,56.87Z" fill-opacity="0" stroke-linejoin="round" stroke="#000000" stroke-width="0.9" fill-rule="evenodd" id="path_51"/><path fill="#000000" d="M34.3,56.43C34.42,56.27 34.54,56.1 34.66,55.92C34.54,56.1 34.42,56.27 34.3,56.43Z" fill-opacity="0" stroke-linejoin="round" stroke="#000000" stroke-width="0.9" fill-rule="evenodd" id="path_52"/><path fill="#000000" d="M52.5,13C46.95,13 44.18,17.93 44.18,20.51C44.18,23.08 45.14,33.7 45.14,33.7C45.14,33.7 49.08,39.06 52.5,39.06C55.91,39.06 59.86,33.7 59.86,33.7C59.86,33.7 60.82,23.08 60.82,20.51C60.82,17.93 58.05,13 52.5,13Z" fill-opacity="0" stroke-linejoin="round" stroke="#000000" stroke-width="0.9" fill-rule="evenodd" id="path_53"/><path fill="#000000" d="M60.55,90.38C60.55,85.82 61.74,86.19 61.74,83.76C61.74,78.71 60.55,74.4 60.55,72.14C60.55,69.88 60.76,62.47 60.76,62.47L60.66,62.45C60.47,62.46 60.28,62.47 60.1,62.47C57.34,62.47 53.51,60.81 53.51,60.81H52.5H51.49C51.49,60.81 47.66,62.47 44.9,62.47C44.72,62.47 44.53,62.46 44.34,62.45L44.24,62.47C44.24,62.47 44.45,69.88 44.45,72.14C44.45,74.4 43.26,78.71 43.26,83.76C43.26,86.19 44.45,85.82 44.45,90.38C44.45,91.98 43.22,93.11 41.63,93.11C41.63,96.78 50.21,103.68 52.5,103.68C54.79,103.68 63.37,96.78 63.37,93.11C61.78,93.11 60.55,91.98 60.55,90.38Z" fill-opacity="0" stroke-linejoin="round" stroke="#000000" stroke-width="0.9" fill-rule="evenodd" id="path_54"/><path fill="#000000" d="M63.37,93.11C64.43,90.34 66.72,87.6 66.72,87.6" fill-opacity="0" stroke-linejoin="round" stroke="#000000" stroke-width="0.9" id="path_55"/><path fill="#000000" d="M37.09,137.4C37.09,137.9 37.38,138.18 37.62,138.18C37.87,138.18 38.44,135.38 38.44,133.52C38.34,133.52 38.28,133.27 38.28,132.55C38.28,130 35.89,125.33 35.89,116.37C35.89,107.42 38.6,97.65 39.2,93.78L39.07,91.97C39.01,90.95 38.95,88.47 38.95,88.47L38.28,87.55C38.28,87.57 38.28,87.59 38.28,87.6C38.28,89.39 35.29,91.03 35.29,98.18C35.29,100.03 33.33,103.48 33.33,110.95C33.33,111.39 33.34,111.82 33.34,112.25C33.34,112.36 33.35,112.48 33.35,112.59C33.36,112.9 33.36,113.2 33.37,113.5C33.38,113.64 33.38,113.78 33.39,113.92C33.4,114.19 33.41,114.45 33.42,114.71C33.43,114.86 33.44,115.01 33.45,115.15C33.46,115.4 33.47,115.65 33.49,115.89C33.5,116.04 33.51,116.18 33.52,116.33C33.54,116.57 33.55,116.8 33.57,117.03C33.58,117.17 33.6,117.31 33.61,117.45C33.63,117.68 33.65,117.92 33.67,118.14C33.68,118.28 33.7,118.41 33.71,118.54C33.73,118.77 33.76,119 33.78,119.22C33.8,119.34 33.81,119.46 33.82,119.59C33.85,119.82 33.88,120.04 33.91,120.26C33.92,120.38 33.94,120.49 33.95,120.6C33.98,120.83 34.01,121.06 34.04,121.29C34.06,121.38 34.07,121.48 34.09,121.58C34.12,121.82 34.15,122.05 34.19,122.28C34.2,122.36 34.22,122.45 34.23,122.53C34.27,122.77 34.31,123.01 34.35,123.25C34.36,123.32 34.37,123.38 34.38,123.44C34.42,123.7 34.47,123.96 34.52,124.21C34.52,124.25 34.53,124.29 34.54,124.33C34.59,124.61 34.64,124.89 34.69,125.16C34.7,125.17 34.7,125.17 34.7,125.18C35.7,130.32 36.9,134.04 37.09,137.4L37.09,137.4Z" fill-opacity="0" stroke-linejoin="round" stroke="#000000" stroke-width="0.9" fill-rule="evenodd" id="path_56"/><path fill="#000000" d="M52.5,39.06C51.84,39.06 51.16,38.86 50.49,38.53H50.48C50.48,40.89 50.95,47.7 52.5,47.7C54.05,47.7 54.52,40.89 54.52,38.53H54.52C53.85,38.86 53.16,39.06 52.5,39.06Z" fill-opacity="0" stroke-linejoin="round" stroke="#000000" stroke-width="0.9" fill-rule="evenodd" id="path_57"/><path fill="#000000" d="M39.2,93.78C38.6,97.65 35.89,107.42 35.89,116.37C35.89,125.33 38.28,130 38.28,132.55C38.28,135.1 39.05,131.82 39.5,131.82C39.95,131.82 41.59,134.95 41.59,136.89C41.59,136.98 41.6,137.03 41.62,137.05C41.61,136.95 41.62,136.84 41.62,136.74C41.61,136.47 41.6,136.21 41.61,135.93C41.61,135.83 41.62,135.72 41.62,135.62C41.64,135.3 41.66,134.98 41.69,134.65C41.69,134.58 41.7,134.52 41.71,134.46C41.91,132.39 42.36,130.09 42.62,128.28C42.63,128.23 42.64,128.17 42.64,128.12C42.7,127.74 42.74,127.38 42.77,127.05C43.02,124.43 44.57,119.01 45.32,115.8C45.32,115.8 45.33,115.77 45.33,115.73C45.33,115.68 45.34,115.56 45.35,115.4C45.35,115.38 45.35,115.34 45.35,115.31C45.36,115.16 45.37,114.99 45.38,114.78C45.38,114.77 45.38,114.77 45.38,114.76C45.39,114.52 45.4,114.25 45.41,113.94C45.41,113.92 45.42,113.91 45.42,113.9C45.45,112.95 45.49,111.72 45.51,110.34C45.51,110.23 45.51,110.12 45.51,110.01C45.52,109.64 45.52,109.28 45.52,108.89C45.52,108.4 45.51,107.35 45.51,107.33C45.51,105 42.84,97.51 41.81,94.26C41.6,93.61 41.7,93.37 41.63,93.11C41.22,91.52 38.95,88.47 38.95,88.47L39.2,93.78Z" fill-opacity="0" stroke-linejoin="round" stroke="#000000" stroke-width="0.9" fill-rule="evenodd" id="path_58"/><path fill="#000000" d="M45.51,107.33C45.51,107.35 45.51,107.36 45.51,107.38C45.52,107.89 45.52,108.4 45.52,108.89C45.52,109.28 45.52,109.64 45.51,110.01C45.51,110.12 45.51,110.23 45.51,110.34C45.49,111.72 45.45,112.96 45.42,113.9C45.42,113.91 45.42,113.92 45.42,113.94C45.4,114.25 45.39,114.52 45.38,114.76C45.38,114.77 45.38,114.77 45.38,114.78C45.37,114.99 45.36,115.16 45.35,115.31C45.35,115.34 45.35,115.38 45.35,115.4C45.34,115.56 45.33,115.68 45.33,115.73C45.33,115.78 45.32,115.8 45.32,115.8C44.57,119.01 43.02,124.43 42.77,127.05C42.74,127.38 42.7,127.74 42.64,128.12C42.64,128.12 42.64,128.13 42.64,128.13C42.57,128.63 42.48,129.18 42.39,129.75C42.31,130.23 42.23,130.73 42.15,131.24C42.15,131.25 42.14,131.27 42.14,131.28C42.06,131.8 41.98,132.33 41.9,132.85C41.9,132.86 41.9,132.87 41.9,132.88C41.83,133.41 41.76,133.94 41.71,134.46C41.71,134.48 41.7,134.5 41.7,134.52C41.7,134.56 41.69,134.61 41.69,134.65C41.66,134.98 41.64,135.29 41.63,135.6C41.62,135.65 41.62,135.7 41.62,135.75C41.61,135.81 41.61,135.87 41.61,135.93C41.6,136.21 41.61,136.47 41.62,136.74V136.75C41.62,136.91 41.62,137.09 41.63,137.24C41.87,140.11 43.92,139.95 43.92,139.95C45.28,139.95 47.94,139.1 48.8,137.54C48.89,137.2 48.98,136.85 49.07,136.5C49.88,133.38 50.48,129.87 50.48,126.23C50.48,125.59 50.5,124.91 50.52,124.18C50.52,119.07 48.01,112.84 45.51,107.33Z" fill-opacity="0" stroke-linejoin="round" stroke="#000000" stroke-width="0.9" fill-rule="evenodd" id="path_59"/><path fill="#000000" d="M67.91,137.4C67.91,137.9 67.62,138.18 67.38,138.18C67.13,138.18 66.56,135.38 66.56,133.52C66.66,133.52 66.72,133.27 66.72,132.55C66.72,130 69.11,125.33 69.11,116.37C69.11,107.42 66.4,97.65 65.8,93.78L65.93,91.97C65.99,90.95 66.05,88.47 66.05,88.47L66.72,87.55C66.72,87.57 66.72,87.59 66.72,87.6C66.72,89.39 69.71,91.03 69.71,98.18C69.71,100.03 71.67,103.48 71.67,110.95C71.67,111.39 71.66,111.82 71.66,112.25C71.66,112.36 71.65,112.48 71.65,112.59C71.64,112.9 71.64,113.2 71.63,113.5C71.62,113.64 71.62,113.78 71.61,113.92C71.6,114.19 71.59,114.45 71.58,114.71C71.57,114.86 71.56,115.01 71.55,115.15C71.54,115.4 71.53,115.65 71.51,115.89C71.5,116.04 71.49,116.18 71.48,116.33C71.46,116.57 71.45,116.8 71.43,117.03C71.42,117.17 71.4,117.31 71.39,117.45C71.37,117.68 71.35,117.92 71.33,118.14C71.32,118.28 71.3,118.41 71.29,118.54C71.27,118.77 71.24,119 71.22,119.22C71.2,119.34 71.19,119.46 71.18,119.59C71.15,119.82 71.12,120.04 71.09,120.26C71.08,120.38 71.07,120.49 71.05,120.6C71.02,120.83 70.99,121.06 70.96,121.29C70.94,121.38 70.93,121.48 70.91,121.58C70.88,121.82 70.85,122.05 70.81,122.28C70.8,122.36 70.78,122.45 70.77,122.53C70.73,122.77 70.69,123.01 70.65,123.25C70.64,123.32 70.63,123.38 70.62,123.44C70.58,123.7 70.53,123.96 70.49,124.21C70.48,124.25 70.47,124.29 70.46,124.33C70.41,124.61 70.36,124.89 70.31,125.16C70.31,125.17 70.3,125.17 70.3,125.18C69.3,130.32 68.1,134.04 67.91,137.4L67.91,137.4Z" fill-opacity="0" stroke-linejoin="round" stroke="#000000" stroke-width="0.9" fill-rule="evenodd" id="path_60"/><path fill="#000000" d="M65.8,93.78C66.4,97.65 69.11,107.42 69.11,116.37C69.11,125.33 66.72,130 66.72,132.55C66.72,135.1 65.95,131.82 65.5,131.82C65.05,131.82 63.41,134.95 63.41,136.89C63.41,136.98 63.4,137.03 63.38,137.05C63.39,136.95 63.38,136.84 63.39,136.74C63.39,136.47 63.4,136.21 63.39,135.93C63.39,135.83 63.38,135.72 63.38,135.62C63.36,135.3 63.34,134.98 63.31,134.65C63.31,134.58 63.3,134.52 63.29,134.46C63.09,132.39 62.64,130.09 62.38,128.28C62.37,128.23 62.36,128.17 62.36,128.12C62.3,127.74 62.26,127.38 62.23,127.05C61.98,124.43 60.43,119.01 59.68,115.8C59.68,115.8 59.68,115.77 59.67,115.73C59.67,115.68 59.66,115.56 59.65,115.4C59.65,115.38 59.65,115.34 59.65,115.31C59.64,115.16 59.63,114.99 59.62,114.78C59.62,114.77 59.62,114.77 59.62,114.76C59.61,114.52 59.6,114.25 59.59,113.94C59.59,113.92 59.59,113.91 59.58,113.9C59.55,112.95 59.51,111.72 59.49,110.34C59.49,110.23 59.49,110.12 59.49,110.01C59.48,109.64 59.48,109.28 59.48,108.89C59.48,108.4 59.49,107.35 59.49,107.33C59.49,105 62.16,97.51 63.2,94.26C63.4,93.61 63.3,93.37 63.37,93.11C63.78,91.52 66.05,88.47 66.05,88.47L65.8,93.78Z" fill-opacity="0" stroke-linejoin="round" stroke="#000000" stroke-width="0.9" fill-rule="evenodd" id="path_61"/><path fill="#000000" d="M59.49,107.33C59.49,107.35 59.49,107.36 59.49,107.38C59.48,107.89 59.48,108.4 59.48,108.89C59.48,109.28 59.48,109.64 59.49,110.01C59.49,110.12 59.49,110.23 59.49,110.34C59.51,111.72 59.55,112.96 59.58,113.9C59.59,113.91 59.59,113.92 59.59,113.94C59.6,114.25 59.61,114.52 59.62,114.76C59.62,114.77 59.62,114.77 59.62,114.78C59.63,114.99 59.64,115.16 59.65,115.31C59.65,115.34 59.65,115.38 59.65,115.4C59.66,115.56 59.67,115.68 59.67,115.73C59.68,115.78 59.68,115.8 59.68,115.8C60.43,119.01 61.98,124.43 62.23,127.05C62.26,127.38 62.3,127.74 62.36,128.12C62.36,128.12 62.36,128.13 62.36,128.13C62.43,128.63 62.52,129.18 62.61,129.75C62.69,130.23 62.77,130.73 62.85,131.24C62.85,131.25 62.86,131.27 62.86,131.28C62.94,131.8 63.02,132.33 63.1,132.85C63.1,132.86 63.1,132.87 63.1,132.88C63.18,133.41 63.24,133.94 63.29,134.46C63.29,134.48 63.3,134.5 63.3,134.52C63.3,134.56 63.31,134.61 63.31,134.65C63.34,134.98 63.36,135.29 63.38,135.6C63.38,135.65 63.38,135.7 63.38,135.75C63.39,135.81 63.39,135.87 63.39,135.93C63.4,136.21 63.39,136.47 63.39,136.74V136.75C63.38,136.91 63.38,137.09 63.37,137.24C63.13,140.11 61.08,139.95 61.08,139.95C59.72,139.95 57.06,139.1 56.2,137.54C56.11,137.2 56.02,136.85 55.93,136.5C55.12,133.38 54.52,129.87 54.52,126.23C54.52,125.59 54.51,124.91 54.48,124.18C54.48,119.07 56.99,112.84 59.49,107.33Z" fill-opacity="0" stroke-linejoin="round" stroke="#000000" stroke-width="0.9" fill-rule="evenodd" id="path_62"/><path fill="#000000" d="M46.8,174.1C46.8,174.1 46.8,174.1 46.8,174.11C46.74,173.58 46.7,173.04 46.7,172.52C46.7,169.4 46.61,160.42 46.61,160.42C46.61,160.42 46.92,157.46 46.92,154.38C46.92,151.3 45.02,149.76 45.02,148.41C43.99,151.28 41.51,162.27 46.8,174.1Z" fill-opacity="0" stroke-linejoin="round" stroke="#000000" stroke-width="0.9" fill-rule="evenodd" id="path_63"/><path fill="#000000" d="M35.95,151.67C35.95,158.16 39.41,166.21 40.36,171.65C40.36,171.65 40.36,171.65 40.36,171.65C41.78,156.74 38.07,152.54 36.08,147.95C36,148.94 35.95,150.13 35.95,151.67Z" fill-opacity="0" stroke-linejoin="round" stroke="#000000" stroke-width="0.9" fill-rule="evenodd" id="path_64"/><path fill="#000000" d="M58.2,174.1C58.2,174.1 58.2,174.1 58.2,174.11C58.26,173.58 58.3,173.04 58.3,172.52C58.3,169.4 58.38,160.42 58.38,160.42C58.38,160.42 58.08,157.46 58.08,154.38C58.08,151.3 59.98,149.76 59.98,148.41C61.01,151.28 63.49,162.27 58.2,174.1Z" fill-opacity="0" stroke-linejoin="round" stroke="#000000" stroke-width="0.9" fill-rule="evenodd" id="path_65"/><path fill="#000000" d="M69.05,151.67C69.05,158.16 65.59,166.21 64.64,171.65C64.64,171.65 64.64,171.65 64.63,171.65C63.22,156.74 66.93,152.54 68.92,147.95C69,148.94 69.05,150.13 69.05,151.67Z" fill-opacity="0" stroke-linejoin="round" stroke="#000000" stroke-width="0.9" fill-rule="evenodd" id="path_66"/><path fill="#000000" d="M27.43,72.82C27.43,72.38 27.44,71.97 27.45,71.56C27.43,71.96 27.43,72.38 27.43,72.82Z" fill-opacity="0" stroke-linejoin="round" stroke="#000000" stroke-width="0.9" fill-rule="evenodd" id="path_67"/><path fill="#000000" d="M82.86,106.56C82.43,105.52 81.67,102.26 81.45,99.55C80.87,92.34 80.36,81.58 79.83,79.53C79.11,76.73 77.57,73.83 77.57,72.82C77.57,64.01 75.61,61.8 75.61,60.37C75.61,59.45 76.04,59.94 76.04,54.6C76.04,49.27 70.24,43.68 64.43,43.68L58.79,40.15V35.05H58.74C57.32,36.64 54.79,39.06 52.5,39.06C50.21,39.06 47.68,36.64 46.26,35.05H46.21V40.15L40.57,43.68C34.76,43.68 28.96,49.27 28.96,54.6C28.96,59.94 29.39,59.45 29.39,60.37C29.39,61.8 27.43,64.01 27.43,72.82C27.43,73.83 25.89,76.73 25.16,79.53C24.64,81.58 24.13,92.34 23.55,99.55C23.33,102.26 22.57,105.52 22.14,106.56C21.12,108.99 26.02,112.7 26.34,112.83C26.77,113 26.91,112.15 27.05,111.82C27.64,110.45 25.45,108.82 25.59,107.87C25.76,106.73 25.96,104.72 26.75,105.04C27.54,105.36 27.81,107.18 28.6,107.5C29.39,107.82 29.73,107.61 29.97,107.01C30.11,106.66 29.21,104.45 28.41,102.38C27.84,100.91 27.94,99.86 27.94,99.86C27.94,99.86 34.21,85.2 34.48,82.24C35.33,80.88 34.94,80.2 35.05,79.21C35.48,75.25 35.49,67.58 36.07,67.58C36.62,67.58 36.68,69.99 36.68,71.46C36.68,74.85 39.2,74.98 39.2,79.53C39.2,82.98 38.28,81.57 38.28,87.6C38.28,89.39 35.29,91.03 35.29,98.18C35.29,100.03 33.33,103.48 33.33,110.95C33.33,125.25 37.11,132.21 37.11,138.24C37.11,144.71 35.95,144.16 35.95,151.67C35.95,159.19 40.61,168.8 40.61,174.04C40.61,185.56 36.81,182.6 36.81,185.25C36.81,185.95 37.54,186.4 37.54,186.4L44.04,187.1H47.39L48.41,185.87C48.41,185.87 47.51,184.3 47.51,183.48C47.51,182.66 47.96,181.06 47.96,180.07C47.96,179.09 46.7,175.64 46.7,172.52C46.7,169.4 46.62,160.42 46.62,160.42C46.62,160.42 46.92,157.47 46.92,154.38C46.92,151.3 45.02,149.76 45.02,148.41C45.02,147.05 50.48,137.2 50.48,126.23C50.48,120.38 51.89,110.52 51.89,103.68H52.5H53.11C53.11,110.52 54.52,120.38 54.52,126.23C54.52,137.2 59.98,147.05 59.98,148.41C59.98,149.76 58.08,151.3 58.08,154.38C58.08,157.47 58.38,160.42 58.38,160.42C58.38,160.42 58.3,169.4 58.3,172.52C58.3,175.64 57.04,179.09 57.04,180.07C57.04,181.06 57.49,182.66 57.49,183.48C57.49,184.3 56.59,185.87 56.59,185.87L57.61,187.1H60.96L67.46,186.4C67.46,186.4 68.19,185.95 68.19,185.25C68.19,182.6 64.39,185.56 64.39,174.04C64.39,168.8 69.05,159.19 69.05,151.67C69.05,144.16 67.89,144.71 67.89,138.24C67.89,132.21 71.67,125.25 71.67,110.95C71.67,103.48 69.71,100.03 69.71,98.18C69.71,91.03 66.72,89.39 66.72,87.6C66.72,81.57 65.8,82.98 65.8,79.53C65.8,74.98 68.32,74.85 68.32,71.46C68.32,69.99 68.38,67.58 68.93,67.58C69.51,67.58 69.52,75.25 69.95,79.21C70.06,80.2 69.67,80.88 70.52,82.24C70.79,85.2 77.06,99.86 77.06,99.86C77.06,99.86 77.16,100.91 76.59,102.38C75.79,104.45 74.89,106.66 75.03,107.01C75.27,107.61 75.61,107.82 76.4,107.5C77.19,107.18 77.46,105.36 78.25,105.04C79.04,104.72 79.24,106.73 79.41,107.87C79.55,108.82 77.36,110.45 77.95,111.82C78.09,112.15 78.23,113 78.66,112.83C78.98,112.7 83.88,108.99 82.86,106.56Z" fill-opacity="0" stroke-linejoin="round" stroke="#000000" stroke-width="0.9" fill-rule="evenodd" id="path_68"/><path fill="#000000" d="M29.52,82.24C29.93,79.71 30.35,78.8 29.52,77.23C28.69,75.67 28.13,77.82 25.9,77.23C25.63,77.98 25.36,78.76 25.17,79.53C24.71,81.3 24.86,89.69 24.53,96.59H24.53C24.53,96.59 26.33,92.99 26.47,89.37C26.61,85.75 29.1,84.78 29.52,82.24Z" fill-opacity="0" stroke-linejoin="round" stroke="#000000" stroke-width="0.9" fill-rule="evenodd" id="path_69"/><path fill="#000000" d="M30,86.62C28.83,90.2 27.94,99.86 27.94,99.86C27.94,99.86 34.21,85.2 34.48,82.24C34.48,82.24 31.17,83.04 30,86.62Z" fill-opacity="0" stroke-linejoin="round" stroke="#000000" stroke-width="0.9" fill-rule="evenodd" id="path_70"/><path fill="#000000" d="M76.04,54.6C76.04,59.94 75.61,59.45 75.61,60.37C72.91,59.82 71.14,57.48 67.89,52C64.64,46.51 61.88,47.38 61.88,46.08C61.88,45.1 63.78,44.67 64.43,43.68C70.24,43.68 76.04,49.26 76.04,54.6Z" fill-opacity="0" stroke-linejoin="round" stroke="#000000" stroke-width="0.9" fill-rule="evenodd" id="path_71"/><path fill="#000000" d="M55.07,49.53C55.44,48.82 60.59,46.08 61.88,46.08C61.88,47.38 64.64,46.51 67.89,52C69.09,54.03 70.1,55.63 71.02,56.87C69.56,57.69 70.03,58.34 68.68,59.51C67.34,60.68 62.86,62.47 60.1,62.47C57.34,62.47 53.51,60.81 53.51,60.81V56.62C53.51,52.06 54.52,50.64 55.07,49.53Z" fill-opacity="0" stroke-linejoin="round" stroke="#000000" stroke-width="0.9" fill-rule="evenodd" id="path_72"/><path fill="#000000" d="M69.96,55.34C70.08,55.54 70.21,55.73 70.34,55.91C70.21,55.73 70.08,55.54 69.96,55.34Z" fill-opacity="0" stroke-linejoin="round" stroke="#000000" stroke-width="0.9" fill-rule="evenodd" id="path_73"/><path fill="#000000" d="M71.02,56.87C70.94,56.76 70.85,56.64 70.77,56.53C72.44,58.85 73.83,60.01 75.61,60.37C75.61,61.8 77.57,64.01 77.57,72.82C77.57,74.61 73.33,76.9 71.38,72.82C70.12,70.17 69.64,69.07 69.35,68.42C69.2,67.89 69.05,67.58 68.93,67.58C68.5,66.84 68.68,59.51 68.68,59.51C70.03,58.34 69.56,57.69 71.02,56.87Z" fill-opacity="0" stroke-linejoin="round" stroke="#000000" stroke-width="0.9" fill-rule="evenodd" id="path_74"/><path fill="#000000" d="M70.7,56.43C70.58,56.27 70.46,56.1 70.34,55.92C70.46,56.1 70.58,56.27 70.7,56.43Z" fill-opacity="0" stroke-linejoin="round" stroke="#000000" stroke-width="0.9" fill-rule="evenodd" id="path_75"/><path fill="#000000" d="M75.48,82.24C75.07,79.71 74.65,78.8 75.48,77.23C76.31,75.67 76.87,77.82 79.1,77.23C79.37,77.98 79.64,78.76 79.83,79.53C80.29,81.3 80.14,89.69 80.47,96.59H80.47C80.47,96.59 78.67,92.99 78.53,89.37C78.39,85.75 75.9,84.78 75.48,82.24Z" fill-opacity="0" stroke-linejoin="round" stroke="#000000" stroke-width="0.9" fill-rule="evenodd" id="path_76"/><path fill="#000000" d="M75,86.62C76.17,90.2 77.06,99.86 77.06,99.86C77.06,99.86 70.78,85.2 70.52,82.24C70.52,82.24 73.83,83.04 75,86.62Z" fill-opacity="0" stroke-linejoin="round" stroke="#000000" stroke-width="0.9" fill-rule="evenodd" id="path_77"/><path fill="#000000" d="M44.41,25.02C44.41,24.32 43.41,24.12 42.76,24.12C42.1,24.12 41.85,25.13 42.35,27.51C42.86,29.88 44.86,30.57 44.86,30.57L44.41,25.02Z" fill-opacity="0" stroke-linejoin="round" stroke="#000000" stroke-width="0.9" fill-rule="evenodd" id="path_78"/><path fill="#000000" d="M60.59,25.02C60.59,24.32 61.59,24.12 62.24,24.12C62.9,24.12 63.15,25.13 62.65,27.51C62.14,29.88 60.14,30.57 60.14,30.57L60.59,25.02Z" fill-opacity="0" stroke-linejoin="round" stroke="#000000" stroke-width="0.9" fill-rule="evenodd" id="path_79"/><path fill="#ffffff" d="M168.38,106.81C167.21,103.89 165.68,101.95 165.45,99.16C165.23,96.37 163.28,87.97 162.55,85.16C161.82,82.35 158.19,76.65 158.19,75.65C158.19,66.82 157.16,61.53 157.16,60.11C157.16,59.18 157.59,59.67 157.59,54.33C157.59,50.48 154.56,46.51 150.68,44.58C150.67,44.57 150.67,44.57 150.66,44.57C150.49,44.48 150.31,44.4 150.14,44.32C150.08,44.3 150.02,44.28 149.97,44.25C149.84,44.2 149.71,44.15 149.59,44.1C149.51,44.07 149.44,44.05 149.37,44.02C149.26,43.98 149.14,43.94 149.02,43.9C148.95,43.88 148.87,43.85 148.79,43.83C148.68,43.8 148.57,43.76 148.45,43.73C148.37,43.71 148.29,43.69 148.21,43.67C148.1,43.64 147.98,43.62 147.87,43.59C147.79,43.58 147.71,43.56 147.63,43.55C147.51,43.53 147.4,43.51 147.28,43.49C147.2,43.48 147.13,43.47 147.05,43.46C146.92,43.44 146.79,43.43 146.66,43.42C146.59,43.41 146.53,43.41 146.47,43.4C146.27,43.39 146.08,43.38 145.88,43.38L138.81,39.23L139.13,36.11C139.13,36.11 137.55,31.22 133.84,31.22C130.13,31.22 128.55,36.11 128.55,36.11L128.87,39.23L121.8,43.38C121.61,43.38 121.41,43.39 121.22,43.4C121.15,43.41 121.09,43.41 121.03,43.42C120.89,43.43 120.76,43.44 120.63,43.46C120.56,43.47 120.48,43.48 120.41,43.49C120.29,43.51 120.17,43.53 120.05,43.55C119.97,43.56 119.89,43.58 119.81,43.59C119.7,43.62 119.58,43.64 119.47,43.67C119.39,43.69 119.31,43.71 119.23,43.73C119.12,43.76 119,43.8 118.89,43.83C118.81,43.85 118.74,43.88 118.66,43.9C118.54,43.94 118.43,43.98 118.31,44.02C118.24,44.05 118.17,44.07 118.1,44.1C117.97,44.15 117.84,44.2 117.72,44.25C117.66,44.28 117.6,44.3 117.54,44.32C117.37,44.4 117.2,44.48 117.03,44.57C117.02,44.57 117.01,44.57 117,44.58H117C113.12,46.51 110.09,50.48 110.09,54.33C110.09,59.67 110.53,59.18 110.53,60.11C110.53,61.53 109.5,66.82 109.5,75.65C109.5,76.65 105.86,82.35 105.13,85.16C104.4,87.97 102.45,96.37 102.23,99.16C102,101.95 100.47,103.89 99.3,106.81C97.76,110.64 102.64,112.73 102.99,112.87C103.45,113.06 103.96,113.05 104.11,112.69C104.75,111.23 101.4,109.28 102,108.22C102.61,107.14 103.65,105.93 104.5,106.28C105.35,106.62 104.94,109.32 105.8,109.66C106.65,110 107.01,109.78 107.27,109.13C107.53,108.49 107.41,103.45 106.12,102.93C106.77,102.04 107.18,101.43 107.18,101.43C107.18,101.43 110.54,96.09 112.03,93.99C113.51,91.89 116.16,83.99 116.43,81.03C117.19,79.92 116.32,78.78 116.65,77.84C117.97,74.11 117.91,69.88 118.5,69.88C119.05,69.88 120.42,74.73 120.42,79.3C120.42,82.76 119.49,81.34 119.49,87.38C119.49,89.17 116.48,90.82 116.48,97.98C116.48,99.83 114.5,103.29 114.5,110.77C114.5,125.09 120.91,134.13 120.91,140.17C120.91,146.65 119.15,144.8 119.15,152.33C119.15,159.86 124.29,169.72 124.29,174.96C124.29,185.51 117.68,179.87 117.68,183.09C117.68,183.79 119.51,184.78 119.51,184.78L124.49,186.73L127.81,187.05C129.28,187.05 130.67,186.54 130.67,183.97C130.67,183.15 130.6,181.08 130.6,180.09C130.6,179.1 129.5,176.26 129.5,173.13C129.5,170.01 129.72,161.19 129.72,161.19C129.72,161.19 131.26,156.88 131.26,153.8C131.26,150.71 129.57,145.85 129.57,144.49C129.57,143.14 131.8,139.66 131.8,126.08C131.8,120.21 133.22,110.34 133.22,103.49H133.84H134.46C134.46,110.34 135.88,120.21 135.88,126.08C135.88,139.66 138.11,143.14 138.11,144.49C138.11,145.85 136.42,150.71 136.42,153.8C136.42,156.88 137.96,161.19 137.96,161.19C137.96,161.19 138.18,170.01 138.18,173.13C138.18,176.26 137.08,179.1 137.08,180.09C137.08,181.08 137.01,183.15 137.01,183.97C137.01,186.54 138.4,187.05 139.87,187.05L143.19,186.73L148.17,184.78C148.17,184.78 150,183.79 150,183.09C150,179.87 143.4,185.51 143.4,174.96C143.4,169.72 148.54,159.86 148.54,152.33C148.54,144.8 146.77,146.65 146.77,140.17C146.77,134.13 153.18,125.09 153.18,110.77C153.18,103.29 151.2,99.83 151.2,97.98C151.2,90.82 148.19,89.17 148.19,87.38C148.19,81.34 147.26,82.76 147.26,79.3C147.26,74.73 148.63,69.88 149.19,69.88C149.77,69.88 149.71,74.11 151.03,77.84C151.36,78.78 150.49,79.92 151.25,81.03C151.52,83.99 154.17,91.89 155.65,93.99C157.14,96.09 160.5,101.43 160.5,101.43C160.5,101.43 160.91,102.04 161.56,102.93C160.27,103.45 160.15,108.49 160.41,109.13C160.67,109.78 161.04,110 161.89,109.66C162.74,109.32 162.33,106.62 163.18,106.28C164.03,105.93 165.07,107.14 165.68,108.22C166.29,109.28 162.93,111.23 163.57,112.69C163.72,113.05 164.23,113.06 164.69,112.87C165.04,112.73 169.92,110.64 168.38,106.81Z" fill-rule="evenodd" id="path_80"/><path fill="#ffffff" d="M119.49,87.38C119.49,89.17 116.48,90.82 116.48,97.98C116.48,99.83 114.5,103.29 114.5,110.77C114.5,115.43 115.18,119.52 116.1,123.14C117.68,117.03 119.69,110.65 124.24,110.06C128.79,109.47 133.84,102.09 133.84,99.6C133.84,99.6 124.97,87.58 124.97,86.27C124.97,84.95 121.89,86.01 119.49,87.38Z" fill-rule="evenodd" id="path_81"/><path fill="#ffffff" d="M119.64,113.51C119.91,115.75 120.18,119.16 120.18,124.1C120.18,128.69 120.03,132.13 119.8,134.69C120.46,136.75 120.91,138.57 120.91,140.17C120.91,140.19 120.91,140.21 120.91,140.23C122.7,135.98 124.17,129.45 124.17,123.14C124.17,113.55 124.24,110.06 124.24,110.06C122.3,110.31 120.82,111.62 119.64,113.51Z" fill-rule="evenodd" id="path_82"/><path fill="#ffffff" d="M131.27,104.88C129.39,107.36 126.74,109.74 124.24,110.06C124.22,110.06 124.21,110.07 124.19,110.07C124.21,112.24 124.24,116.08 124.24,118.93C124.24,123.14 127.88,130.58 127.88,133.11C127.88,135.63 127.55,136.07 127.88,136.84C128.21,137.61 129.06,141.49 129.31,142.99C129.38,143.4 129.5,143.72 129.64,143.98C130.02,142.28 131.8,138.21 131.8,126.08C131.8,122.67 132.28,117.91 132.68,113.17C131.91,110.68 131.07,107.29 131.27,104.88Z" fill-rule="evenodd" id="path_83"/><path fill="#ffffff" d="M125.13,141.79C125.13,139.04 123.92,136.51 123.37,138.16C122.82,139.81 121.5,141.9 120.72,143.26C120.28,146.15 119.25,146.34 119.16,151.56C119.16,151.82 119.16,152.08 119.15,152.33C119.15,152.5 119.15,152.67 119.16,152.84C119.39,156.22 122.89,163.07 124.17,162.55C125.53,162.01 126.12,160.24 125.9,156.84C125.68,153.43 125.13,144.53 125.13,141.79Z" fill-rule="evenodd" id="path_84"/><path fill="#ffffff" d="M129.57,144.49C129.57,144.35 129.6,144.18 129.64,143.97C129.51,143.72 129.38,143.4 129.32,142.99C129.06,141.49 128.21,137.61 127.88,136.84C127.55,136.07 127.28,134.27 126.6,135.62C125.91,136.98 125.14,138.53 124.8,139.29C124.8,139.29 124.8,139.29 124.8,139.29C125,140.01 125.13,140.88 125.13,141.79C125.13,144.53 125.68,153.43 125.9,156.84C125.9,156.84 127.15,161.71 128.44,161.45C128.77,161.38 129.23,161.31 129.72,161.25C129.72,161.22 129.72,161.19 129.72,161.19C129.72,161.19 131.26,156.88 131.26,153.8C131.26,150.71 129.57,145.85 129.57,144.49Z" fill-rule="evenodd" id="path_85"/><path fill="#ffffff" d="M117,44.58C113.93,45.87 110.09,50.3 110.09,54.33C110.09,59.67 110.53,59.18 110.53,60.11C110.53,60.62 110.39,61.64 110.22,63.14C112.25,60.92 115.44,58.4 118.52,56.97C121.61,55.54 120.46,52.75 124.17,51.29C122.17,48.29 118.64,45.83 117,44.58Z" fill-rule="evenodd" id="path_86"/><path fill="#ffffff" d="M110.49,59.7C110.48,59.66 110.47,59.62 110.46,59.58C110.47,59.62 110.48,59.66 110.49,59.7Z" fill-rule="evenodd" id="path_87"/><path fill="#ffffff" d="M110.53,60.11C110.53,60.19 110.52,60.28 110.52,60.39C110.52,60.28 110.53,60.19 110.53,60.11Z" fill-rule="evenodd" id="path_88"/><path fill="#ffffff" d="M110.49,59.7C110.5,59.74 110.5,59.78 110.51,59.82C110.5,59.78 110.5,59.74 110.49,59.7Z" fill-rule="evenodd" id="path_89"/><path fill="#ffffff" d="M110.52,59.96C110.52,60 110.53,60.05 110.53,60.11C110.53,60.05 110.52,60 110.52,59.96Z" fill-rule="evenodd" id="path_90"/><path fill="#ffffff" d="M110.51,59.83C110.51,59.87 110.52,59.91 110.52,59.95C110.52,59.91 110.51,59.87 110.51,59.83Z" fill-rule="evenodd" id="path_91"/><path fill="#ffffff" d="M110.22,63.14C109.92,65.81 109.5,70 109.5,75.65C109.5,75.8 109.4,76.08 109.25,76.44C110.44,78.08 111.95,79.71 113.24,79.71C114.37,79.71 115.61,78.85 116.62,77.96C116.63,77.92 116.64,77.88 116.65,77.84C117.97,74.11 117.91,69.88 118.5,69.88C118.6,69.88 118.73,70.05 118.88,70.35C119.04,67.46 118.79,61.75 117.13,57.68C114.51,59.15 111.94,61.26 110.22,63.14Z" fill-rule="evenodd" id="path_92"/><path fill="#ffffff" d="M110.22,63.13C110.3,62.43 110.37,61.84 110.43,61.35C110.37,61.83 110.3,62.43 110.22,63.13Z" fill-rule="evenodd" id="path_93"/><path fill="#ffffff" d="M110.49,60.77C110.5,60.67 110.5,60.57 110.51,60.49C110.5,60.57 110.5,60.67 110.49,60.77Z" fill-rule="evenodd" id="path_94"/><path fill="#ffffff" d="M110.48,60.86C110.46,61 110.45,61.14 110.43,61.31C110.45,61.15 110.46,61 110.48,60.86Z" fill-rule="evenodd" id="path_95"/><path fill="#FF8303" d="M103.81,99.02C103.34,97.98 103.68,91.09 104.15,89.15C104.62,87.2 107.8,82.02 109.25,81.25C110.71,80.48 111.37,87.73 110.71,89.71C110.04,91.69 107.18,101.43 107.18,101.43C107.18,101.43 104.27,100.07 103.81,99.02Z" fill-rule="evenodd" id="path_96"/><path fill="#FF8303" d="M163.87,99.02C164.34,97.98 164,91.09 163.53,89.15C163.06,87.2 159.88,82.02 158.43,81.25C156.98,80.48 156.32,87.73 156.98,89.71C157.64,91.69 160.5,101.43 160.5,101.43C160.5,101.43 163.41,100.07 163.87,99.02Z" fill-rule="evenodd" id="path_97"/><path fill="#4a4493" d="M110.71,89.71C110.24,91.22 109.31,94.29 108.45,97.15C107.76,99.48 107.18,101.43 107.18,101.43C107.18,101.43 110.54,96.09 112.03,93.99C113.51,91.89 116.16,83.99 116.43,81.03C115.11,82.57 111.72,86.43 110.71,89.71Z" fill-opacity="0.5" fill-rule="evenodd" id="path_98"/><path fill="#ffffff" d="M126.34,56.42C125.78,53.93 125.04,52.71 124.17,51.29C120.78,52.44 121.61,55.54 118.53,56.97C118.06,57.18 117.6,57.43 117.13,57.68C118.96,59.5 120.4,60.78 121.94,61.35C123.48,61.91 126.23,61.79 127.72,61.08C127.15,59.45 126.66,57.85 126.34,56.42Z" fill-rule="evenodd" id="path_99"/><path fill="#ffffff" d="M127.72,61.08C126.23,61.79 123.48,61.91 121.94,61.35C120.4,60.78 118.96,59.5 117.13,57.68C118.79,61.75 119.04,67.46 118.88,70.35C118.86,70.32 120.05,74 120.31,76.99C121.94,79.13 124.24,82.9 124.24,82.9C129.16,76.83 131.07,74.55 132.62,72.05C131.05,69.07 129.31,65.62 127.72,61.08Z" fill-rule="evenodd" id="path_100"/><path fill="#ffffff" d="M131.27,104.88C131.26,104.89 131.26,104.9 131.25,104.91C131.2,104.97 131.14,105.04 131.09,105.11C131,105.22 130.91,105.34 130.82,105.45C130.76,105.52 130.71,105.59 130.65,105.66C130.55,105.78 130.45,105.9 130.34,106.02C130.29,106.07 130.25,106.13 130.2,106.18C129.88,106.54 129.55,106.88 129.21,107.21C129.19,107.24 129.16,107.26 129.13,107.29C128.98,107.43 128.83,107.57 128.67,107.71C128.65,107.73 128.62,107.76 128.59,107.78C128.23,108.1 127.85,108.4 127.47,108.67C127.85,111.51 128.69,114.95 129.53,115.97C130.21,116.78 131.19,112.83 131.73,109.54C131.38,107.9 131.16,106.24 131.27,104.88Z" fill-rule="evenodd" id="path_101"/><path fill="#ffffff" d="M148.19,87.38C148.19,89.17 151.2,90.82 151.2,97.98C151.2,99.83 153.18,103.29 153.18,110.77C153.18,115.43 152.5,119.52 151.59,123.14C150,117.03 147.99,110.65 143.44,110.06C138.89,109.47 133.84,102.09 133.84,99.6C133.84,99.6 142.71,87.58 142.71,86.27C142.71,84.95 145.79,86.01 148.19,87.38Z" fill-rule="evenodd" id="path_102"/><path fill="#ffffff" d="M148.05,113.51C147.77,115.75 147.51,119.16 147.51,124.1C147.51,128.69 147.65,132.13 147.89,134.69C147.23,136.75 146.77,138.57 146.77,140.17C146.77,140.19 146.77,140.21 146.77,140.23C144.98,135.98 143.51,129.45 143.51,123.14C143.51,113.55 143.44,110.06 143.44,110.06C145.38,110.31 146.86,111.62 148.05,113.51Z" fill-rule="evenodd" id="path_103"/><path fill="#ffffff" d="M136.41,104.88C138.29,107.36 140.94,109.74 143.44,110.06C143.46,110.06 143.48,110.07 143.49,110.07C143.47,112.24 143.44,116.08 143.44,118.93C143.44,123.14 139.8,130.58 139.8,133.11C139.8,135.63 140.13,136.07 139.8,136.84C139.47,137.61 138.63,141.49 138.37,142.99C138.3,143.4 138.18,143.72 138.04,143.98C137.66,142.28 135.88,138.21 135.88,126.08C135.88,122.67 135.4,117.91 135,113.17C135.77,110.68 136.61,107.29 136.41,104.88Z" fill-rule="evenodd" id="path_104"/><path fill="#ffffff" d="M142.55,141.79C142.55,139.04 143.76,136.51 144.31,138.16C144.86,139.81 146.19,141.9 146.96,143.26C147.4,146.15 148.43,146.34 148.53,151.56C148.52,151.82 148.52,152.08 148.53,152.33C148.53,152.5 148.53,152.67 148.52,152.84C148.3,156.22 144.8,163.07 143.51,162.55C142.15,162.01 141.56,160.24 141.78,156.84C142,153.43 142.55,144.53 142.55,141.79Z" fill-rule="evenodd" id="path_105"/><path fill="#ffffff" d="M138.11,144.49C138.11,144.35 138.09,144.18 138.04,143.97C138.18,143.72 138.3,143.4 138.37,142.99C138.63,141.49 139.47,137.61 139.8,136.84C140.13,136.07 140.4,134.27 141.09,135.62C141.77,136.98 142.55,138.53 142.88,139.29C142.88,139.29 142.88,139.29 142.88,139.29C142.68,140.01 142.55,140.88 142.55,141.79C142.55,144.53 142,153.43 141.78,156.84C141.78,156.84 140.53,161.71 139.25,161.45C138.91,161.38 138.45,161.31 137.97,161.25C137.97,161.22 137.96,161.19 137.96,161.19C137.96,161.19 136.42,156.88 136.42,153.8C136.42,150.71 138.11,145.85 138.11,144.49Z" fill-rule="evenodd" id="path_106"/><path fill="#ffffff" d="M150.68,44.58C153.76,45.87 157.59,50.3 157.59,54.33C157.59,59.67 157.16,59.18 157.16,60.11C157.16,60.62 157.29,61.64 157.46,63.14C155.43,60.92 152.24,58.4 149.16,56.97C146.08,55.54 147.22,52.75 143.51,51.29C145.51,48.29 149.04,45.83 150.68,44.58Z" fill-rule="evenodd" id="path_107"/><path fill="#ffffff" d="M157.2,59.7C157.2,59.66 157.21,59.62 157.22,59.58C157.21,59.62 157.2,59.66 157.2,59.7Z" fill-rule="evenodd" id="path_108"/><path fill="#ffffff" d="M157.16,60.11C157.16,60.19 157.16,60.28 157.17,60.39C157.16,60.28 157.16,60.19 157.16,60.11Z" fill-rule="evenodd" id="path_109"/><path fill="#ffffff" d="M157.19,59.7C157.19,59.74 157.18,59.78 157.17,59.82C157.18,59.78 157.19,59.74 157.19,59.7Z" fill-rule="evenodd" id="path_110"/><path fill="#ffffff" d="M157.16,59.96C157.16,60 157.16,60.05 157.16,60.11C157.16,60.05 157.16,60 157.16,59.96Z" fill-rule="evenodd" id="path_111"/><path fill="#ffffff" d="M157.17,59.83C157.17,59.87 157.16,59.91 157.16,59.95C157.16,59.91 157.17,59.87 157.17,59.83Z" fill-rule="evenodd" id="path_112"/><path fill="#ffffff" d="M157.46,63.14C157.76,65.81 158.19,70 158.19,75.65C158.19,75.8 158.28,76.08 158.43,76.44C157.24,78.08 155.74,79.71 154.44,79.71C153.31,79.71 152.07,78.85 151.06,77.96C151.05,77.92 151.04,77.88 151.03,77.84C149.71,74.11 149.77,69.88 149.19,69.88C149.08,69.88 148.95,70.05 148.8,70.35C148.64,67.46 148.89,61.75 150.55,57.68C153.17,59.15 155.74,61.26 157.46,63.14Z" fill-rule="evenodd" id="path_113"/><path fill="#ffffff" d="M157.46,63.13C157.38,62.43 157.31,61.84 157.26,61.35C157.31,61.83 157.38,62.43 157.46,63.13Z" fill-rule="evenodd" id="path_114"/><path fill="#ffffff" d="M157.2,60.77C157.19,60.67 157.18,60.57 157.17,60.49C157.18,60.57 157.19,60.67 157.2,60.77Z" fill-rule="evenodd" id="path_115"/><path fill="#ffffff" d="M157.21,60.86C157.22,61 157.23,61.14 157.25,61.31C157.23,61.15 157.22,61 157.21,60.86Z" fill-rule="evenodd" id="path_116"/><path fill="#4a4493" d="M156.98,89.71C157.44,91.22 158.37,94.29 159.23,97.15C159.93,99.48 160.5,101.43 160.5,101.43C160.5,101.43 157.14,96.09 155.65,93.99C154.17,91.89 151.52,83.99 151.25,81.03C152.57,82.57 155.96,86.43 156.98,89.71Z" fill-opacity="0.5" fill-rule="evenodd" id="path_117"/><path fill="#ffffff" d="M141.34,56.42C141.9,53.93 142.64,52.71 143.51,51.29C146.9,52.44 146.08,55.54 149.16,56.97C149.62,57.18 150.09,57.43 150.55,57.68C148.72,59.5 147.28,60.78 145.74,61.35C144.2,61.91 141.45,61.79 139.96,61.08C140.54,59.45 141.02,57.85 141.34,56.42Z" fill-rule="evenodd" id="path_118"/><path fill="#ffffff" d="M143.44,82.9C141.89,80.92 134.85,72.44 135.07,72.06C135.07,72.06 135.07,72.05 135.07,72.05C134.56,72.92 134.13,73.53 133.84,73.78C133.55,73.53 133.12,72.92 132.62,72.05C132.62,72.05 132.62,72.06 132.62,72.06C132.84,72.44 125.79,80.92 124.24,82.9C124.24,82.9 125.13,84.65 124.97,86.27C124.97,87.58 133.84,99.6 133.84,99.6C133.84,99.6 142.71,87.58 142.71,86.27C142.55,84.65 143.44,82.9 143.44,82.9Z" fill-rule="evenodd" id="path_119"/><path fill="#ffffff" d="M139.97,61.08C141.45,61.79 144.21,61.91 145.74,61.35C147.28,60.78 148.72,59.5 150.55,57.68C148.89,61.75 148.64,67.46 148.8,70.35C148.82,70.32 147.63,74 147.37,76.99C145.74,79.13 143.44,82.9 143.44,82.9C138.52,76.83 136.61,74.55 135.07,72.05C136.63,69.07 138.37,65.62 139.97,61.08Z" fill-rule="evenodd" id="path_120"/><path fill="#ffffff" d="M136.41,104.88C136.42,104.89 136.43,104.9 136.43,104.91C136.49,104.97 136.54,105.04 136.59,105.11C136.68,105.22 136.77,105.34 136.86,105.45C136.92,105.52 136.98,105.59 137.03,105.66C137.13,105.78 137.24,105.9 137.34,106.02C137.39,106.07 137.43,106.13 137.48,106.18C137.8,106.54 138.13,106.88 138.47,107.21C138.5,107.24 138.52,107.26 138.55,107.29C138.7,107.43 138.86,107.57 139.01,107.71C139.04,107.73 139.06,107.76 139.09,107.78C139.46,108.1 139.83,108.4 140.21,108.67C139.83,111.51 138.99,114.95 138.15,115.97C137.48,116.78 136.49,112.83 135.96,109.54C136.3,107.9 136.52,106.24 136.41,104.88Z" fill-rule="evenodd" id="path_121"/><path fill="#ffffff" d="M145.88,43.38L138.81,39.23L139.13,36.11C139.13,36.11 137.55,31.22 133.84,31.22C130.13,31.22 128.55,36.11 128.55,36.11L128.87,39.23L121.8,43.38C120.16,43.38 118.51,43.82 117,44.58C120.51,47.3 124.91,50.05 126.34,56.42C127.77,62.79 132.42,72.57 133.84,73.78C135.26,72.57 139.91,62.79 141.34,56.42C142.77,50.05 147.18,47.3 150.68,44.58C149.17,43.82 147.52,43.38 145.88,43.38Z" fill-rule="evenodd" id="path_122"/><path fill="#ffffff" d="M143.61,24.16C143.02,24.16 142.14,24.33 141.98,24.88C142.12,23.02 142.21,21.37 142.21,20.55C142.21,17.98 139.42,13.05 133.84,13.05C128.26,13.05 125.47,17.98 125.47,20.55C125.47,21.37 125.57,23.02 125.7,24.88C125.54,24.33 124.67,24.16 124.07,24.16C123.41,24.16 123.16,25.17 123.67,27.54C124.14,29.75 125.93,30.5 126.16,30.59C126.32,32.41 126.43,33.72 126.43,33.72C126.43,33.72 127.29,34.88 128.55,36.11V36.11C128.55,36.11 130.13,31.22 133.84,31.22C137.55,31.22 139.13,36.11 139.13,36.11V36.11C140.39,34.88 141.25,33.72 141.25,33.72C141.25,33.72 141.37,32.41 141.52,30.59C141.76,30.5 143.54,29.75 144.02,27.54C144.52,25.17 144.27,24.16 143.61,24.16Z" fill-rule="evenodd" id="path_123"/><path fill="#000000" d="M119.49,87.38C119.49,89.17 116.48,90.82 116.48,97.98C116.48,99.83 114.5,103.29 114.5,110.77C114.5,115.43 115.18,119.52 116.1,123.14C117.68,117.03 119.69,110.65 124.24,110.06C128.79,109.47 133.84,102.09 133.84,99.6C133.84,99.6 124.97,87.58 124.97,86.27C124.97,84.95 121.89,86.01 119.49,87.38Z" fill-opacity="0" stroke-linejoin="round" stroke="#000000" stroke-width="0.9" fill-rule="evenodd" id="path_124"/><path fill="#000000" d="M119.64,113.51C119.91,115.75 120.18,119.16 120.18,124.1C120.18,128.69 120.03,132.13 119.8,134.69C120.46,136.75 120.91,138.57 120.91,140.17C120.91,140.19 120.91,140.21 120.91,140.23C122.7,135.98 124.17,129.45 124.17,123.14C124.17,113.55 124.24,110.06 124.24,110.06C122.3,110.31 120.82,111.62 119.64,113.51Z" fill-opacity="0" stroke-linejoin="round" stroke="#000000" stroke-width="0.9" fill-rule="evenodd" id="path_125"/><path fill="#000000" d="M131.27,104.88C129.39,107.36 126.74,109.74 124.24,110.06C124.22,110.06 124.21,110.07 124.19,110.07C124.21,112.24 124.24,116.08 124.24,118.93C124.24,123.14 127.88,130.58 127.88,133.11C127.88,135.63 127.55,136.07 127.88,136.84C128.21,137.61 129.06,141.49 129.31,142.99C129.38,143.4 129.5,143.72 129.64,143.98C130.02,142.28 131.8,138.21 131.8,126.08C131.8,122.67 132.28,117.91 132.68,113.17C131.91,110.68 131.07,107.29 131.27,104.88Z" fill-opacity="0" stroke-linejoin="round" stroke="#000000" stroke-width="0.9" fill-rule="evenodd" id="path_126"/><path fill="#000000" d="M125.13,141.79C125.13,139.04 123.92,136.51 123.37,138.16C122.82,139.81 121.5,141.9 120.72,143.26C120.28,146.15 119.25,146.34 119.16,151.56C119.16,151.82 119.16,152.08 119.15,152.33C119.15,152.5 119.15,152.67 119.16,152.84C119.39,156.22 122.89,163.07 124.17,162.55C125.53,162.01 126.12,160.24 125.9,156.84C125.68,153.43 125.13,144.53 125.13,141.79Z" fill-opacity="0" stroke-linejoin="round" stroke="#000000" stroke-width="0.9" fill-rule="evenodd" id="path_127"/><path fill="#000000" d="M129.57,144.49C129.57,144.35 129.6,144.18 129.64,143.97C129.51,143.72 129.38,143.4 129.32,142.99C129.06,141.49 128.21,137.61 127.88,136.84C127.55,136.07 127.28,134.27 126.6,135.62C125.91,136.98 125.14,138.53 124.8,139.29C124.8,139.29 124.8,139.29 124.8,139.29C125,140.01 125.13,140.88 125.13,141.79C125.13,144.53 125.68,153.43 125.9,156.84C125.9,156.84 127.15,161.71 128.44,161.45C128.77,161.38 129.23,161.31 129.72,161.25C129.72,161.22 129.72,161.19 129.72,161.19C129.72,161.19 131.26,156.88 131.26,153.8C131.26,150.71 129.57,145.85 129.57,144.49Z" fill-opacity="0" stroke-linejoin="round" stroke="#000000" stroke-width="0.9" fill-rule="evenodd" id="path_128"/><path fill="#000000" d="M117,44.58C113.93,45.87 110.09,50.3 110.09,54.33C110.09,59.67 110.53,59.18 110.53,60.11C110.53,60.62 110.39,61.64 110.22,63.14C112.25,60.92 115.44,58.4 118.52,56.97C121.61,55.54 120.46,52.75 124.17,51.29C122.17,48.29 118.64,45.83 117,44.58Z" fill-opacity="0" stroke-linejoin="round" stroke="#000000" stroke-width="0.9" fill-rule="evenodd" id="path_129"/><path fill="#000000" d="M110.49,59.7C110.48,59.66 110.47,59.62 110.46,59.58C110.47,59.62 110.48,59.66 110.49,59.7Z" fill-opacity="0" stroke-linejoin="round" stroke="#000000" stroke-width="0.9" fill-rule="evenodd" id="path_130"/><path fill="#000000" d="M110.53,60.11C110.53,60.19 110.52,60.28 110.52,60.39C110.52,60.28 110.53,60.19 110.53,60.11Z" fill-opacity="0" stroke-linejoin="round" stroke="#000000" stroke-width="0.9" fill-rule="evenodd" id="path_131"/><path fill="#000000" d="M110.49,59.7C110.5,59.74 110.5,59.78 110.51,59.82C110.5,59.78 110.5,59.74 110.49,59.7Z" fill-opacity="0" stroke-linejoin="round" stroke="#000000" stroke-width="0.9" fill-rule="evenodd" id="path_132"/><path fill="#000000" d="M110.52,59.96C110.52,60 110.53,60.05 110.53,60.11C110.53,60.05 110.52,60 110.52,59.96Z" fill-opacity="0" stroke-linejoin="round" stroke="#000000" stroke-width="0.9" fill-rule="evenodd" id="path_133"/><path fill="#000000" d="M110.51,59.83C110.51,59.87 110.52,59.91 110.52,59.95C110.52,59.91 110.51,59.87 110.51,59.83Z" fill-opacity="0" stroke-linejoin="round" stroke="#000000" stroke-width="0.9" fill-rule="evenodd" id="path_134"/><path fill="#000000" d="M110.22,63.14C109.92,65.81 109.5,70 109.5,75.65C109.5,75.8 109.4,76.08 109.25,76.44C110.44,78.08 111.95,79.71 113.24,79.71C114.37,79.71 115.61,78.85 116.62,77.96C116.63,77.92 116.64,77.88 116.65,77.84C117.97,74.11 117.91,69.88 118.5,69.88C118.6,69.88 118.73,70.05 118.88,70.35C119.04,67.46 118.79,61.75 117.13,57.68C114.51,59.15 111.94,61.26 110.22,63.14Z" fill-opacity="0" stroke-linejoin="round" stroke="#000000" stroke-width="0.9" fill-rule="evenodd" id="path_135"/><path fill="#000000" d="M110.22,63.13C110.3,62.43 110.37,61.84 110.43,61.35C110.37,61.83 110.3,62.43 110.22,63.13Z" fill-opacity="0" stroke-linejoin="round" stroke="#000000" stroke-width="0.9" fill-rule="evenodd" id="path_136"/><path fill="#000000" d="M110.49,60.77C110.5,60.67 110.5,60.57 110.51,60.48C110.5,60.57 110.5,60.67 110.49,60.77Z" fill-opacity="0" stroke-linejoin="round" stroke="#000000" stroke-width="0.9" fill-rule="evenodd" id="path_137"/><path fill="#000000" d="M110.48,60.86C110.46,61 110.45,61.14 110.43,61.31C110.45,61.15 110.46,61 110.48,60.86Z" fill-opacity="0" stroke-linejoin="round" stroke="#000000" stroke-width="0.9" fill-rule="evenodd" id="path_138"/><path fill="#000000" d="M103.81,99.02C103.34,97.98 103.68,91.09 104.15,89.15C104.62,87.2 107.8,82.02 109.25,81.25C110.71,80.48 111.37,87.73 110.71,89.71C110.04,91.69 107.18,101.43 107.18,101.43C107.18,101.43 104.27,100.07 103.81,99.02Z" fill-opacity="0" stroke-linejoin="round" stroke="#000000" stroke-width="0.9" fill-rule="evenodd" id="path_139"/><path fill="#000000" d="M163.87,99.02C164.34,97.98 164,91.09 163.53,89.15C163.06,87.2 159.88,82.02 158.43,81.25C156.98,80.48 156.32,87.73 156.98,89.71C157.64,91.69 160.5,101.43 160.5,101.43C160.5,101.43 163.41,100.07 163.87,99.02Z" fill-opacity="0" stroke-linejoin="round" stroke="#000000" stroke-width="0.9" fill-rule="evenodd" id="path_140"/><path fill="#000000" d="M110.71,89.71C110.24,91.22 109.31,94.29 108.45,97.15C107.76,99.48 107.18,101.43 107.18,101.43C107.18,101.43 110.54,96.09 112.03,93.99C113.51,91.89 116.16,83.99 116.43,81.03C115.11,82.57 111.72,86.43 110.71,89.71Z" fill-opacity="0" stroke-linejoin="round" stroke="#000000" stroke-width="0.9" fill-rule="evenodd" id="path_141"/><path fill="#000000" d="M126.34,56.42C125.78,53.93 125.04,52.71 124.17,51.29C120.78,52.44 121.61,55.54 118.53,56.97C118.06,57.18 117.6,57.43 117.13,57.68C118.96,59.5 120.4,60.78 121.94,61.35C123.48,61.91 126.23,61.79 127.72,61.08C127.15,59.45 126.66,57.85 126.34,56.42Z" fill-opacity="0" stroke-linejoin="round" stroke="#000000" stroke-width="0.9" fill-rule="evenodd" id="path_142"/><path fill="#000000" d="M127.72,61.08C126.23,61.79 123.48,61.91 121.94,61.35C120.4,60.78 118.96,59.5 117.13,57.68C118.79,61.75 119.04,67.46 118.88,70.35C118.86,70.32 120.05,74 120.31,76.99C121.94,79.13 124.24,82.9 124.24,82.9C129.16,76.83 131.07,74.55 132.62,72.05C131.05,69.07 129.31,65.62 127.72,61.08Z" fill-opacity="0" stroke-linejoin="round" stroke="#000000" stroke-width="0.9" fill-rule="evenodd" id="path_143"/><path fill="#000000" d="M131.27,104.88C131.26,104.89 131.26,104.9 131.25,104.91C131.2,104.97 131.14,105.04 131.09,105.11C131,105.22 130.91,105.34 130.82,105.45C130.76,105.52 130.71,105.59 130.65,105.66C130.55,105.78 130.45,105.9 130.34,106.02C130.29,106.07 130.25,106.13 130.2,106.18C129.88,106.54 129.55,106.88 129.21,107.21C129.19,107.24 129.16,107.26 129.13,107.29C128.98,107.43 128.83,107.57 128.67,107.71C128.65,107.73 128.62,107.76 128.59,107.78C128.23,108.1 127.85,108.4 127.47,108.67C127.85,111.51 128.69,114.95 129.53,115.97C130.21,116.78 131.19,112.83 131.73,109.54C131.38,107.9 131.16,106.24 131.27,104.88Z" fill-opacity="0" stroke-linejoin="round" stroke="#000000" stroke-width="0.9" fill-rule="evenodd" id="path_144"/><path fill="#000000" d="M148.19,87.38C148.19,89.17 151.2,90.82 151.2,97.98C151.2,99.83 153.18,103.29 153.18,110.77C153.18,115.43 152.5,119.52 151.59,123.14C150,117.03 147.99,110.65 143.44,110.06C138.89,109.47 133.84,102.09 133.84,99.6C133.84,99.6 142.71,87.58 142.71,86.27C142.71,84.95 145.79,86.01 148.19,87.38Z" fill-opacity="0" stroke-linejoin="round" stroke="#000000" stroke-width="0.9" fill-rule="evenodd" id="path_145"/><path fill="#000000" d="M148.05,113.51C147.77,115.75 147.51,119.16 147.51,124.1C147.51,128.69 147.65,132.13 147.89,134.69C147.23,136.75 146.77,138.57 146.77,140.17C146.77,140.19 146.77,140.21 146.77,140.23C144.98,135.98 143.51,129.45 143.51,123.14C143.51,113.55 143.44,110.06 143.44,110.06C145.38,110.31 146.86,111.62 148.05,113.51Z" fill-opacity="0" stroke-linejoin="round" stroke="#000000" stroke-width="0.9" fill-rule="evenodd" id="path_146"/><path fill="#000000" d="M136.41,104.88C138.29,107.36 140.94,109.74 143.44,110.06C143.46,110.06 143.48,110.07 143.49,110.07C143.47,112.24 143.44,116.08 143.44,118.93C143.44,123.14 139.8,130.58 139.8,133.11C139.8,135.63 140.13,136.07 139.8,136.84C139.47,137.61 138.63,141.49 138.37,142.99C138.3,143.4 138.18,143.72 138.04,143.98C137.66,142.28 135.88,138.21 135.88,126.08C135.88,122.67 135.4,117.91 135,113.17C135.77,110.68 136.61,107.29 136.41,104.88Z" fill-opacity="0" stroke-linejoin="round" stroke="#000000" stroke-width="0.9" fill-rule="evenodd" id="path_147"/><path fill="#000000" d="M142.55,141.79C142.55,139.04 143.76,136.51 144.31,138.16C144.86,139.81 146.19,141.9 146.96,143.26C147.4,146.15 148.43,146.34 148.53,151.56C148.52,151.82 148.52,152.08 148.53,152.33C148.53,152.5 148.53,152.67 148.52,152.84C148.3,156.22 144.8,163.07 143.51,162.55C142.15,162.01 141.56,160.24 141.78,156.84C142,153.43 142.55,144.53 142.55,141.79Z" fill-opacity="0" stroke-linejoin="round" stroke="#000000" stroke-width="0.9" fill-rule="evenodd" id="path_148"/><path fill="#000000" d="M138.11,144.49C138.11,144.35 138.09,144.18 138.04,143.97C138.18,143.72 138.3,143.4 138.37,142.99C138.63,141.49 139.47,137.61 139.8,136.84C140.13,136.07 140.4,134.27 141.09,135.62C141.77,136.98 142.55,138.53 142.88,139.29C142.88,139.29 142.88,139.29 142.88,139.29C142.68,140.01 142.55,140.88 142.55,141.79C142.55,144.53 142,153.43 141.78,156.84C141.78,156.84 140.53,161.71 139.25,161.45C138.91,161.38 138.45,161.31 137.97,161.25C137.97,161.22 137.96,161.19 137.96,161.19C137.96,161.19 136.42,156.88 136.42,153.8C136.42,150.71 138.11,145.85 138.11,144.49Z" fill-opacity="0" stroke-linejoin="round" stroke="#000000" stroke-width="0.9" fill-rule="evenodd" id="path_149"/><path fill="#000000" d="M150.68,44.58C153.76,45.87 157.59,50.3 157.59,54.33C157.59,59.67 157.16,59.18 157.16,60.11C157.16,60.62 157.29,61.64 157.46,63.14C155.43,60.92 152.24,58.4 149.16,56.97C146.08,55.54 147.22,52.75 143.51,51.29C145.51,48.29 149.04,45.83 150.68,44.58Z" fill-opacity="0" stroke-linejoin="round" stroke="#000000" stroke-width="0.9" fill-rule="evenodd" id="path_150"/><path fill="#000000" d="M157.2,59.7C157.2,59.66 157.21,59.62 157.22,59.58C157.21,59.62 157.2,59.66 157.2,59.7Z" fill-opacity="0" stroke-linejoin="round" stroke="#000000" stroke-width="0.9" fill-rule="evenodd" id="path_151"/><path fill="#000000" d="M157.16,60.11C157.16,60.19 157.16,60.28 157.17,60.39C157.16,60.28 157.16,60.19 157.16,60.11Z" fill-opacity="0" stroke-linejoin="round" stroke="#000000" stroke-width="0.9" fill-rule="evenodd" id="path_152"/><path fill="#000000" d="M157.19,59.7C157.19,59.74 157.18,59.78 157.17,59.82C157.18,59.78 157.19,59.74 157.19,59.7Z" fill-opacity="0" stroke-linejoin="round" stroke="#000000" stroke-width="0.9" fill-rule="evenodd" id="path_153"/><path fill="#000000" d="M157.16,59.96C157.16,60 157.16,60.05 157.16,60.11C157.16,60.05 157.16,60 157.16,59.96Z" fill-opacity="0" stroke-linejoin="round" stroke="#000000" stroke-width="0.9" fill-rule="evenodd" id="path_154"/><path fill="#000000" d="M157.17,59.83C157.17,59.87 157.16,59.91 157.16,59.95C157.16,59.91 157.17,59.87 157.17,59.83Z" fill-opacity="0" stroke-linejoin="round" stroke="#000000" stroke-width="0.9" fill-rule="evenodd" id="path_155"/><path fill="#000000" d="M157.46,63.14C157.76,65.81 158.19,70 158.19,75.65C158.19,75.8 158.28,76.08 158.43,76.44C157.24,78.08 155.74,79.71 154.44,79.71C153.31,79.71 152.07,78.85 151.06,77.96C151.05,77.92 151.04,77.88 151.03,77.84C149.71,74.11 149.77,69.88 149.19,69.88C149.08,69.88 148.95,70.05 148.8,70.35C148.64,67.46 148.89,61.75 150.55,57.68C153.17,59.15 155.74,61.26 157.46,63.14Z" fill-opacity="0" stroke-linejoin="round" stroke="#000000" stroke-width="0.9" fill-rule="evenodd" id="path_156"/><path fill="#000000" d="M157.46,63.13C157.38,62.43 157.31,61.84 157.26,61.35C157.31,61.83 157.38,62.43 157.46,63.13Z" fill-opacity="0" stroke-linejoin="round" stroke="#000000" stroke-width="0.9" fill-rule="evenodd" id="path_157"/><path fill="#000000" d="M157.2,60.77C157.19,60.67 157.18,60.57 157.17,60.48C157.18,60.57 157.19,60.67 157.2,60.77Z" fill-opacity="0" stroke-linejoin="round" stroke="#000000" stroke-width="0.9" fill-rule="evenodd" id="path_158"/><path fill="#000000" d="M157.21,60.86C157.22,61 157.23,61.14 157.25,61.31C157.23,61.15 157.22,61 157.21,60.86Z" fill-opacity="0" stroke-linejoin="round" stroke="#000000" stroke-width="0.9" fill-rule="evenodd" id="path_159"/><path fill="#000000" d="M156.98,89.71C157.44,91.22 158.37,94.29 159.23,97.15C159.93,99.48 160.5,101.43 160.5,101.43C160.5,101.43 157.14,96.09 155.65,93.99C154.17,91.89 151.52,83.99 151.25,81.03C152.57,82.57 155.96,86.43 156.98,89.71Z" fill-opacity="0" stroke-linejoin="round" stroke="#000000" stroke-width="0.9" fill-rule="evenodd" id="path_160"/><path fill="#000000" d="M141.34,56.42C141.9,53.93 142.64,52.71 143.51,51.29C146.9,52.44 146.08,55.54 149.16,56.97C149.62,57.18 150.09,57.43 150.55,57.68C148.72,59.5 147.28,60.78 145.74,61.35C144.2,61.91 141.45,61.79 139.96,61.08C140.54,59.45 141.02,57.85 141.34,56.42Z" fill-opacity="0" stroke-linejoin="round" stroke="#000000" stroke-width="0.9" fill-rule="evenodd" id="path_161"/><path fill="#000000" d="M143.44,82.9C141.89,80.92 134.85,72.44 135.07,72.06C135.07,72.06 135.07,72.05 135.07,72.05C134.56,72.92 134.13,73.53 133.84,73.78C133.55,73.53 133.12,72.92 132.62,72.05C132.62,72.05 132.62,72.06 132.62,72.06C132.84,72.44 125.79,80.92 124.24,82.9C124.24,82.9 125.13,84.65 124.97,86.27C124.97,87.58 133.84,99.6 133.84,99.6C133.84,99.6 142.71,87.58 142.71,86.27C142.55,84.65 143.44,82.9 143.44,82.9Z" fill-opacity="0" stroke-linejoin="round" stroke="#000000" stroke-width="0.9" fill-rule="evenodd" id="path_162"/><path fill="#000000" d="M139.97,61.08C141.45,61.79 144.21,61.91 145.74,61.35C147.28,60.78 148.72,59.5 150.55,57.68C148.89,61.75 148.64,67.46 148.8,70.35C148.82,70.32 147.63,74 147.37,76.99C145.74,79.13 143.44,82.9 143.44,82.9C138.52,76.83 136.61,74.55 135.07,72.05C136.63,69.07 138.37,65.62 139.97,61.08Z" fill-opacity="0" stroke-linejoin="round" stroke="#000000" stroke-width="0.9" fill-rule="evenodd" id="path_163"/><path fill="#000000" d="M136.41,104.88C136.42,104.89 136.43,104.9 136.43,104.91C136.49,104.97 136.54,105.04 136.59,105.11C136.68,105.22 136.77,105.34 136.86,105.45C136.92,105.52 136.98,105.59 137.03,105.66C137.13,105.78 137.24,105.9 137.34,106.02C137.39,106.07 137.43,106.13 137.48,106.18C137.8,106.54 138.13,106.88 138.47,107.21C138.5,107.24 138.52,107.26 138.55,107.29C138.7,107.43 138.86,107.57 139.01,107.71C139.04,107.73 139.06,107.76 139.09,107.78C139.46,108.1 139.83,108.4 140.21,108.67C139.83,111.51 138.99,114.95 138.15,115.97C137.48,116.78 136.49,112.83 135.96,109.54C136.3,107.9 136.52,106.24 136.41,104.88Z" fill-opacity="0" stroke-linejoin="round" stroke="#000000" stroke-width="0.9" fill-rule="evenodd" id="path_164"/><path fill="#000000" d="M125.74,25.06C125.74,24.36 124.73,24.16 124.07,24.16C123.41,24.16 123.16,25.17 123.67,27.54C124.17,29.91 126.18,30.6 126.18,30.6L125.74,25.06Z" fill-opacity="0" stroke-linejoin="round" stroke="#000000" stroke-width="0.9" fill-rule="evenodd" id="path_165"/><path fill="#000000" d="M141.95,25.06C141.95,24.36 142.96,24.16 143.61,24.16C144.27,24.16 144.52,25.17 144.02,27.54C143.51,29.91 141.5,30.6 141.5,30.6L141.95,25.06Z" fill-opacity="0" stroke-linejoin="round" stroke="#000000" stroke-width="0.9" fill-rule="evenodd" id="path_166"/><path fill="#000000" d="M145.88,43.38L138.81,39.23L139.13,36.11C139.13,36.11 137.55,31.22 133.84,31.22C130.13,31.22 128.55,36.11 128.55,36.11L128.87,39.23L121.8,43.38C120.16,43.38 118.51,43.82 117,44.58C120.51,47.3 124.91,50.05 126.34,56.42C127.77,62.79 132.42,72.57 133.84,73.78C135.26,72.57 139.91,62.79 141.34,56.42C142.77,50.05 147.18,47.3 150.68,44.58C149.17,43.82 147.52,43.38 145.88,43.38Z" fill-opacity="0" stroke-linejoin="round" stroke="#000000" stroke-width="0.9" fill-rule="evenodd" id="path_167"/><path fill="#000000" d="M128.55,36.11C128.55,36.11 130.13,31.22 133.84,31.22C137.55,31.22 139.13,36.11 139.13,36.11C140.39,34.88 141.25,33.72 141.25,33.72C141.25,33.72 142.21,23.12 142.21,20.55C142.21,17.98 139.42,13.05 133.84,13.05C128.26,13.05 125.47,17.98 125.47,20.55C125.47,23.12 126.43,33.72 126.43,33.72C126.43,33.72 127.29,34.88 128.55,36.11Z" fill-opacity="0" stroke-linejoin="round" stroke="#000000" stroke-width="0.9" fill-rule="evenodd" id="path_168"/><path fill="#000000" d="M168.38,106.81C167.21,103.89 165.68,101.95 165.45,99.16C165.23,96.37 163.28,87.97 162.55,85.16C161.82,82.35 158.19,76.65 158.19,75.65C158.19,66.82 157.16,61.53 157.16,60.11C157.16,59.18 157.59,59.67 157.59,54.33C157.59,50.48 154.56,46.51 150.68,44.58C150.67,44.57 150.67,44.57 150.66,44.57C150.49,44.48 150.31,44.4 150.14,44.32C150.08,44.3 150.02,44.28 149.97,44.25C149.84,44.2 149.71,44.15 149.59,44.1C149.51,44.07 149.44,44.05 149.37,44.02C149.26,43.98 149.14,43.94 149.02,43.9C148.95,43.88 148.87,43.85 148.79,43.83C148.68,43.8 148.57,43.76 148.45,43.73C148.37,43.71 148.29,43.69 148.21,43.67C148.1,43.64 147.98,43.62 147.87,43.59C147.79,43.58 147.71,43.56 147.63,43.55C147.51,43.53 147.4,43.51 147.28,43.49C147.2,43.48 147.13,43.47 147.05,43.46C146.92,43.44 146.79,43.43 146.66,43.42C146.59,43.41 146.53,43.41 146.47,43.4C146.27,43.39 146.08,43.38 145.88,43.38L138.81,39.23L139.13,36.11C139.13,36.11 137.55,31.22 133.84,31.22C130.13,31.22 128.55,36.11 128.55,36.11L128.87,39.23L121.8,43.38C121.61,43.38 121.41,43.39 121.22,43.4C121.15,43.41 121.09,43.41 121.03,43.42C120.89,43.43 120.76,43.44 120.63,43.46C120.56,43.47 120.48,43.48 120.41,43.49C120.29,43.51 120.17,43.53 120.05,43.55C119.97,43.56 119.89,43.58 119.81,43.59C119.7,43.62 119.58,43.64 119.47,43.67C119.39,43.69 119.31,43.71 119.23,43.73C119.12,43.76 119,43.8 118.89,43.83C118.81,43.85 118.74,43.88 118.66,43.9C118.54,43.94 118.43,43.98 118.31,44.02C118.24,44.05 118.17,44.07 118.1,44.1C117.97,44.15 117.84,44.2 117.72,44.25C117.66,44.28 117.6,44.3 117.54,44.32C117.37,44.4 117.2,44.48 117.03,44.57C117.02,44.57 117.01,44.57 117,44.58H117C113.12,46.51 110.09,50.48 110.09,54.33C110.09,59.67 110.53,59.18 110.53,60.11C110.53,61.53 109.5,66.82 109.5,75.65C109.5,76.65 105.86,82.35 105.13,85.16C104.4,87.97 102.45,96.37 102.23,99.16C102,101.95 100.47,103.89 99.3,106.81C97.76,110.64 102.64,112.73 102.99,112.87C103.45,113.06 103.96,113.05 104.11,112.69C104.75,111.23 101.4,109.28 102,108.22C102.61,107.14 103.65,105.93 104.5,106.28C105.35,106.62 104.94,109.32 105.8,109.66C106.65,110 107.01,109.78 107.27,109.13C107.53,108.49 107.41,103.45 106.12,102.93C106.77,102.04 107.18,101.43 107.18,101.43C107.18,101.43 110.54,96.09 112.03,93.99C113.51,91.89 116.16,83.99 116.43,81.03C117.19,79.92 116.32,78.78 116.65,77.84C117.97,74.11 117.91,69.88 118.5,69.88C119.05,69.88 120.42,74.73 120.42,79.3C120.42,82.76 119.49,81.34 119.49,87.38C119.49,89.17 116.48,90.82 116.48,97.98C116.48,99.83 114.5,103.29 114.5,110.77C114.5,125.09 120.91,134.13 120.91,140.17C120.91,146.65 119.15,144.8 119.15,152.33C119.15,159.86 124.29,169.72 124.29,174.96C124.29,185.51 117.68,179.87 117.68,183.09C117.68,183.79 119.51,184.78 119.51,184.78L124.49,186.73L127.81,187.05C129.28,187.05 130.67,186.54 130.67,183.97C130.67,183.15 130.6,181.08 130.6,180.09C130.6,179.1 129.5,176.26 129.5,173.13C129.5,170.01 129.72,161.19 129.72,161.19C129.72,161.19 131.26,156.88 131.26,153.8C131.26,150.71 129.57,145.85 129.57,144.49C129.57,143.14 131.8,139.66 131.8,126.08C131.8,120.21 133.22,110.34 133.22,103.49H133.84H134.46C134.46,110.34 135.88,120.21 135.88,126.08C135.88,139.66 138.11,143.14 138.11,144.49C138.11,145.85 136.42,150.71 136.42,153.8C136.42,156.88 137.96,161.19 137.96,161.19C137.96,161.19 138.18,170.01 138.18,173.13C138.18,176.26 137.08,179.1 137.08,180.09C137.08,181.08 137.01,183.15 137.01,183.97C137.01,186.54 138.4,187.05 139.87,187.05L143.19,186.73L148.17,184.78C148.17,184.78 150,183.79 150,183.09C150,179.87 143.4,185.51 143.4,174.96C143.4,169.72 148.54,159.86 148.54,152.33C148.54,144.8 146.77,146.65 146.77,140.17C146.77,134.13 153.18,125.09 153.18,110.77C153.18,103.29 151.2,99.83 151.2,97.98C151.2,90.82 148.19,89.17 148.19,87.38C148.19,81.34 147.26,82.76 147.26,79.3C147.26,74.73 148.63,69.88 149.19,69.88C149.77,69.88 149.71,74.11 151.03,77.84C151.36,78.78 150.49,79.92 151.25,81.03C151.52,83.99 154.17,91.89 155.65,93.99C157.14,96.09 160.5,101.43 160.5,101.43C160.5,101.43 160.91,102.04 161.56,102.93C160.27,103.45 160.15,108.49 160.41,109.13C160.67,109.78 161.04,110 161.89,109.66C162.74,109.32 162.33,106.62 163.18,106.28C164.03,105.93 165.07,107.14 165.68,108.22C166.29,109.28 162.93,111.23 163.57,112.69C163.72,113.05 164.23,113.06 164.69,112.87C165.04,112.73 169.92,110.64 168.38,106.81Z" fill-opacity="0" stroke-linejoin="round" stroke="#000000" stroke-width="0.9" fill-rule="evenodd" id="path_169"/></svg>