<svg id="vector" xmlns="http://www.w3.org/2000/svg" width="200.0d" height="200.0d" viewBox="0 0 200.0 200.0"><path fill="#ffffff" d="M91.86,106.56C91.43,105.52 90.67,102.26 90.45,99.55C89.87,92.34 89.36,81.58 88.83,79.53C88.11,76.73 86.57,73.83 86.57,72.82C86.57,64.01 84.61,61.8 84.61,60.37C84.61,59.45 85.04,59.94 85.04,54.6C85.04,49.27 79.24,43.68 73.43,43.68L67.79,40.15V35.05H67.74C66.32,36.64 63.79,39.06 61.5,39.06C59.21,39.06 56.68,36.64 55.26,35.05H55.21V40.15L49.57,43.68C43.76,43.68 37.96,49.27 37.96,54.6C37.96,59.94 38.39,59.45 38.39,60.37C38.39,61.8 36.43,64.01 36.43,72.82C36.43,73.83 34.89,76.73 34.16,79.53C33.64,81.58 33.13,92.34 32.55,99.55C32.33,102.26 31.57,105.52 31.14,106.56C30.12,108.99 35.02,112.7 35.34,112.83C35.77,113 35.91,112.15 36.05,111.82C36.64,110.45 34.45,108.82 34.59,107.87C34.76,106.73 34.96,104.72 35.75,105.04C36.54,105.36 36.81,107.18 37.6,107.5C38.39,107.82 38.73,107.61 38.97,107.01C39.11,106.66 38.21,104.45 37.41,102.38C36.84,100.91 36.94,99.86 36.94,99.86C36.94,99.86 43.21,85.2 43.48,82.24C44.33,80.88 43.94,80.2 44.05,79.21C44.48,75.25 44.49,67.58 45.07,67.58C45.62,67.58 45.68,69.99 45.68,71.46C45.68,74.85 48.2,74.98 48.2,79.53C48.2,82.98 47.28,81.57 47.28,87.6C47.28,89.39 44.29,91.03 44.29,98.18C44.29,100.03 42.33,103.48 42.33,110.95C42.33,125.25 46.11,132.21 46.11,138.24C46.11,144.71 44.95,144.16 44.95,151.67C44.95,159.19 49.61,168.8 49.61,174.04C49.61,185.56 45.81,182.6 45.81,185.25C45.81,185.95 46.54,186.4 46.54,186.4L53.04,187.1H56.39L57.41,185.87C57.41,185.87 56.51,184.3 56.51,183.48C56.51,182.66 56.96,181.06 56.96,180.07C56.96,179.09 55.7,175.64 55.7,172.52C55.7,169.4 55.62,160.42 55.62,160.42C55.62,160.42 55.92,157.47 55.92,154.38C55.92,151.3 54.02,149.76 54.02,148.41C54.02,147.05 59.48,137.2 59.48,126.23C59.48,120.38 60.89,110.52 60.89,103.68H61.5H62.11C62.11,110.52 63.52,120.38 63.52,126.23C63.52,137.2 68.98,147.05 68.98,148.41C68.98,149.76 67.08,151.3 67.08,154.38C67.08,157.47 67.39,160.42 67.39,160.42C67.39,160.42 67.3,169.4 67.3,172.52C67.3,175.64 66.04,179.09 66.04,180.07C66.04,181.06 66.49,182.66 66.49,183.48C66.49,184.3 65.59,185.87 65.59,185.87L66.61,187.1H69.96L76.46,186.4C76.46,186.4 77.19,185.95 77.19,185.25C77.19,182.6 73.39,185.56 73.39,174.04C73.39,168.8 78.05,159.19 78.05,151.67C78.05,144.16 76.89,144.71 76.89,138.24C76.89,132.21 80.67,125.25 80.67,110.95C80.67,103.48 78.71,100.03 78.71,98.18C78.71,91.03 75.72,89.39 75.72,87.6C75.72,81.57 74.8,82.98 74.8,79.53C74.8,74.98 77.32,74.85 77.32,71.46C77.32,69.99 77.38,67.58 77.93,67.58C78.51,67.58 78.52,75.25 78.95,79.21C79.06,80.2 78.67,80.88 79.52,82.24C79.79,85.2 86.06,99.86 86.06,99.86C86.06,99.86 86.16,100.91 85.59,102.38C84.79,104.45 83.89,106.66 84.03,107.01C84.27,107.61 84.61,107.82 85.4,107.5C86.19,107.18 86.46,105.36 87.25,105.04C88.04,104.72 88.24,106.73 88.41,107.87C88.55,108.82 86.36,110.45 86.95,111.82C87.09,112.15 87.23,113 87.66,112.83C87.98,112.7 92.88,108.99 91.86,106.56Z" fill-rule="evenodd" id="path_0"/><path fill="#ffffff" d="M37.96,54.6C37.96,59.94 38.39,59.45 38.39,60.37C41.09,59.82 42.86,57.48 46.11,52C49.36,46.51 52.12,47.38 52.12,46.08C52.12,45.1 50.22,44.67 49.57,43.68C43.76,43.68 37.96,49.26 37.96,54.6Z" fill-rule="evenodd" id="path_1"/><path fill="#ffffff" d="M58.92,49.53C58.56,48.82 53.41,46.08 52.12,46.08C52.12,47.38 49.36,46.51 46.11,52C44.91,54.03 43.9,55.63 42.98,56.87C44.44,57.69 43.97,58.34 45.32,59.51C46.66,60.68 51.14,62.47 53.9,62.47C56.66,62.47 60.49,60.81 60.49,60.81V56.62C60.49,52.06 59.48,50.64 58.92,49.53Z" fill-rule="evenodd" id="path_2"/><path fill="#ffffff" d="M54.96,70.15V66C54.96,64.56 55.53,63.5 56.6,63.5C57.66,63.5 59.82,62.59 60.07,62.59C60.31,62.59 60.81,62.68 60.81,63.19V68.77C60.81,69.58 59.85,69.64 58.52,69.64C57.74,69.64 56.08,70.34 55.74,70.69C55.39,71.04 54.96,70.56 54.96,70.15Z" fill-rule="evenodd" id="path_3"/><path fill="#ffffff" d="M60.81,72.42C60.81,71.81 60.52,71.31 59.78,71.31H57.9C57.17,71.31 55.08,72.59 55.08,73.74V76.41C55.08,76.95 55.33,77.23 55.98,77.23H58.84C59.21,77.23 60.81,76.49 60.81,75.47V72.42Z" fill-rule="evenodd" id="path_4"/><path fill="#ffffff" d="M54.91,82.83V79.78C54.91,79.25 55.19,78.51 55.98,78.51H59.29C59.78,78.51 60.76,79.13 60.76,79.81V82.83C60.76,83.29 60.55,84.09 60.03,84.09H56.6C56.04,84.09 54.91,83.57 54.91,82.83Z" fill-rule="evenodd" id="path_5"/><path fill="#ffffff" d="M59.87,85.57H56.47C55.82,85.57 55.08,86.1 55.08,86.72C55.08,87.34 58.11,100.89 60.48,100.89H60.76C60.89,97.69 60.76,87.27 60.76,86.72C60.76,86.06 60.64,85.57 59.87,85.57Z" fill-rule="evenodd" id="path_6"/><path fill="#ffffff" d="M68.04,70.15V66C68.04,64.56 67.47,63.5 66.4,63.5C65.34,63.5 63.18,62.59 62.93,62.59C62.69,62.59 62.2,62.68 62.2,63.19V68.77C62.2,69.58 63.16,69.64 64.48,69.64C65.26,69.64 66.92,70.34 67.26,70.69C67.61,71.04 68.04,70.56 68.04,70.15Z" fill-rule="evenodd" id="path_7"/><path fill="#ffffff" d="M62.2,72.42C62.2,71.81 62.48,71.31 63.22,71.31H65.1C65.83,71.31 67.92,72.59 67.92,73.74V76.41C67.92,76.95 67.67,77.23 67.02,77.23H64.16C63.79,77.23 62.2,76.49 62.2,75.47V72.42Z" fill-rule="evenodd" id="path_8"/><path fill="#ffffff" d="M68.09,82.83V79.78C68.09,79.25 67.82,78.51 67.02,78.51H63.71C63.22,78.51 62.24,79.13 62.24,79.81V82.83C62.24,83.29 62.45,84.09 62.97,84.09H66.41C66.96,84.09 68.09,83.57 68.09,82.83Z" fill-rule="evenodd" id="path_9"/><path fill="#ffffff" d="M63.14,85.57H66.53C67.18,85.57 67.92,86.1 67.92,86.72C67.92,87.34 64.89,100.89 62.52,100.89H62.24C62.11,97.69 62.24,87.27 62.24,86.72C62.24,86.06 62.36,85.57 63.14,85.57Z" fill-rule="evenodd" id="path_10"/><path fill="#ffffff" d="M44.05,55.34C43.92,55.54 43.79,55.73 43.67,55.91C43.79,55.73 43.92,55.54 44.05,55.34Z" fill-rule="evenodd" id="path_11"/><path fill="#ffffff" d="M42.98,56.87C43.06,56.76 43.15,56.64 43.23,56.53C41.56,58.85 40.18,60.01 38.39,60.37C38.39,61.8 36.43,64.01 36.43,72.82C36.43,74.61 40.67,76.9 42.62,72.82C43.88,70.17 44.36,69.07 44.65,68.42C44.8,67.89 44.95,67.58 45.07,67.58C45.5,66.84 45.32,59.51 45.32,59.51C43.97,58.34 44.44,57.69 42.98,56.87Z" fill-rule="evenodd" id="path_12"/><path fill="#ffffff" d="M43.3,56.43C43.42,56.27 43.54,56.1 43.66,55.92C43.54,56.1 43.42,56.27 43.3,56.43Z" fill-rule="evenodd" id="path_13"/><path fill="#ffffff" d="M61.5,13C55.95,13 53.18,17.93 53.18,20.51C53.18,23.08 54.14,33.7 54.14,33.7C54.14,33.7 58.08,39.06 61.5,39.06C64.91,39.06 68.86,33.7 68.86,33.7C68.86,33.7 69.82,23.08 69.82,20.51C69.82,17.93 67.05,13 61.5,13Z" fill-rule="evenodd" id="path_14"/><path fill="#ffffff" d="M69.55,90.38C69.55,85.82 70.74,86.19 70.74,83.76C70.74,78.71 69.55,74.4 69.55,72.14C69.55,69.88 69.76,62.47 69.76,62.47L69.66,62.45C69.47,62.46 69.28,62.47 69.1,62.47C66.34,62.47 62.51,60.81 62.51,60.81H61.5H60.49C60.49,60.81 56.66,62.47 53.9,62.47C53.72,62.47 53.53,62.46 53.34,62.45L53.24,62.47C53.24,62.47 53.45,69.88 53.45,72.14C53.45,74.4 52.26,78.71 52.26,83.76C52.26,86.19 53.45,85.82 53.45,90.38C53.45,91.98 52.22,93.11 50.63,93.11C50.63,96.78 59.21,103.68 61.5,103.68C63.79,103.68 72.37,96.78 72.37,93.11C70.78,93.11 69.55,91.98 69.55,90.38Z" fill-rule="evenodd" id="path_15"/><path fill="#ffffff" d="M72.37,93.11C73.43,90.34 75.72,87.6 75.72,87.6L72.37,93.11Z" fill-rule="evenodd" id="path_16"/><path fill="#ffffff" d="M46.09,137.4C46.09,137.9 46.38,138.18 46.62,138.18C46.87,138.18 47.44,135.38 47.44,133.52C47.34,133.52 47.28,133.27 47.28,132.55C47.28,130 44.89,125.33 44.89,116.37C44.89,107.42 47.6,97.65 48.2,93.78L48.07,91.97C48.01,90.95 47.95,88.47 47.95,88.47L47.28,87.55C47.28,87.57 47.28,87.59 47.28,87.6C47.28,89.39 44.29,91.03 44.29,98.18C44.29,100.03 42.33,103.48 42.33,110.95C42.33,111.39 42.34,111.82 42.34,112.25C42.34,112.36 42.35,112.48 42.35,112.59C42.36,112.9 42.36,113.2 42.37,113.5C42.38,113.64 42.38,113.78 42.39,113.92C42.4,114.19 42.41,114.45 42.42,114.71C42.43,114.86 42.44,115.01 42.45,115.15C42.46,115.4 42.47,115.65 42.49,115.89C42.5,116.04 42.51,116.18 42.52,116.33C42.54,116.57 42.55,116.8 42.57,117.03C42.58,117.17 42.6,117.31 42.61,117.45C42.63,117.68 42.65,117.92 42.67,118.14C42.68,118.28 42.7,118.41 42.71,118.54C42.73,118.77 42.76,119 42.78,119.22C42.8,119.34 42.81,119.46 42.82,119.59C42.85,119.82 42.88,120.04 42.91,120.26C42.92,120.38 42.94,120.49 42.95,120.6C42.98,120.83 43.01,121.06 43.04,121.29C43.06,121.38 43.07,121.48 43.09,121.58C43.12,121.82 43.15,122.05 43.19,122.28C43.2,122.36 43.22,122.45 43.23,122.53C43.27,122.77 43.31,123.01 43.35,123.25C43.36,123.32 43.37,123.38 43.38,123.44C43.42,123.7 43.47,123.96 43.52,124.21C43.52,124.25 43.53,124.29 43.54,124.33C43.59,124.61 43.64,124.89 43.69,125.16C43.7,125.17 43.7,125.17 43.7,125.18C44.7,130.32 45.9,134.04 46.09,137.4L46.09,137.4Z" fill-rule="evenodd" id="path_17"/><path fill="#ffffff" d="M61.5,39.06C60.84,39.06 60.16,38.86 59.49,38.53H59.48C59.48,40.89 59.95,47.7 61.5,47.7C63.05,47.7 63.52,40.89 63.52,38.53H63.52C62.85,38.86 62.16,39.06 61.5,39.06Z" fill-rule="evenodd" id="path_18"/><path fill="#ffffff" d="M48.2,93.78C47.6,97.65 44.89,107.42 44.89,116.37C44.89,125.33 47.28,130 47.28,132.55C47.28,135.1 48.05,131.82 48.5,131.82C48.95,131.82 50.59,134.95 50.59,136.89C50.59,136.98 50.6,137.03 50.62,137.05C50.61,136.95 50.62,136.84 50.62,136.74C50.61,136.47 50.6,136.21 50.61,135.93C50.61,135.83 50.62,135.72 50.62,135.62C50.64,135.3 50.66,134.98 50.69,134.65C50.69,134.58 50.7,134.52 50.71,134.46C50.91,132.39 51.36,130.09 51.62,128.28C51.63,128.23 51.64,128.17 51.64,128.12C51.7,127.74 51.74,127.38 51.77,127.05C52.02,124.43 53.57,119.01 54.32,115.8C54.32,115.8 54.33,115.77 54.33,115.73C54.33,115.68 54.34,115.56 54.35,115.4C54.35,115.38 54.35,115.34 54.35,115.31C54.36,115.16 54.37,114.99 54.38,114.78C54.38,114.77 54.38,114.77 54.38,114.76C54.39,114.52 54.4,114.25 54.41,113.94C54.41,113.92 54.42,113.91 54.42,113.9C54.45,112.95 54.49,111.72 54.51,110.34C54.51,110.23 54.51,110.12 54.51,110.01C54.52,109.64 54.52,109.28 54.52,108.89C54.52,108.4 54.51,107.35 54.51,107.33C54.51,105 51.84,97.51 50.81,94.26C50.6,93.61 50.7,93.37 50.63,93.11C50.22,91.52 47.95,88.47 47.95,88.47L48.2,93.78Z" fill-rule="evenodd" id="path_19"/><path fill="#ffffff" d="M54.51,107.33C54.51,107.35 54.51,107.36 54.51,107.38C54.52,107.89 54.52,108.4 54.52,108.89C54.52,109.28 54.52,109.64 54.51,110.01C54.51,110.12 54.51,110.23 54.51,110.34C54.49,111.72 54.45,112.96 54.42,113.9C54.42,113.91 54.42,113.92 54.42,113.94C54.4,114.25 54.39,114.52 54.38,114.76C54.38,114.77 54.38,114.77 54.38,114.78C54.37,114.99 54.36,115.16 54.35,115.31C54.35,115.34 54.35,115.38 54.35,115.4C54.34,115.56 54.33,115.68 54.33,115.73C54.33,115.78 54.32,115.8 54.32,115.8C53.57,119.01 52.02,124.43 51.77,127.05C51.74,127.38 51.7,127.74 51.64,128.12C51.64,128.12 51.64,128.13 51.64,128.13C51.57,128.63 51.48,129.18 51.39,129.75C51.31,130.23 51.23,130.73 51.15,131.24C51.15,131.25 51.14,131.27 51.14,131.28C51.06,131.8 50.98,132.33 50.9,132.85C50.9,132.86 50.9,132.87 50.9,132.88C50.83,133.41 50.76,133.94 50.71,134.46C50.71,134.48 50.7,134.5 50.7,134.52C50.7,134.56 50.69,134.61 50.69,134.65C50.66,134.98 50.64,135.29 50.63,135.6C50.62,135.65 50.62,135.7 50.62,135.75C50.61,135.81 50.61,135.87 50.61,135.93C50.6,136.21 50.61,136.47 50.62,136.74V136.75C50.62,136.91 50.62,137.09 50.63,137.24C50.87,140.11 52.92,139.95 52.92,139.95C54.28,139.95 56.94,139.1 57.8,137.54C57.89,137.2 57.98,136.85 58.07,136.5C58.88,133.38 59.48,129.87 59.48,126.23C59.48,125.59 59.5,124.91 59.52,124.18C59.52,119.07 57.01,112.84 54.51,107.33Z" fill-rule="evenodd" id="path_20"/><path fill="#ffffff" d="M76.91,137.4C76.91,137.9 76.62,138.18 76.38,138.18C76.13,138.18 75.56,135.38 75.56,133.52C75.66,133.52 75.72,133.27 75.72,132.55C75.72,130 78.11,125.33 78.11,116.37C78.11,107.42 75.4,97.65 74.8,93.78L74.93,91.97C74.99,90.95 75.05,88.47 75.05,88.47L75.72,87.55C75.72,87.57 75.72,87.59 75.72,87.6C75.72,89.39 78.71,91.03 78.71,98.18C78.71,100.03 80.67,103.48 80.67,110.95C80.67,111.39 80.66,111.82 80.66,112.25C80.66,112.36 80.65,112.48 80.65,112.59C80.64,112.9 80.64,113.2 80.63,113.5C80.62,113.64 80.62,113.78 80.61,113.92C80.6,114.19 80.59,114.45 80.58,114.71C80.57,114.86 80.56,115.01 80.55,115.15C80.54,115.4 80.53,115.65 80.51,115.89C80.5,116.04 80.49,116.18 80.48,116.33C80.46,116.57 80.45,116.8 80.43,117.03C80.42,117.17 80.4,117.31 80.39,117.45C80.37,117.68 80.35,117.92 80.33,118.14C80.32,118.28 80.3,118.41 80.29,118.54C80.27,118.77 80.24,119 80.22,119.22C80.2,119.34 80.19,119.46 80.18,119.59C80.15,119.82 80.12,120.04 80.09,120.26C80.08,120.38 80.07,120.49 80.05,120.6C80.02,120.83 79.99,121.06 79.96,121.29C79.94,121.38 79.93,121.48 79.91,121.58C79.88,121.82 79.85,122.05 79.81,122.28C79.8,122.36 79.78,122.45 79.77,122.53C79.73,122.77 79.69,123.01 79.65,123.25C79.64,123.32 79.63,123.38 79.62,123.44C79.58,123.7 79.53,123.96 79.49,124.21C79.48,124.25 79.47,124.29 79.46,124.33C79.41,124.61 79.36,124.89 79.31,125.16C79.31,125.17 79.3,125.17 79.3,125.18C78.3,130.32 77.1,134.04 76.91,137.4L76.91,137.4Z" fill-rule="evenodd" id="path_21"/><path fill="#ffffff" d="M74.8,93.78C75.4,97.65 78.11,107.42 78.11,116.37C78.11,125.33 75.72,130 75.72,132.55C75.72,135.1 74.95,131.82 74.5,131.82C74.05,131.82 72.41,134.95 72.41,136.89C72.41,136.98 72.4,137.03 72.38,137.05C72.39,136.95 72.38,136.84 72.39,136.74C72.39,136.47 72.4,136.21 72.39,135.93C72.39,135.83 72.38,135.72 72.38,135.62C72.36,135.3 72.34,134.98 72.31,134.65C72.31,134.58 72.3,134.52 72.29,134.46C72.09,132.39 71.64,130.09 71.38,128.28C71.37,128.23 71.36,128.17 71.36,128.12C71.3,127.74 71.26,127.38 71.23,127.05C70.98,124.43 69.43,119.01 68.68,115.8C68.68,115.8 68.68,115.77 68.67,115.73C68.67,115.68 68.66,115.56 68.65,115.4C68.65,115.38 68.65,115.34 68.65,115.31C68.64,115.16 68.63,114.99 68.62,114.78C68.62,114.77 68.62,114.77 68.62,114.76C68.61,114.52 68.6,114.25 68.59,113.94C68.59,113.92 68.59,113.91 68.58,113.9C68.55,112.95 68.51,111.72 68.49,110.34C68.49,110.23 68.49,110.12 68.49,110.01C68.48,109.64 68.48,109.28 68.48,108.89C68.48,108.4 68.49,107.35 68.49,107.33C68.49,105 71.16,97.51 72.2,94.26C72.4,93.61 72.3,93.37 72.37,93.11C72.78,91.52 75.05,88.47 75.05,88.47L74.8,93.78Z" fill-rule="evenodd" id="path_22"/><path fill="#ffffff" d="M68.49,107.33C68.49,107.35 68.49,107.36 68.49,107.38C68.48,107.89 68.48,108.4 68.48,108.89C68.48,109.28 68.48,109.64 68.49,110.01C68.49,110.12 68.49,110.23 68.49,110.34C68.51,111.72 68.55,112.96 68.58,113.9C68.59,113.91 68.59,113.92 68.59,113.94C68.6,114.25 68.61,114.52 68.62,114.76C68.62,114.77 68.62,114.77 68.62,114.78C68.63,114.99 68.64,115.16 68.65,115.31C68.65,115.34 68.65,115.38 68.65,115.4C68.66,115.56 68.67,115.68 68.67,115.73C68.68,115.78 68.68,115.8 68.68,115.8C69.43,119.01 70.98,124.43 71.23,127.05C71.26,127.38 71.3,127.74 71.36,128.12C71.36,128.12 71.36,128.13 71.36,128.13C71.43,128.63 71.52,129.18 71.61,129.75C71.69,130.23 71.77,130.73 71.85,131.24C71.85,131.25 71.86,131.27 71.86,131.28C71.94,131.8 72.02,132.33 72.1,132.85C72.1,132.86 72.1,132.87 72.1,132.88C72.18,133.41 72.24,133.94 72.29,134.46C72.29,134.48 72.3,134.5 72.3,134.52C72.3,134.56 72.31,134.61 72.31,134.65C72.34,134.98 72.36,135.29 72.38,135.6C72.38,135.65 72.38,135.7 72.38,135.75C72.39,135.81 72.39,135.87 72.39,135.93C72.4,136.21 72.39,136.47 72.39,136.74V136.75C72.38,136.91 72.38,137.09 72.37,137.24C72.13,140.11 70.08,139.95 70.08,139.95C68.72,139.95 66.06,139.1 65.2,137.54C65.11,137.2 65.02,136.85 64.93,136.5C64.12,133.38 63.52,129.87 63.52,126.23C63.52,125.59 63.51,124.91 63.48,124.18C63.48,119.07 65.99,112.84 68.49,107.33Z" fill-rule="evenodd" id="path_23"/><path fill="#ffffff" d="M55.8,174.1C55.8,174.1 55.8,174.1 55.8,174.11C55.74,173.58 55.7,173.04 55.7,172.52C55.7,169.4 55.61,160.42 55.61,160.42C55.61,160.42 55.92,157.46 55.92,154.38C55.92,151.3 54.02,149.76 54.02,148.41C52.99,151.28 50.51,162.27 55.8,174.1Z" fill-rule="evenodd" id="path_24"/><path fill="#ffffff" d="M44.95,151.67C44.95,158.16 48.41,166.21 49.36,171.65C49.36,171.65 49.36,171.65 49.36,171.65C50.78,156.74 47.07,152.54 45.08,147.95C45,148.94 44.95,150.13 44.95,151.67Z" fill-rule="evenodd" id="path_25"/><path fill="#ffffff" d="M67.2,174.1C67.2,174.1 67.2,174.1 67.2,174.11C67.26,173.58 67.3,173.04 67.3,172.52C67.3,169.4 67.38,160.42 67.38,160.42C67.38,160.42 67.08,157.46 67.08,154.38C67.08,151.3 68.98,149.76 68.98,148.41C70.01,151.28 72.49,162.27 67.2,174.1Z" fill-rule="evenodd" id="path_26"/><path fill="#ffffff" d="M78.05,151.67C78.05,158.16 74.59,166.21 73.64,171.65C73.64,171.65 73.64,171.65 73.63,171.65C72.22,156.74 75.93,152.54 77.92,147.95C78,148.94 78.05,150.13 78.05,151.67Z" fill-rule="evenodd" id="path_27"/><path fill="#ffffff" d="M36.43,72.82C36.43,72.38 36.44,71.97 36.45,71.56C36.44,71.96 36.43,72.38 36.43,72.82Z" fill-rule="evenodd" id="path_28"/><path fill="#ffffff" d="M38.52,82.24C38.93,79.71 39.35,78.8 38.52,77.23C37.69,75.67 37.13,77.82 34.9,77.23C34.63,77.98 34.36,78.76 34.17,79.53C33.71,81.3 33.86,89.69 33.53,96.59H33.53C33.53,96.59 35.33,92.99 35.47,89.37C35.61,85.75 38.1,84.78 38.52,82.24Z" fill-rule="evenodd" id="path_29"/><path fill="#ffffff" d="M39,86.62C37.83,90.2 36.94,99.86 36.94,99.86C36.94,99.86 43.21,85.2 43.48,82.24C43.48,82.24 40.17,83.04 39,86.62Z" fill-rule="evenodd" id="path_30"/><path fill="#ffffff" d="M85.04,54.6C85.04,59.94 84.61,59.45 84.61,60.37C81.91,59.82 80.14,57.48 76.89,52C73.64,46.51 70.88,47.38 70.88,46.08C70.88,45.1 72.78,44.67 73.43,43.68C79.24,43.68 85.04,49.26 85.04,54.6Z" fill-rule="evenodd" id="path_31"/><path fill="#ffffff" d="M64.07,49.53C64.44,48.82 69.59,46.08 70.88,46.08C70.88,47.38 73.64,46.51 76.89,52C78.09,54.03 79.1,55.63 80.02,56.87C78.56,57.69 79.03,58.34 77.68,59.51C76.34,60.68 71.86,62.47 69.1,62.47C66.34,62.47 62.51,60.81 62.51,60.81V56.62C62.51,52.06 63.52,50.64 64.07,49.53Z" fill-rule="evenodd" id="path_32"/><path fill="#ffffff" d="M78.96,55.34C79.08,55.54 79.21,55.73 79.34,55.91C79.21,55.73 79.08,55.54 78.96,55.34Z" fill-rule="evenodd" id="path_33"/><path fill="#ffffff" d="M80.02,56.87C79.94,56.76 79.85,56.64 79.77,56.53C81.44,58.85 82.83,60.01 84.61,60.37C84.61,61.8 86.57,64.01 86.57,72.82C86.57,74.61 82.33,76.9 80.38,72.82C79.12,70.17 78.64,69.07 78.35,68.42C78.2,67.89 78.05,67.58 77.93,67.58C77.5,66.84 77.68,59.51 77.68,59.51C79.03,58.34 78.56,57.69 80.02,56.87Z" fill-rule="evenodd" id="path_34"/><path fill="#ffffff" d="M79.7,56.43C79.58,56.27 79.46,56.1 79.34,55.92C79.46,56.1 79.58,56.27 79.7,56.43Z" fill-rule="evenodd" id="path_35"/><path fill="#ffffff" d="M84.48,82.24C84.07,79.71 83.65,78.8 84.48,77.23C85.31,75.67 85.87,77.82 88.1,77.23C88.37,77.98 88.64,78.76 88.83,79.53C89.29,81.3 89.14,89.69 89.47,96.59H89.47C89.47,96.59 87.67,92.99 87.53,89.37C87.39,85.75 84.9,84.78 84.48,82.24Z" fill-rule="evenodd" id="path_36"/><path fill="#ffffff" d="M84,86.62C85.17,90.2 86.06,99.86 86.06,99.86C86.06,99.86 79.78,85.2 79.52,82.24C79.52,82.24 82.83,83.04 84,86.62Z" fill-rule="evenodd" id="path_37"/><path fill="#ffffff" d="M53.41,25.02C53.41,24.32 52.41,24.12 51.76,24.12C51.1,24.12 50.85,25.13 51.35,27.51C51.86,29.88 53.86,30.57 53.86,30.57L53.41,25.02Z" fill-rule="evenodd" id="path_38"/><path fill="#ffffff" d="M69.59,25.02C69.59,24.32 70.59,24.12 71.24,24.12C71.9,24.12 72.15,25.13 71.65,27.51C71.14,29.88 69.14,30.57 69.14,30.57L69.59,25.02Z" fill-rule="evenodd" id="path_39"/><path fill="#000000" d="M37.96,54.6C37.96,59.94 38.39,59.45 38.39,60.37C41.09,59.82 42.86,57.48 46.11,52C49.36,46.51 52.12,47.38 52.12,46.08C52.12,45.1 50.22,44.67 49.57,43.68C43.76,43.68 37.96,49.26 37.96,54.6Z" fill-opacity="0" stroke-linejoin="round" stroke="#000000" stroke-width="0.9" fill-rule="evenodd" id="path_40"/><path fill="#000000" d="M58.92,49.53C58.56,48.82 53.41,46.08 52.12,46.08C52.12,47.38 49.36,46.51 46.11,52C44.91,54.03 43.9,55.63 42.98,56.87H42.98C44.44,57.69 43.97,58.34 45.32,59.51C46.66,60.68 51.14,62.47 53.9,62.47C56.66,62.47 60.49,60.81 60.49,60.81V56.62C60.49,52.06 59.48,50.64 58.92,49.53Z" fill-opacity="0" stroke-linejoin="round" stroke="#000000" stroke-width="0.9" fill-rule="evenodd" id="path_41"/><path fill="#000000" d="M54.96,70.15V66C54.96,64.56 55.53,63.5 56.6,63.5C57.66,63.5 59.82,62.59 60.07,62.59C60.31,62.59 60.81,62.68 60.81,63.19V68.77C60.81,69.58 59.85,69.64 58.52,69.64C57.74,69.64 56.08,70.34 55.74,70.69C55.39,71.04 54.96,70.56 54.96,70.15Z" fill-opacity="0" stroke-linejoin="round" stroke="#000000" stroke-width="0.9" fill-rule="evenodd" id="path_42"/><path fill="#000000" d="M60.81,72.42C60.81,71.81 60.52,71.31 59.78,71.31H57.9C57.17,71.31 55.08,72.59 55.08,73.74V76.41C55.08,76.95 55.33,77.23 55.98,77.23H58.84C59.21,77.23 60.81,76.49 60.81,75.47V72.42Z" fill-opacity="0" stroke-linejoin="round" stroke="#000000" stroke-width="0.9" fill-rule="evenodd" id="path_43"/><path fill="#000000" d="M54.91,82.83V79.78C54.91,79.25 55.19,78.51 55.98,78.51H59.29C59.78,78.51 60.76,79.13 60.76,79.81V82.83C60.76,83.29 60.55,84.09 60.03,84.09H56.6C56.04,84.09 54.91,83.57 54.91,82.83Z" fill-opacity="0" stroke-linejoin="round" stroke="#000000" stroke-width="0.9" fill-rule="evenodd" id="path_44"/><path fill="#000000" d="M59.87,85.57H56.47C55.82,85.57 55.08,86.1 55.08,86.72C55.08,87.34 58.11,100.89 60.48,100.89H60.76C60.89,97.69 60.76,87.27 60.76,86.72C60.76,86.06 60.64,85.57 59.87,85.57Z" fill-opacity="0" stroke-linejoin="round" stroke="#000000" stroke-width="0.9" fill-rule="evenodd" id="path_45"/><path fill="#000000" d="M68.04,70.15V66C68.04,64.56 67.47,63.5 66.4,63.5C65.34,63.5 63.18,62.59 62.93,62.59C62.69,62.59 62.2,62.68 62.2,63.19V68.77C62.2,69.58 63.16,69.64 64.48,69.64C65.26,69.64 66.92,70.34 67.26,70.69C67.61,71.04 68.04,70.56 68.04,70.15Z" fill-opacity="0" stroke-linejoin="round" stroke="#000000" stroke-width="0.9" fill-rule="evenodd" id="path_46"/><path fill="#000000" d="M62.2,72.42C62.2,71.81 62.48,71.31 63.22,71.31H65.1C65.83,71.31 67.92,72.59 67.92,73.74V76.41C67.92,76.95 67.67,77.23 67.02,77.23H64.16C63.79,77.23 62.2,76.49 62.2,75.47V72.42Z" fill-opacity="0" stroke-linejoin="round" stroke="#000000" stroke-width="0.9" fill-rule="evenodd" id="path_47"/><path fill="#000000" d="M68.09,82.83V79.78C68.09,79.25 67.82,78.51 67.02,78.51H63.71C63.22,78.51 62.24,79.13 62.24,79.81V82.83C62.24,83.29 62.45,84.09 62.97,84.09H66.41C66.96,84.09 68.09,83.57 68.09,82.83Z" fill-opacity="0" stroke-linejoin="round" stroke="#000000" stroke-width="0.9" fill-rule="evenodd" id="path_48"/><path fill="#000000" d="M63.14,85.57H66.53C67.18,85.57 67.92,86.1 67.92,86.72C67.92,87.34 64.89,100.89 62.52,100.89H62.24C62.11,97.69 62.24,87.27 62.24,86.72C62.24,86.06 62.36,85.57 63.14,85.57Z" fill-opacity="0" stroke-linejoin="round" stroke="#000000" stroke-width="0.9" fill-rule="evenodd" id="path_49"/><path fill="#000000" d="M44.05,55.34C43.92,55.54 43.79,55.73 43.67,55.91C43.79,55.73 43.92,55.54 44.05,55.34Z" fill-opacity="0" stroke-linejoin="round" stroke="#000000" stroke-width="0.9" fill-rule="evenodd" id="path_50"/><path fill="#000000" d="M42.98,56.87C43.06,56.76 43.15,56.64 43.23,56.53C41.56,58.85 40.18,60.01 38.39,60.37C38.39,61.8 36.43,64.01 36.43,72.82C36.43,74.61 40.67,76.9 42.62,72.82C43.88,70.17 44.36,69.07 44.65,68.42C44.8,67.89 44.95,67.58 45.07,67.58C45.5,66.84 45.32,59.51 45.32,59.51C43.97,58.34 44.44,57.69 42.98,56.87Z" fill-opacity="0" stroke-linejoin="round" stroke="#000000" stroke-width="0.9" fill-rule="evenodd" id="path_51"/><path fill="#000000" d="M43.3,56.43C43.42,56.27 43.54,56.1 43.66,55.92C43.54,56.1 43.42,56.27 43.3,56.43Z" fill-opacity="0" stroke-linejoin="round" stroke="#000000" stroke-width="0.9" fill-rule="evenodd" id="path_52"/><path fill="#000000" d="M61.5,13C55.95,13 53.18,17.93 53.18,20.51C53.18,23.08 54.14,33.7 54.14,33.7C54.14,33.7 58.08,39.06 61.5,39.06C64.91,39.06 68.86,33.7 68.86,33.7C68.86,33.7 69.82,23.08 69.82,20.51C69.82,17.93 67.05,13 61.5,13Z" fill-opacity="0" stroke-linejoin="round" stroke="#000000" stroke-width="0.9" fill-rule="evenodd" id="path_53"/><path fill="#000000" d="M69.55,90.38C69.55,85.82 70.74,86.19 70.74,83.76C70.74,78.71 69.55,74.4 69.55,72.14C69.55,69.88 69.76,62.47 69.76,62.47L69.66,62.45C69.47,62.46 69.28,62.47 69.1,62.47C66.34,62.47 62.51,60.81 62.51,60.81H61.5H60.49C60.49,60.81 56.66,62.47 53.9,62.47C53.72,62.47 53.53,62.46 53.34,62.45L53.24,62.47C53.24,62.47 53.45,69.88 53.45,72.14C53.45,74.4 52.26,78.71 52.26,83.76C52.26,86.19 53.45,85.82 53.45,90.38C53.45,91.98 52.22,93.11 50.63,93.11C50.63,96.78 59.21,103.68 61.5,103.68C63.79,103.68 72.37,96.78 72.37,93.11C70.78,93.11 69.55,91.98 69.55,90.38Z" fill-opacity="0" stroke-linejoin="round" stroke="#000000" stroke-width="0.9" fill-rule="evenodd" id="path_54"/><path fill="#000000" d="M72.37,93.11C73.43,90.34 75.72,87.6 75.72,87.6" fill-opacity="0" stroke-linejoin="round" stroke="#000000" stroke-width="0.9" id="path_55"/><path fill="#000000" d="M46.09,137.4C46.09,137.9 46.38,138.18 46.62,138.18C46.87,138.18 47.44,135.38 47.44,133.52C47.34,133.52 47.28,133.27 47.28,132.55C47.28,130 44.89,125.33 44.89,116.37C44.89,107.42 47.6,97.65 48.2,93.78L48.07,91.97C48.01,90.95 47.95,88.47 47.95,88.47L47.28,87.55C47.28,87.57 47.28,87.59 47.28,87.6C47.28,89.39 44.29,91.03 44.29,98.18C44.29,100.03 42.33,103.48 42.33,110.95C42.33,111.39 42.34,111.82 42.34,112.25C42.34,112.36 42.35,112.48 42.35,112.59C42.36,112.9 42.36,113.2 42.37,113.5C42.38,113.64 42.38,113.78 42.39,113.92C42.4,114.19 42.41,114.45 42.42,114.71C42.43,114.86 42.44,115.01 42.45,115.15C42.46,115.4 42.47,115.65 42.49,115.89C42.5,116.04 42.51,116.18 42.52,116.33C42.54,116.57 42.55,116.8 42.57,117.03C42.58,117.17 42.6,117.31 42.61,117.45C42.63,117.68 42.65,117.92 42.67,118.14C42.68,118.28 42.7,118.41 42.71,118.54C42.73,118.77 42.76,119 42.78,119.22C42.8,119.34 42.81,119.46 42.82,119.59C42.85,119.82 42.88,120.04 42.91,120.26C42.92,120.38 42.94,120.49 42.95,120.6C42.98,120.83 43.01,121.06 43.04,121.29C43.06,121.38 43.07,121.48 43.09,121.58C43.12,121.82 43.15,122.05 43.19,122.28C43.2,122.36 43.22,122.45 43.23,122.53C43.27,122.77 43.31,123.01 43.35,123.25C43.36,123.32 43.37,123.38 43.38,123.44C43.42,123.7 43.47,123.96 43.52,124.21C43.52,124.25 43.53,124.29 43.54,124.33C43.59,124.61 43.64,124.89 43.69,125.16C43.7,125.17 43.7,125.17 43.7,125.18C44.7,130.32 45.9,134.04 46.09,137.4L46.09,137.4Z" fill-opacity="0" stroke-linejoin="round" stroke="#000000" stroke-width="0.9" fill-rule="evenodd" id="path_56"/><path fill="#000000" d="M61.5,39.06C60.84,39.06 60.16,38.86 59.49,38.53H59.48C59.48,40.89 59.95,47.7 61.5,47.7C63.05,47.7 63.52,40.89 63.52,38.53H63.52C62.85,38.86 62.16,39.06 61.5,39.06Z" fill-opacity="0" stroke-linejoin="round" stroke="#000000" stroke-width="0.9" fill-rule="evenodd" id="path_57"/><path fill="#000000" d="M48.2,93.78C47.6,97.65 44.89,107.42 44.89,116.37C44.89,125.33 47.28,130 47.28,132.55C47.28,135.1 48.05,131.82 48.5,131.82C48.95,131.82 50.59,134.95 50.59,136.89C50.59,136.98 50.6,137.03 50.62,137.05C50.61,136.95 50.62,136.84 50.62,136.74C50.61,136.47 50.6,136.21 50.61,135.93C50.61,135.83 50.62,135.72 50.62,135.62C50.64,135.3 50.66,134.98 50.69,134.65C50.69,134.58 50.7,134.52 50.71,134.46C50.91,132.39 51.36,130.09 51.62,128.28C51.63,128.23 51.64,128.17 51.64,128.12C51.7,127.74 51.74,127.38 51.77,127.05C52.02,124.43 53.57,119.01 54.32,115.8C54.32,115.8 54.33,115.77 54.33,115.73C54.33,115.68 54.34,115.56 54.35,115.4C54.35,115.38 54.35,115.34 54.35,115.31C54.36,115.16 54.37,114.99 54.38,114.78C54.38,114.77 54.38,114.77 54.38,114.76C54.39,114.52 54.4,114.25 54.41,113.94C54.41,113.92 54.42,113.91 54.42,113.9C54.45,112.95 54.49,111.72 54.51,110.34C54.51,110.23 54.51,110.12 54.51,110.01C54.52,109.64 54.52,109.28 54.52,108.89C54.52,108.4 54.51,107.35 54.51,107.33C54.51,105 51.84,97.51 50.81,94.26C50.6,93.61 50.7,93.37 50.63,93.11C50.22,91.52 47.95,88.47 47.95,88.47L48.2,93.78Z" fill-opacity="0" stroke-linejoin="round" stroke="#000000" stroke-width="0.9" fill-rule="evenodd" id="path_58"/><path fill="#000000" d="M54.51,107.33C54.51,107.35 54.51,107.36 54.51,107.38C54.52,107.89 54.52,108.4 54.52,108.89C54.52,109.28 54.52,109.64 54.51,110.01C54.51,110.12 54.51,110.23 54.51,110.34C54.49,111.72 54.45,112.96 54.42,113.9C54.42,113.91 54.42,113.92 54.42,113.94C54.4,114.25 54.39,114.52 54.38,114.76C54.38,114.77 54.38,114.77 54.38,114.78C54.37,114.99 54.36,115.16 54.35,115.31C54.35,115.34 54.35,115.38 54.35,115.4C54.34,115.56 54.33,115.68 54.33,115.73C54.33,115.78 54.32,115.8 54.32,115.8C53.57,119.01 52.02,124.43 51.77,127.05C51.74,127.38 51.7,127.74 51.64,128.12C51.64,128.12 51.64,128.13 51.64,128.13C51.57,128.63 51.48,129.18 51.39,129.75C51.31,130.23 51.23,130.73 51.15,131.24C51.15,131.25 51.14,131.27 51.14,131.28C51.06,131.8 50.98,132.33 50.9,132.85C50.9,132.86 50.9,132.87 50.9,132.88C50.83,133.41 50.76,133.94 50.71,134.46C50.71,134.48 50.7,134.5 50.7,134.52C50.7,134.56 50.69,134.61 50.69,134.65C50.66,134.98 50.64,135.29 50.63,135.6C50.62,135.65 50.62,135.7 50.62,135.75C50.61,135.81 50.61,135.87 50.61,135.93C50.6,136.21 50.61,136.47 50.62,136.74V136.75C50.62,136.91 50.62,137.09 50.63,137.24C50.87,140.11 52.92,139.95 52.92,139.95C54.28,139.95 56.94,139.1 57.8,137.54C57.89,137.2 57.98,136.85 58.07,136.5C58.88,133.38 59.48,129.87 59.48,126.23C59.48,125.59 59.5,124.91 59.52,124.18C59.52,119.07 57.01,112.84 54.51,107.33Z" fill-opacity="0" stroke-linejoin="round" stroke="#000000" stroke-width="0.9" fill-rule="evenodd" id="path_59"/><path fill="#000000" d="M76.91,137.4C76.91,137.9 76.62,138.18 76.38,138.18C76.13,138.18 75.56,135.38 75.56,133.52C75.66,133.52 75.72,133.27 75.72,132.55C75.72,130 78.11,125.33 78.11,116.37C78.11,107.42 75.4,97.65 74.8,93.78L74.93,91.97C74.99,90.95 75.05,88.47 75.05,88.47L75.72,87.55C75.72,87.57 75.72,87.59 75.72,87.6C75.72,89.39 78.71,91.03 78.71,98.18C78.71,100.03 80.67,103.48 80.67,110.95C80.67,111.39 80.66,111.82 80.66,112.25C80.66,112.36 80.65,112.48 80.65,112.59C80.64,112.9 80.64,113.2 80.63,113.5C80.62,113.64 80.62,113.78 80.61,113.92C80.6,114.19 80.59,114.45 80.58,114.71C80.57,114.86 80.56,115.01 80.55,115.15C80.54,115.4 80.53,115.65 80.51,115.89C80.5,116.04 80.49,116.18 80.48,116.33C80.46,116.57 80.45,116.8 80.43,117.03C80.42,117.17 80.4,117.31 80.39,117.45C80.37,117.68 80.35,117.92 80.33,118.14C80.32,118.28 80.3,118.41 80.29,118.54C80.27,118.77 80.24,119 80.22,119.22C80.2,119.34 80.19,119.46 80.18,119.59C80.15,119.82 80.12,120.04 80.09,120.26C80.08,120.38 80.07,120.49 80.05,120.6C80.02,120.83 79.99,121.06 79.96,121.29C79.94,121.38 79.93,121.48 79.91,121.58C79.88,121.82 79.85,122.05 79.81,122.28C79.8,122.36 79.78,122.45 79.77,122.53C79.73,122.77 79.69,123.01 79.65,123.25C79.64,123.32 79.63,123.38 79.62,123.44C79.58,123.7 79.53,123.96 79.49,124.21C79.48,124.25 79.47,124.29 79.46,124.33C79.41,124.61 79.36,124.89 79.31,125.16C79.31,125.17 79.3,125.17 79.3,125.18C78.3,130.32 77.1,134.04 76.91,137.4L76.91,137.4Z" fill-opacity="0" stroke-linejoin="round" stroke="#000000" stroke-width="0.9" fill-rule="evenodd" id="path_60"/><path fill="#000000" d="M74.8,93.78C75.4,97.65 78.11,107.42 78.11,116.37C78.11,125.33 75.72,130 75.72,132.55C75.72,135.1 74.95,131.82 74.5,131.82C74.05,131.82 72.41,134.95 72.41,136.89C72.41,136.98 72.4,137.03 72.38,137.05C72.39,136.95 72.38,136.84 72.39,136.74C72.39,136.47 72.4,136.21 72.39,135.93C72.39,135.83 72.38,135.72 72.38,135.62C72.36,135.3 72.34,134.98 72.31,134.65C72.31,134.58 72.3,134.52 72.29,134.46C72.09,132.39 71.64,130.09 71.38,128.28C71.37,128.23 71.36,128.17 71.36,128.12C71.3,127.74 71.26,127.38 71.23,127.05C70.98,124.43 69.43,119.01 68.68,115.8C68.68,115.8 68.68,115.77 68.67,115.73C68.67,115.68 68.66,115.56 68.65,115.4C68.65,115.38 68.65,115.34 68.65,115.31C68.64,115.16 68.63,114.99 68.62,114.78C68.62,114.77 68.62,114.77 68.62,114.76C68.61,114.52 68.6,114.25 68.59,113.94C68.59,113.92 68.59,113.91 68.58,113.9C68.55,112.95 68.51,111.72 68.49,110.34C68.49,110.23 68.49,110.12 68.49,110.01C68.48,109.64 68.48,109.28 68.48,108.89C68.48,108.4 68.49,107.35 68.49,107.33C68.49,105 71.16,97.51 72.2,94.26C72.4,93.61 72.3,93.37 72.37,93.11C72.78,91.52 75.05,88.47 75.05,88.47L74.8,93.78Z" fill-opacity="0" stroke-linejoin="round" stroke="#000000" stroke-width="0.9" fill-rule="evenodd" id="path_61"/><path fill="#000000" d="M68.49,107.33C68.49,107.35 68.49,107.36 68.49,107.38C68.48,107.89 68.48,108.4 68.48,108.89C68.48,109.28 68.48,109.64 68.49,110.01C68.49,110.12 68.49,110.23 68.49,110.34C68.51,111.72 68.55,112.96 68.58,113.9C68.59,113.91 68.59,113.92 68.59,113.94C68.6,114.25 68.61,114.52 68.62,114.76C68.62,114.77 68.62,114.77 68.62,114.78C68.63,114.99 68.64,115.16 68.65,115.31C68.65,115.34 68.65,115.38 68.65,115.4C68.66,115.56 68.67,115.68 68.67,115.73C68.68,115.78 68.68,115.8 68.68,115.8C69.43,119.01 70.98,124.43 71.23,127.05C71.26,127.38 71.3,127.74 71.36,128.12C71.36,128.12 71.36,128.13 71.36,128.13C71.43,128.63 71.52,129.18 71.61,129.75C71.69,130.23 71.77,130.73 71.85,131.24C71.85,131.25 71.86,131.27 71.86,131.28C71.94,131.8 72.02,132.33 72.1,132.85C72.1,132.86 72.1,132.87 72.1,132.88C72.18,133.41 72.24,133.94 72.29,134.46C72.29,134.48 72.3,134.5 72.3,134.52C72.3,134.56 72.31,134.61 72.31,134.65C72.34,134.98 72.36,135.29 72.38,135.6C72.38,135.65 72.38,135.7 72.38,135.75C72.39,135.81 72.39,135.87 72.39,135.93C72.4,136.21 72.39,136.47 72.39,136.74V136.75C72.38,136.91 72.38,137.09 72.37,137.24C72.13,140.11 70.08,139.95 70.08,139.95C68.72,139.95 66.06,139.1 65.2,137.54C65.11,137.2 65.02,136.85 64.93,136.5C64.12,133.38 63.52,129.87 63.52,126.23C63.52,125.59 63.51,124.91 63.48,124.18C63.48,119.07 65.99,112.84 68.49,107.33Z" fill-opacity="0" stroke-linejoin="round" stroke="#000000" stroke-width="0.9" fill-rule="evenodd" id="path_62"/><path fill="#000000" d="M55.8,174.1C55.8,174.1 55.8,174.1 55.8,174.11C55.74,173.58 55.7,173.04 55.7,172.52C55.7,169.4 55.61,160.42 55.61,160.42C55.61,160.42 55.92,157.46 55.92,154.38C55.92,151.3 54.02,149.76 54.02,148.41C52.99,151.28 50.51,162.27 55.8,174.1Z" fill-opacity="0" stroke-linejoin="round" stroke="#000000" stroke-width="0.9" fill-rule="evenodd" id="path_63"/><path fill="#000000" d="M44.95,151.67C44.95,158.16 48.41,166.21 49.36,171.65C49.36,171.65 49.36,171.65 49.36,171.65C50.78,156.74 47.07,152.54 45.08,147.95C45,148.94 44.95,150.13 44.95,151.67Z" fill-opacity="0" stroke-linejoin="round" stroke="#000000" stroke-width="0.9" fill-rule="evenodd" id="path_64"/><path fill="#000000" d="M67.2,174.1C67.2,174.1 67.2,174.1 67.2,174.11C67.26,173.58 67.3,173.04 67.3,172.52C67.3,169.4 67.38,160.42 67.38,160.42C67.38,160.42 67.08,157.46 67.08,154.38C67.08,151.3 68.98,149.76 68.98,148.41C70.01,151.28 72.49,162.27 67.2,174.1Z" fill-opacity="0" stroke-linejoin="round" stroke="#000000" stroke-width="0.9" fill-rule="evenodd" id="path_65"/><path fill="#000000" d="M78.05,151.67C78.05,158.16 74.59,166.21 73.64,171.65C73.64,171.65 73.64,171.65 73.63,171.65C72.22,156.74 75.93,152.54 77.92,147.95C78,148.94 78.05,150.13 78.05,151.67Z" fill-opacity="0" stroke-linejoin="round" stroke="#000000" stroke-width="0.9" fill-rule="evenodd" id="path_66"/><path fill="#000000" d="M36.43,72.82C36.43,72.38 36.44,71.97 36.45,71.56C36.44,71.96 36.43,72.38 36.43,72.82Z" fill-opacity="0" stroke-linejoin="round" stroke="#000000" stroke-width="0.9" fill-rule="evenodd" id="path_67"/><path fill="#000000" d="M91.86,106.56C91.43,105.52 90.67,102.26 90.45,99.55C89.87,92.34 89.36,81.58 88.83,79.53C88.11,76.73 86.57,73.83 86.57,72.82C86.57,64.01 84.61,61.8 84.61,60.37C84.61,59.45 85.04,59.94 85.04,54.6C85.04,49.27 79.24,43.68 73.43,43.68L67.79,40.15V35.05H67.74C66.32,36.64 63.79,39.06 61.5,39.06C59.21,39.06 56.68,36.64 55.26,35.05H55.21V40.15L49.57,43.68C43.76,43.68 37.96,49.27 37.96,54.6C37.96,59.94 38.39,59.45 38.39,60.37C38.39,61.8 36.43,64.01 36.43,72.82C36.43,73.83 34.89,76.73 34.16,79.53C33.64,81.58 33.13,92.34 32.55,99.55C32.33,102.26 31.57,105.52 31.14,106.56C30.12,108.99 35.02,112.7 35.34,112.83C35.77,113 35.91,112.15 36.05,111.82C36.64,110.45 34.45,108.82 34.59,107.87C34.76,106.73 34.96,104.72 35.75,105.04C36.54,105.36 36.81,107.18 37.6,107.5C38.39,107.82 38.73,107.61 38.97,107.01C39.11,106.66 38.21,104.45 37.41,102.38C36.84,100.91 36.94,99.86 36.94,99.86C36.94,99.86 43.21,85.2 43.48,82.24C44.33,80.88 43.94,80.2 44.05,79.21C44.48,75.25 44.49,67.58 45.07,67.58C45.62,67.58 45.68,69.99 45.68,71.46C45.68,74.85 48.2,74.98 48.2,79.53C48.2,82.98 47.28,81.57 47.28,87.6C47.28,89.39 44.29,91.03 44.29,98.18C44.29,100.03 42.33,103.48 42.33,110.95C42.33,125.25 46.11,132.21 46.11,138.24C46.11,144.71 44.95,144.16 44.95,151.67C44.95,159.19 49.61,168.8 49.61,174.04C49.61,185.56 45.81,182.6 45.81,185.25C45.81,185.95 46.54,186.4 46.54,186.4L53.04,187.1H56.39L57.41,185.87C57.41,185.87 56.51,184.3 56.51,183.48C56.51,182.66 56.96,181.06 56.96,180.07C56.96,179.09 55.7,175.64 55.7,172.52C55.7,169.4 55.62,160.42 55.62,160.42C55.62,160.42 55.92,157.47 55.92,154.38C55.92,151.3 54.02,149.76 54.02,148.41C54.02,147.05 59.48,137.2 59.48,126.23C59.48,120.38 60.89,110.52 60.89,103.68H61.5H62.11C62.11,110.52 63.52,120.38 63.52,126.23C63.52,137.2 68.98,147.05 68.98,148.41C68.98,149.76 67.08,151.3 67.08,154.38C67.08,157.47 67.39,160.42 67.39,160.42C67.39,160.42 67.3,169.4 67.3,172.52C67.3,175.64 66.04,179.09 66.04,180.07C66.04,181.06 66.49,182.66 66.49,183.48C66.49,184.3 65.59,185.87 65.59,185.87L66.61,187.1H69.96L76.46,186.4C76.46,186.4 77.19,185.95 77.19,185.25C77.19,182.6 73.39,185.56 73.39,174.04C73.39,168.8 78.05,159.19 78.05,151.67C78.05,144.16 76.89,144.71 76.89,138.24C76.89,132.21 80.67,125.25 80.67,110.95C80.67,103.48 78.71,100.03 78.71,98.18C78.71,91.03 75.72,89.39 75.72,87.6C75.72,81.57 74.8,82.98 74.8,79.53C74.8,74.98 77.32,74.85 77.32,71.46C77.32,69.99 77.38,67.58 77.93,67.58C78.51,67.58 78.52,75.25 78.95,79.21C79.06,80.2 78.67,80.88 79.52,82.24C79.79,85.2 86.06,99.86 86.06,99.86C86.06,99.86 86.16,100.91 85.59,102.38C84.79,104.45 83.89,106.66 84.03,107.01C84.27,107.61 84.61,107.82 85.4,107.5C86.19,107.18 86.46,105.36 87.25,105.04C88.04,104.72 88.24,106.73 88.41,107.87C88.55,108.82 86.36,110.45 86.95,111.82C87.09,112.15 87.23,113 87.66,112.83C87.98,112.7 92.88,108.99 91.86,106.56Z" fill-opacity="0" stroke-linejoin="round" stroke="#000000" stroke-width="0.9" fill-rule="evenodd" id="path_68"/><path fill="#000000" d="M38.52,82.24C38.93,79.71 39.35,78.8 38.52,77.23C37.69,75.67 37.13,77.82 34.9,77.23C34.63,77.98 34.36,78.76 34.17,79.53C33.71,81.3 33.86,89.69 33.53,96.59H33.53C33.53,96.59 35.33,92.99 35.47,89.37C35.61,85.75 38.1,84.78 38.52,82.24Z" fill-opacity="0" stroke-linejoin="round" stroke="#000000" stroke-width="0.9" fill-rule="evenodd" id="path_69"/><path fill="#000000" d="M39,86.62C37.83,90.2 36.94,99.86 36.94,99.86C36.94,99.86 43.21,85.2 43.48,82.24C43.48,82.24 40.17,83.04 39,86.62Z" fill-opacity="0" stroke-linejoin="round" stroke="#000000" stroke-width="0.9" fill-rule="evenodd" id="path_70"/><path fill="#000000" d="M85.04,54.6C85.04,59.94 84.61,59.45 84.61,60.37C81.91,59.82 80.14,57.48 76.89,52C73.64,46.51 70.88,47.38 70.88,46.08C70.88,45.1 72.78,44.67 73.43,43.68C79.24,43.68 85.04,49.26 85.04,54.6Z" fill-opacity="0" stroke-linejoin="round" stroke="#000000" stroke-width="0.9" fill-rule="evenodd" id="path_71"/><path fill="#000000" d="M64.07,49.53C64.44,48.82 69.59,46.08 70.88,46.08C70.88,47.38 73.64,46.51 76.89,52C78.09,54.03 79.1,55.63 80.02,56.87C78.56,57.69 79.03,58.34 77.68,59.51C76.34,60.68 71.86,62.47 69.1,62.47C66.34,62.47 62.51,60.81 62.51,60.81V56.62C62.51,52.06 63.52,50.64 64.07,49.53Z" fill-opacity="0" stroke-linejoin="round" stroke="#000000" stroke-width="0.9" fill-rule="evenodd" id="path_72"/><path fill="#000000" d="M78.96,55.34C79.08,55.54 79.21,55.73 79.34,55.91C79.21,55.73 79.08,55.54 78.96,55.34Z" fill-opacity="0" stroke-linejoin="round" stroke="#000000" stroke-width="0.9" fill-rule="evenodd" id="path_73"/><path fill="#000000" d="M80.02,56.87C79.94,56.76 79.85,56.64 79.77,56.53C81.44,58.85 82.83,60.01 84.61,60.37C84.61,61.8 86.57,64.01 86.57,72.82C86.57,74.61 82.33,76.9 80.38,72.82C79.12,70.17 78.64,69.07 78.35,68.42C78.2,67.89 78.05,67.58 77.93,67.58C77.5,66.84 77.68,59.51 77.68,59.51C79.03,58.34 78.56,57.69 80.02,56.87Z" fill-opacity="0" stroke-linejoin="round" stroke="#000000" stroke-width="0.9" fill-rule="evenodd" id="path_74"/><path fill="#000000" d="M79.7,56.43C79.58,56.27 79.46,56.1 79.34,55.92C79.46,56.1 79.58,56.27 79.7,56.43Z" fill-opacity="0" stroke-linejoin="round" stroke="#000000" stroke-width="0.9" fill-rule="evenodd" id="path_75"/><path fill="#000000" d="M84.48,82.24C84.07,79.71 83.65,78.8 84.48,77.23C85.31,75.67 85.87,77.82 88.1,77.23C88.37,77.98 88.64,78.76 88.83,79.53C89.29,81.3 89.14,89.69 89.47,96.59H89.47C89.47,96.59 87.67,92.99 87.53,89.37C87.39,85.75 84.9,84.78 84.48,82.24Z" fill-opacity="0" stroke-linejoin="round" stroke="#000000" stroke-width="0.9" fill-rule="evenodd" id="path_76"/><path fill="#000000" d="M84,86.62C85.17,90.2 86.06,99.86 86.06,99.86C86.06,99.86 79.78,85.2 79.52,82.24C79.52,82.24 82.83,83.04 84,86.62Z" fill-opacity="0" stroke-linejoin="round" stroke="#000000" stroke-width="0.9" fill-rule="evenodd" id="path_77"/><path fill="#000000" d="M53.41,25.02C53.41,24.32 52.41,24.12 51.76,24.12C51.1,24.12 50.85,25.13 51.35,27.51C51.86,29.88 53.86,30.57 53.86,30.57L53.41,25.02Z" fill-opacity="0" stroke-linejoin="round" stroke="#000000" stroke-width="0.9" fill-rule="evenodd" id="path_78"/><path fill="#000000" d="M69.59,25.02C69.59,24.32 70.59,24.12 71.24,24.12C71.9,24.12 72.15,25.13 71.65,27.51C71.14,29.88 69.14,30.57 69.14,30.57L69.59,25.02Z" fill-opacity="0" stroke-linejoin="round" stroke="#000000" stroke-width="0.9" fill-rule="evenodd" id="path_79"/><path fill="#ffffff" d="M177.38,106.76C176.21,103.84 174.68,101.9 174.45,99.11C174.23,96.32 172.28,87.92 171.55,85.11C170.82,82.3 167.19,76.6 167.19,75.6C167.19,66.77 166.16,61.49 166.16,60.06C166.16,59.13 166.59,59.63 166.59,54.28C166.59,50.43 163.56,46.46 159.68,44.53C159.67,44.52 159.67,44.52 159.66,44.52C159.49,44.43 159.31,44.35 159.14,44.28C159.08,44.25 159.02,44.23 158.97,44.2C158.84,44.15 158.71,44.1 158.59,44.05C158.51,44.02 158.44,44 158.37,43.97C158.26,43.93 158.14,43.89 158.02,43.85C157.95,43.83 157.87,43.8 157.79,43.78C157.68,43.75 157.57,43.71 157.45,43.68C157.37,43.66 157.29,43.64 157.21,43.62C157.1,43.6 156.98,43.57 156.87,43.55C156.79,43.53 156.71,43.51 156.63,43.5C156.51,43.48 156.4,43.46 156.28,43.44C156.2,43.43 156.13,43.42 156.05,43.41C155.92,43.39 155.79,43.38 155.66,43.37C155.59,43.37 155.53,43.36 155.47,43.35C155.27,43.34 155.08,43.33 154.88,43.33L147.81,39.18L148.13,36.06C148.13,36.06 146.55,31.17 142.84,31.17C139.13,31.17 137.55,36.06 137.55,36.06L137.87,39.18L130.8,43.33C130.61,43.33 130.41,43.34 130.22,43.35C130.15,43.36 130.09,43.37 130.02,43.37C129.89,43.38 129.76,43.39 129.63,43.41C129.56,43.42 129.48,43.43 129.41,43.44C129.29,43.46 129.17,43.48 129.05,43.5C128.97,43.51 128.89,43.53 128.81,43.55C128.7,43.57 128.58,43.6 128.47,43.62C128.39,43.64 128.31,43.66 128.23,43.68C128.12,43.71 128,43.75 127.89,43.78C127.81,43.8 127.74,43.83 127.66,43.85C127.54,43.89 127.43,43.93 127.31,43.97C127.24,44 127.17,44.02 127.1,44.05C126.97,44.1 126.84,44.15 126.72,44.2C126.66,44.23 126.6,44.25 126.54,44.28C126.37,44.35 126.2,44.43 126.03,44.52C126.02,44.52 126.01,44.52 126,44.53H126C122.12,46.46 119.09,50.43 119.09,54.28C119.09,59.63 119.53,59.13 119.53,60.06C119.53,61.49 118.5,66.77 118.5,75.6C118.5,76.6 114.86,82.3 114.13,85.11C113.4,87.92 111.45,96.32 111.23,99.11C111,101.9 109.47,103.84 108.3,106.76C106.76,110.59 111.64,112.68 111.99,112.82C112.45,113.01 112.96,113 113.11,112.65C113.75,111.18 110.4,109.23 111,108.17C111.61,107.09 112.65,105.89 113.5,106.23C114.35,106.57 113.94,109.27 114.8,109.61C115.65,109.95 116.01,109.73 116.27,109.08C116.53,108.44 116.41,103.4 115.12,102.88C115.77,101.99 116.18,101.38 116.18,101.38C116.18,101.38 119.54,96.04 121.03,93.94C122.51,91.85 125.16,83.94 125.43,80.98C126.19,79.87 125.32,78.73 125.65,77.79C126.97,74.06 126.91,69.83 127.5,69.83C128.05,69.83 129.42,74.68 129.42,79.25C129.42,82.71 128.49,81.29 128.49,87.33C128.49,89.12 125.48,90.77 125.48,97.93C125.48,99.78 123.5,103.24 123.5,110.72C123.5,125.04 129.91,134.08 129.91,140.12C129.91,146.6 128.15,144.75 128.15,152.28C128.15,159.81 133.29,169.67 133.29,174.91C133.29,185.46 126.68,179.82 126.68,183.04C126.68,183.74 128.51,184.73 128.51,184.73L133.49,186.68L136.81,187C138.28,187 139.67,186.49 139.67,183.92C139.67,183.1 139.6,181.03 139.6,180.04C139.6,179.05 138.5,176.21 138.5,173.08C138.5,169.96 138.72,161.15 138.72,161.15C138.72,161.15 140.26,156.83 140.26,153.75C140.26,150.66 138.57,145.8 138.57,144.45C138.57,143.09 140.8,139.61 140.8,126.03C140.8,120.17 142.22,110.29 142.22,103.44H142.84H143.46C143.46,110.29 144.88,120.17 144.88,126.03C144.88,139.61 147.11,143.09 147.11,144.45C147.11,145.8 145.42,150.66 145.42,153.75C145.42,156.83 146.96,161.15 146.96,161.15C146.96,161.15 147.18,169.96 147.18,173.08C147.18,176.21 146.08,179.05 146.08,180.04C146.08,181.03 146.01,183.1 146.01,183.92C146.01,186.49 147.4,187 148.87,187L152.19,186.68L157.17,184.73C157.17,184.73 159,183.74 159,183.04C159,179.82 152.4,185.46 152.4,174.91C152.4,169.67 157.54,159.81 157.54,152.28C157.54,144.75 155.77,146.6 155.77,140.12C155.77,134.08 162.18,125.04 162.18,110.72C162.18,103.24 160.2,99.78 160.2,97.93C160.2,90.77 157.19,89.12 157.19,87.33C157.19,81.29 156.26,82.71 156.26,79.25C156.26,74.68 157.63,69.83 158.19,69.83C158.77,69.83 158.71,74.06 160.03,77.79C160.36,78.73 159.49,79.87 160.25,80.98C160.52,83.94 163.17,91.85 164.65,93.94C166.14,96.04 169.5,101.38 169.5,101.38C169.5,101.38 169.91,101.99 170.56,102.88C169.27,103.4 169.15,108.44 169.41,109.08C169.67,109.73 170.04,109.95 170.89,109.61C171.74,109.27 171.33,106.57 172.18,106.23C173.03,105.89 174.07,107.09 174.68,108.17C175.29,109.23 171.93,111.18 172.57,112.65C172.72,113 173.23,113.01 173.69,112.82C174.04,112.68 178.92,110.59 177.38,106.76Z" fill-rule="evenodd" id="path_80"/><path fill="#ffffff" d="M128.49,87.33C128.49,89.12 125.48,90.77 125.48,97.93C125.48,99.78 123.5,103.24 123.5,110.72C123.5,115.38 124.18,119.47 125.1,123.09C126.68,116.98 128.69,110.6 133.24,110.01C137.79,109.43 142.84,102.04 142.84,99.55C142.84,99.55 133.97,87.54 133.97,86.22C133.97,84.9 130.89,85.96 128.49,87.33Z" fill-rule="evenodd" id="path_81"/><path fill="#ffffff" d="M128.64,113.46C128.91,115.7 129.18,119.11 129.18,124.05C129.18,128.64 129.03,132.08 128.8,134.64C129.46,136.71 129.91,138.52 129.91,140.12C129.91,140.14 129.91,140.16 129.91,140.18C131.7,135.93 133.17,129.4 133.17,123.09C133.17,113.5 133.24,110.01 133.24,110.01C131.3,110.26 129.82,111.57 128.64,113.46Z" fill-rule="evenodd" id="path_82"/><path fill="#ffffff" d="M140.27,104.83C138.39,107.32 135.74,109.69 133.24,110.01C133.22,110.01 133.21,110.02 133.19,110.02C133.21,112.19 133.24,116.03 133.24,118.88C133.24,123.09 136.88,130.53 136.88,133.06C136.88,135.58 136.55,136.02 136.88,136.79C137.21,137.56 138.06,141.44 138.31,142.94C138.38,143.35 138.5,143.67 138.64,143.93C139.02,142.23 140.8,138.16 140.8,126.03C140.8,122.62 141.28,117.86 141.68,113.12C140.91,110.63 140.07,107.25 140.27,104.83Z" fill-rule="evenodd" id="path_83"/><path fill="#ffffff" d="M134.13,141.74C134.13,138.99 132.92,136.46 132.37,138.11C131.82,139.76 130.5,141.85 129.72,143.21C129.28,146.1 128.25,146.29 128.16,151.51C128.16,151.77 128.16,152.03 128.15,152.28C128.15,152.45 128.15,152.62 128.16,152.79C128.39,156.17 131.89,163.02 133.17,162.51C134.53,161.96 135.12,160.19 134.9,156.79C134.68,153.38 134.13,144.48 134.13,141.74Z" fill-rule="evenodd" id="path_84"/><path fill="#ffffff" d="M138.57,144.45C138.57,144.3 138.6,144.13 138.64,143.93C138.51,143.67 138.38,143.35 138.32,142.94C138.06,141.44 137.21,137.56 136.88,136.79C136.55,136.02 136.28,134.22 135.6,135.57C134.91,136.93 134.14,138.48 133.8,139.24C133.8,139.24 133.8,139.24 133.8,139.24C134,139.96 134.13,140.83 134.13,141.74C134.13,144.48 134.68,153.38 134.9,156.79C134.9,156.79 136.15,161.66 137.44,161.4C137.77,161.33 138.23,161.26 138.72,161.2C138.72,161.17 138.72,161.15 138.72,161.15C138.72,161.15 140.26,156.83 140.26,153.75C140.26,150.66 138.57,145.8 138.57,144.45Z" fill-rule="evenodd" id="path_85"/><path fill="#ffffff" d="M126,44.53C122.93,45.82 119.09,50.25 119.09,54.28C119.09,59.63 119.53,59.13 119.53,60.06C119.53,60.57 119.39,61.59 119.22,63.09C121.25,60.87 124.44,58.35 127.52,56.92C130.6,55.49 129.46,52.7 133.17,51.24C131.17,48.24 127.64,45.78 126,44.53Z" fill-rule="evenodd" id="path_86"/><path fill="#ffffff" d="M119.49,59.65C119.48,59.61 119.47,59.57 119.46,59.53C119.47,59.57 119.48,59.61 119.49,59.65Z" fill-rule="evenodd" id="path_87"/><path fill="#ffffff" d="M119.53,60.06C119.53,60.14 119.52,60.23 119.52,60.34C119.52,60.23 119.53,60.14 119.53,60.06Z" fill-rule="evenodd" id="path_88"/><path fill="#ffffff" d="M119.49,59.66C119.5,59.69 119.5,59.73 119.51,59.77C119.5,59.73 119.5,59.69 119.49,59.66Z" fill-rule="evenodd" id="path_89"/><path fill="#ffffff" d="M119.52,59.91C119.52,59.95 119.53,60 119.53,60.06C119.53,60 119.52,59.95 119.52,59.91Z" fill-rule="evenodd" id="path_90"/><path fill="#ffffff" d="M119.51,59.78C119.51,59.82 119.52,59.86 119.52,59.9C119.52,59.86 119.51,59.82 119.51,59.78Z" fill-rule="evenodd" id="path_91"/><path fill="#FF8303" d="M119.22,63.09C118.92,65.76 118.5,69.95 118.5,75.6C118.5,75.76 118.4,76.03 118.25,76.39C119.44,78.03 120.95,79.66 122.24,79.66C123.37,79.66 124.61,78.8 125.62,77.91C125.63,77.87 125.64,77.83 125.65,77.79C126.97,74.06 126.91,69.83 127.5,69.83C127.6,69.83 127.73,70 127.88,70.3C128.04,67.41 127.79,61.71 126.13,57.63C123.51,59.1 120.94,61.21 119.22,63.09Z" fill-rule="evenodd" id="path_92"/><path fill="#ffffff" d="M119.22,63.08C119.3,62.38 119.37,61.79 119.43,61.3C119.37,61.78 119.3,62.38 119.22,63.08Z" fill-rule="evenodd" id="path_93"/><path fill="#ffffff" d="M119.49,60.72C119.5,60.62 119.5,60.52 119.51,60.44C119.5,60.52 119.5,60.62 119.49,60.72Z" fill-rule="evenodd" id="path_94"/><path fill="#ffffff" d="M119.48,60.81C119.46,60.95 119.45,61.1 119.43,61.26C119.45,61.1 119.46,60.95 119.48,60.81Z" fill-rule="evenodd" id="path_95"/><path fill="#ffffff" d="M112.81,98.98C112.34,97.93 112.68,91.04 113.15,89.1C113.62,87.15 116.8,81.97 118.25,81.2C119.71,80.43 120.37,87.68 119.71,89.66C119.04,91.64 116.18,101.38 116.18,101.38C116.18,101.38 113.27,100.02 112.81,98.98Z" fill-rule="evenodd" id="path_96"/><path fill="#ffffff" d="M172.87,98.98C173.34,97.93 173,91.04 172.53,89.1C172.06,87.15 168.88,81.97 167.43,81.2C165.98,80.43 165.32,87.68 165.98,89.66C166.64,91.64 169.5,101.38 169.5,101.38C169.5,101.38 172.41,100.02 172.87,98.98Z" fill-rule="evenodd" id="path_97"/><path fill="#ffffff" d="M119.71,89.66C119.24,91.17 118.31,94.24 117.45,97.1C116.76,99.43 116.18,101.38 116.18,101.38C116.18,101.38 119.54,96.04 121.03,93.94C122.51,91.85 125.16,83.94 125.43,80.98C124.11,82.52 120.72,86.38 119.71,89.66Z" fill-rule="evenodd" id="path_98"/><path fill="#ffffff" d="M135.34,56.37C134.78,53.88 134.04,52.66 133.17,51.24C129.78,52.39 130.61,55.49 127.53,56.92C127.06,57.13 126.6,57.38 126.13,57.63C127.96,59.45 129.4,60.73 130.94,61.3C132.48,61.86 135.23,61.74 136.72,61.03C136.15,59.4 135.66,57.8 135.34,56.37Z" fill-rule="evenodd" id="path_99"/><path fill="#ffffff" d="M136.72,61.03C135.23,61.74 132.48,61.86 130.94,61.3C129.4,60.73 127.96,59.45 126.13,57.63C127.79,61.71 128.04,67.41 127.88,70.3C127.86,70.27 129.05,73.95 129.31,76.94C130.94,79.08 133.24,82.85 133.24,82.85C138.16,76.79 140.07,74.5 141.62,72.01C140.05,69.02 138.31,65.57 136.72,61.03Z" fill-rule="evenodd" id="path_100"/><path fill="#ffffff" d="M140.27,104.83C140.26,104.84 140.26,104.85 140.25,104.86C140.2,104.93 140.14,104.99 140.09,105.06C140,105.17 139.91,105.29 139.82,105.4C139.76,105.47 139.71,105.54 139.65,105.61C139.55,105.73 139.45,105.85 139.34,105.97C139.29,106.02 139.25,106.08 139.2,106.13C138.88,106.49 138.55,106.83 138.21,107.16C138.19,107.19 138.16,107.21 138.13,107.24C137.98,107.38 137.83,107.52 137.67,107.66C137.65,107.68 137.62,107.71 137.59,107.73C137.23,108.05 136.85,108.35 136.47,108.62C136.85,111.47 137.69,114.9 138.53,115.92C139.21,116.73 140.19,112.78 140.73,109.49C140.38,107.85 140.16,106.19 140.27,104.83Z" fill-rule="evenodd" id="path_101"/><path fill="#ffffff" d="M157.19,87.33C157.19,89.12 160.2,90.77 160.2,97.93C160.2,99.78 162.18,103.24 162.18,110.72C162.18,115.38 161.5,119.47 160.59,123.09C159,116.98 156.99,110.6 152.44,110.01C147.89,109.43 142.84,102.04 142.84,99.55C142.84,99.55 151.71,87.54 151.71,86.22C151.71,84.9 154.79,85.96 157.19,87.33Z" fill-rule="evenodd" id="path_102"/><path fill="#ffffff" d="M157.05,113.46C156.77,115.7 156.51,119.11 156.51,124.05C156.51,128.64 156.65,132.08 156.89,134.64C156.23,136.71 155.77,138.52 155.77,140.12C155.77,140.14 155.77,140.16 155.77,140.18C153.98,135.93 152.51,129.4 152.51,123.09C152.51,113.5 152.44,110.01 152.44,110.01C154.38,110.26 155.86,111.57 157.05,113.46Z" fill-rule="evenodd" id="path_103"/><path fill="#ffffff" d="M145.41,104.83C147.29,107.32 149.94,109.69 152.44,110.01C152.46,110.01 152.48,110.02 152.49,110.02C152.47,112.19 152.44,116.03 152.44,118.88C152.44,123.09 148.8,130.53 148.8,133.06C148.8,135.58 149.13,136.02 148.8,136.79C148.47,137.56 147.63,141.44 147.37,142.94C147.3,143.35 147.18,143.67 147.04,143.93C146.66,142.23 144.88,138.16 144.88,126.03C144.88,122.62 144.4,117.86 144,113.12C144.77,110.63 145.61,107.25 145.41,104.83Z" fill-rule="evenodd" id="path_104"/><path fill="#ffffff" d="M151.55,141.74C151.55,138.99 152.76,136.46 153.31,138.11C153.86,139.76 155.19,141.85 155.96,143.21C156.4,146.1 157.43,146.29 157.53,151.51C157.52,151.77 157.52,152.03 157.53,152.28C157.53,152.45 157.53,152.62 157.52,152.79C157.3,156.17 153.8,163.02 152.51,162.51C151.15,161.96 150.56,160.19 150.78,156.79C151,153.38 151.55,144.48 151.55,141.74Z" fill-rule="evenodd" id="path_105"/><path fill="#ffffff" d="M147.11,144.45C147.11,144.3 147.09,144.13 147.04,143.93C147.18,143.67 147.3,143.35 147.37,142.94C147.63,141.44 148.47,137.56 148.8,136.79C149.13,136.02 149.4,134.22 150.09,135.57C150.77,136.93 151.55,138.48 151.88,139.24C151.88,139.24 151.88,139.24 151.88,139.24C151.68,139.96 151.55,140.83 151.55,141.74C151.55,144.48 151,153.38 150.78,156.79C150.78,156.79 149.53,161.66 148.25,161.4C147.91,161.33 147.45,161.26 146.97,161.2C146.97,161.17 146.96,161.15 146.96,161.15C146.96,161.15 145.42,156.83 145.42,153.75C145.42,150.66 147.11,145.8 147.11,144.45Z" fill-rule="evenodd" id="path_106"/><path fill="#ffffff" d="M159.68,44.53C162.76,45.82 166.59,50.25 166.59,54.28C166.59,59.63 166.16,59.13 166.16,60.06C166.16,60.57 166.29,61.59 166.46,63.09C164.43,60.87 161.24,58.35 158.16,56.92C155.08,55.49 156.22,52.7 152.51,51.24C154.51,48.24 158.04,45.78 159.68,44.53Z" fill-rule="evenodd" id="path_107"/><path fill="#ffffff" d="M166.2,59.65C166.2,59.61 166.21,59.57 166.22,59.53C166.21,59.57 166.2,59.61 166.2,59.65Z" fill-rule="evenodd" id="path_108"/><path fill="#ffffff" d="M166.16,60.06C166.16,60.14 166.16,60.23 166.17,60.34C166.16,60.23 166.16,60.14 166.16,60.06Z" fill-rule="evenodd" id="path_109"/><path fill="#ffffff" d="M166.19,59.66C166.19,59.69 166.18,59.73 166.17,59.77C166.18,59.73 166.19,59.69 166.19,59.66Z" fill-rule="evenodd" id="path_110"/><path fill="#ffffff" d="M166.16,59.91C166.16,59.95 166.16,60 166.16,60.06C166.16,60 166.16,59.95 166.16,59.91Z" fill-rule="evenodd" id="path_111"/><path fill="#ffffff" d="M166.17,59.78C166.17,59.82 166.16,59.86 166.16,59.9C166.16,59.86 166.17,59.82 166.17,59.78Z" fill-rule="evenodd" id="path_112"/><path fill="#FF8303" d="M166.46,63.09C166.76,65.76 167.19,69.95 167.19,75.6C167.19,75.76 167.28,76.03 167.43,76.39C166.24,78.03 164.74,79.66 163.44,79.66C162.31,79.66 161.07,78.8 160.06,77.91C160.05,77.87 160.04,77.83 160.03,77.79C158.71,74.06 158.77,69.83 158.19,69.83C158.08,69.83 157.95,70 157.8,70.3C157.64,67.41 157.89,61.71 159.55,57.63C162.17,59.1 164.74,61.21 166.46,63.09Z" fill-rule="evenodd" id="path_113"/><path fill="#ffffff" d="M166.46,63.08C166.38,62.38 166.31,61.79 166.26,61.3C166.31,61.78 166.38,62.38 166.46,63.08Z" fill-rule="evenodd" id="path_114"/><path fill="#ffffff" d="M166.2,60.72C166.19,60.62 166.18,60.52 166.17,60.44C166.18,60.52 166.19,60.62 166.2,60.72Z" fill-rule="evenodd" id="path_115"/><path fill="#ffffff" d="M166.21,60.81C166.22,60.95 166.23,61.1 166.25,61.26C166.23,61.1 166.22,60.95 166.21,60.81Z" fill-rule="evenodd" id="path_116"/><path fill="#ffffff" d="M165.98,89.66C166.44,91.17 167.37,94.24 168.23,97.1C168.93,99.43 169.5,101.38 169.5,101.38C169.5,101.38 166.14,96.04 164.65,93.94C163.17,91.85 160.52,83.94 160.25,80.98C161.57,82.52 164.96,86.38 165.98,89.66Z" fill-rule="evenodd" id="path_117"/><path fill="#ffffff" d="M150.34,56.37C150.9,53.88 151.64,52.66 152.51,51.24C155.9,52.39 155.08,55.49 158.16,56.92C158.62,57.13 159.09,57.38 159.55,57.63C157.72,59.45 156.28,60.73 154.74,61.3C153.2,61.86 150.45,61.74 148.96,61.03C149.54,59.4 150.02,57.8 150.34,56.37Z" fill-rule="evenodd" id="path_118"/><path fill="#ffffff" d="M152.44,82.85C150.89,80.87 143.85,72.39 144.07,72.01C144.07,72.01 144.07,72.01 144.07,72C143.56,72.87 143.13,73.48 142.84,73.73C142.55,73.48 142.12,72.87 141.62,72C141.62,72.01 141.62,72.01 141.62,72.01C141.84,72.39 134.79,80.87 133.24,82.85C133.24,82.85 134.13,84.61 133.97,86.22C133.97,87.54 142.84,99.55 142.84,99.55C142.84,99.55 151.71,87.54 151.71,86.22C151.55,84.61 152.44,82.85 152.44,82.85Z" fill-rule="evenodd" id="path_119"/><path fill="#ffffff" d="M148.97,61.03C150.45,61.74 153.21,61.86 154.74,61.3C156.28,60.73 157.72,59.45 159.55,57.63C157.89,61.71 157.64,67.41 157.8,70.3C157.82,70.27 156.63,73.95 156.37,76.94C154.74,79.08 152.44,82.85 152.44,82.85C147.52,76.79 145.61,74.5 144.07,72.01C145.63,69.02 147.37,65.57 148.97,61.03Z" fill-rule="evenodd" id="path_120"/><path fill="#ffffff" d="M145.41,104.83C145.42,104.84 145.43,104.85 145.43,104.86C145.49,104.93 145.54,104.99 145.59,105.06C145.68,105.17 145.77,105.29 145.86,105.4C145.92,105.47 145.98,105.54 146.03,105.61C146.13,105.73 146.24,105.85 146.34,105.97C146.39,106.02 146.43,106.08 146.48,106.13C146.8,106.49 147.13,106.83 147.47,107.16C147.5,107.19 147.52,107.21 147.55,107.24C147.7,107.38 147.86,107.52 148.01,107.66C148.04,107.68 148.06,107.71 148.09,107.73C148.46,108.05 148.83,108.35 149.21,108.62C148.83,111.47 147.99,114.9 147.15,115.92C146.48,116.73 145.49,112.78 144.96,109.49C145.3,107.85 145.52,106.19 145.41,104.83Z" fill-rule="evenodd" id="path_121"/><path fill="#ffffff" d="M154.88,43.33L147.81,39.18L148.13,36.06C148.13,36.06 146.55,31.17 142.84,31.17C139.13,31.17 137.55,36.06 137.55,36.06L137.87,39.18L130.8,43.33C129.16,43.33 127.51,43.78 126,44.53C129.51,47.25 133.91,50 135.34,56.37C136.77,62.74 141.42,72.52 142.84,73.73C144.26,72.52 148.91,62.74 150.34,56.37C151.77,50 156.18,47.25 159.68,44.53C158.17,43.78 156.52,43.33 154.88,43.33Z" fill-rule="evenodd" id="path_122"/><path fill="#ffffff" d="M152.61,24.11C152.02,24.11 151.14,24.28 150.98,24.83C151.12,22.97 151.21,21.32 151.21,20.5C151.21,17.93 148.42,13 142.84,13C137.26,13 134.47,17.93 134.47,20.5C134.47,21.32 134.57,22.97 134.7,24.83C134.54,24.28 133.67,24.11 133.07,24.11C132.41,24.11 132.16,25.12 132.67,27.49C133.14,29.7 134.93,30.45 135.16,30.54C135.32,32.36 135.43,33.67 135.43,33.67C135.43,33.67 136.29,34.83 137.55,36.06V36.06C137.55,36.06 139.13,31.17 142.84,31.17C146.55,31.17 148.13,36.06 148.13,36.06V36.06C149.39,34.83 150.25,33.67 150.25,33.67C150.25,33.67 150.37,32.36 150.52,30.54C150.76,30.45 152.54,29.7 153.02,27.49C153.52,25.12 153.27,24.11 152.61,24.11Z" fill-rule="evenodd" id="path_123"/><path fill="#000000" d="M128.49,87.33C128.49,89.12 125.48,90.77 125.48,97.93C125.48,99.78 123.5,103.24 123.5,110.72C123.5,115.38 124.18,119.47 125.1,123.09C126.68,116.98 128.69,110.6 133.24,110.01C137.79,109.43 142.84,102.04 142.84,99.55C142.84,99.55 133.97,87.54 133.97,86.22C133.97,84.9 130.89,85.96 128.49,87.33Z" fill-opacity="0" stroke-linejoin="round" stroke="#000000" stroke-width="0.9" fill-rule="evenodd" id="path_124"/><path fill="#000000" d="M128.64,113.46C128.91,115.7 129.18,119.11 129.18,124.05C129.18,128.64 129.03,132.08 128.8,134.64C129.46,136.71 129.91,138.52 129.91,140.12C129.91,140.14 129.91,140.16 129.91,140.18C131.7,135.93 133.17,129.4 133.17,123.09C133.17,113.5 133.24,110.01 133.24,110.01C131.3,110.26 129.82,111.57 128.64,113.46Z" fill-opacity="0" stroke-linejoin="round" stroke="#000000" stroke-width="0.9" fill-rule="evenodd" id="path_125"/><path fill="#000000" d="M140.27,104.83C138.39,107.32 135.74,109.69 133.24,110.01C133.22,110.01 133.21,110.02 133.19,110.02C133.21,112.19 133.24,116.03 133.24,118.88C133.24,123.09 136.88,130.53 136.88,133.06C136.88,135.58 136.55,136.02 136.88,136.79C137.21,137.56 138.06,141.44 138.31,142.94C138.38,143.35 138.5,143.67 138.64,143.93C139.02,142.23 140.8,138.16 140.8,126.03C140.8,122.62 141.28,117.86 141.68,113.12C140.91,110.63 140.07,107.25 140.27,104.83Z" fill-opacity="0" stroke-linejoin="round" stroke="#000000" stroke-width="0.9" fill-rule="evenodd" id="path_126"/><path fill="#000000" d="M134.13,141.74C134.13,138.99 132.92,136.46 132.37,138.11C131.82,139.76 130.5,141.85 129.72,143.21C129.28,146.1 128.25,146.29 128.16,151.51C128.16,151.77 128.16,152.03 128.15,152.28C128.15,152.45 128.15,152.62 128.16,152.79C128.39,156.17 131.89,163.02 133.17,162.51C134.53,161.96 135.12,160.19 134.9,156.79C134.68,153.38 134.13,144.48 134.13,141.74Z" fill-opacity="0" stroke-linejoin="round" stroke="#000000" stroke-width="0.9" fill-rule="evenodd" id="path_127"/><path fill="#000000" d="M138.57,144.45C138.57,144.3 138.6,144.13 138.64,143.93C138.51,143.67 138.38,143.35 138.32,142.94C138.06,141.44 137.21,137.56 136.88,136.79C136.55,136.02 136.28,134.22 135.6,135.57C134.91,136.93 134.14,138.48 133.8,139.24C133.8,139.24 133.8,139.24 133.8,139.24C134,139.96 134.13,140.83 134.13,141.74C134.13,144.48 134.68,153.38 134.9,156.79C134.9,156.79 136.15,161.66 137.44,161.4C137.77,161.33 138.23,161.26 138.72,161.2C138.72,161.17 138.72,161.15 138.72,161.15C138.72,161.15 140.26,156.83 140.26,153.75C140.26,150.66 138.57,145.8 138.57,144.45Z" fill-opacity="0" stroke-linejoin="round" stroke="#000000" stroke-width="0.9" fill-rule="evenodd" id="path_128"/><path fill="#000000" d="M126,44.53C122.93,45.82 119.09,50.25 119.09,54.28C119.09,59.63 119.53,59.13 119.53,60.06C119.53,60.57 119.39,61.59 119.22,63.09C121.25,60.87 124.44,58.35 127.52,56.92C130.6,55.49 129.46,52.7 133.17,51.24C131.17,48.24 127.64,45.78 126,44.53Z" fill-opacity="0" stroke-linejoin="round" stroke="#000000" stroke-width="0.9" fill-rule="evenodd" id="path_129"/><path fill="#000000" d="M119.49,59.65C119.48,59.61 119.47,59.57 119.46,59.53C119.47,59.57 119.48,59.61 119.49,59.65Z" fill-opacity="0" stroke-linejoin="round" stroke="#000000" stroke-width="0.9" fill-rule="evenodd" id="path_130"/><path fill="#000000" d="M119.53,60.06C119.53,60.14 119.52,60.23 119.52,60.34C119.52,60.23 119.53,60.14 119.53,60.06Z" fill-opacity="0" stroke-linejoin="round" stroke="#000000" stroke-width="0.9" fill-rule="evenodd" id="path_131"/><path fill="#000000" d="M119.49,59.66C119.5,59.69 119.5,59.73 119.51,59.77C119.5,59.73 119.5,59.69 119.49,59.66Z" fill-opacity="0" stroke-linejoin="round" stroke="#000000" stroke-width="0.9" fill-rule="evenodd" id="path_132"/><path fill="#000000" d="M119.52,59.91C119.52,59.95 119.53,60 119.53,60.06C119.53,60 119.52,59.95 119.52,59.91Z" fill-opacity="0" stroke-linejoin="round" stroke="#000000" stroke-width="0.9" fill-rule="evenodd" id="path_133"/><path fill="#000000" d="M119.51,59.78C119.51,59.82 119.52,59.86 119.52,59.9C119.52,59.86 119.51,59.82 119.51,59.78Z" fill-opacity="0" stroke-linejoin="round" stroke="#000000" stroke-width="0.9" fill-rule="evenodd" id="path_134"/><path fill="#000000" d="M119.22,63.09C118.92,65.76 118.5,69.95 118.5,75.6C118.5,75.76 118.4,76.03 118.25,76.39C119.44,78.03 120.95,79.66 122.24,79.66C123.37,79.66 124.61,78.8 125.62,77.91C125.63,77.87 125.64,77.83 125.65,77.79C126.97,74.06 126.91,69.83 127.5,69.83C127.6,69.83 127.73,70 127.88,70.3C128.04,67.41 127.79,61.71 126.13,57.63C123.51,59.1 120.94,61.21 119.22,63.09Z" fill-opacity="0" stroke-linejoin="round" stroke="#000000" stroke-width="0.9" fill-rule="evenodd" id="path_135"/><path fill="#000000" d="M119.22,63.08C119.3,62.38 119.37,61.79 119.43,61.3C119.37,61.78 119.3,62.38 119.22,63.08Z" fill-opacity="0" stroke-linejoin="round" stroke="#000000" stroke-width="0.9" fill-rule="evenodd" id="path_136"/><path fill="#000000" d="M119.49,60.72C119.5,60.62 119.5,60.52 119.51,60.44C119.5,60.52 119.5,60.62 119.49,60.72Z" fill-opacity="0" stroke-linejoin="round" stroke="#000000" stroke-width="0.9" fill-rule="evenodd" id="path_137"/><path fill="#000000" d="M119.48,60.81C119.46,60.95 119.45,61.1 119.43,61.26C119.45,61.1 119.46,60.95 119.48,60.81Z" fill-opacity="0" stroke-linejoin="round" stroke="#000000" stroke-width="0.9" fill-rule="evenodd" id="path_138"/><path fill="#000000" d="M112.81,98.98C112.34,97.93 112.68,91.04 113.15,89.1C113.62,87.15 116.8,81.97 118.25,81.2C119.71,80.43 120.37,87.68 119.71,89.66C119.04,91.64 116.18,101.38 116.18,101.38C116.18,101.38 113.27,100.02 112.81,98.98Z" fill-opacity="0" stroke-linejoin="round" stroke="#000000" stroke-width="0.9" fill-rule="evenodd" id="path_139"/><path fill="#000000" d="M172.87,98.98C173.34,97.93 173,91.04 172.53,89.1C172.06,87.15 168.88,81.97 167.43,81.2C165.98,80.43 165.32,87.68 165.98,89.66C166.64,91.64 169.5,101.38 169.5,101.38C169.5,101.38 172.41,100.02 172.87,98.98Z" fill-opacity="0" stroke-linejoin="round" stroke="#000000" stroke-width="0.9" fill-rule="evenodd" id="path_140"/><path fill="#000000" d="M119.71,89.66C119.24,91.17 118.31,94.24 117.45,97.1C116.76,99.43 116.18,101.38 116.18,101.38C116.18,101.38 119.54,96.04 121.03,93.94C122.51,91.85 125.16,83.94 125.43,80.98C124.11,82.52 120.72,86.38 119.71,89.66Z" fill-opacity="0" stroke-linejoin="round" stroke="#000000" stroke-width="0.9" fill-rule="evenodd" id="path_141"/><path fill="#000000" d="M135.34,56.37C134.78,53.88 134.04,52.66 133.17,51.24C129.78,52.39 130.61,55.49 127.53,56.92C127.06,57.13 126.6,57.38 126.13,57.63C127.96,59.45 129.4,60.73 130.94,61.3C132.48,61.86 135.23,61.74 136.72,61.03C136.15,59.4 135.66,57.8 135.34,56.37Z" fill-opacity="0" stroke-linejoin="round" stroke="#000000" stroke-width="0.9" fill-rule="evenodd" id="path_142"/><path fill="#000000" d="M136.72,61.03C135.23,61.74 132.48,61.86 130.94,61.3C129.4,60.73 127.96,59.45 126.13,57.63C127.79,61.71 128.04,67.41 127.88,70.3C127.86,70.27 129.05,73.95 129.31,76.94C130.94,79.08 133.24,82.85 133.24,82.85C138.16,76.79 140.07,74.5 141.62,72.01C140.05,69.02 138.31,65.57 136.72,61.03Z" fill-opacity="0" stroke-linejoin="round" stroke="#000000" stroke-width="0.9" fill-rule="evenodd" id="path_143"/><path fill="#000000" d="M140.27,104.83C140.26,104.84 140.26,104.85 140.25,104.86C140.2,104.93 140.14,104.99 140.09,105.06C140,105.17 139.91,105.29 139.82,105.4C139.76,105.47 139.71,105.54 139.65,105.61C139.55,105.73 139.45,105.85 139.34,105.97C139.29,106.02 139.25,106.08 139.2,106.13C138.88,106.49 138.55,106.83 138.21,107.16C138.19,107.19 138.16,107.21 138.13,107.24C137.98,107.38 137.83,107.52 137.67,107.66C137.65,107.68 137.62,107.71 137.59,107.73C137.23,108.05 136.85,108.35 136.47,108.62C136.85,111.47 137.69,114.9 138.53,115.92C139.21,116.73 140.19,112.78 140.73,109.49C140.38,107.85 140.16,106.19 140.27,104.83Z" fill-opacity="0" stroke-linejoin="round" stroke="#000000" stroke-width="0.9" fill-rule="evenodd" id="path_144"/><path fill="#000000" d="M157.19,87.33C157.19,89.12 160.2,90.77 160.2,97.93C160.2,99.78 162.18,103.24 162.18,110.72C162.18,115.38 161.5,119.47 160.59,123.09C159,116.98 156.99,110.6 152.44,110.01C147.89,109.43 142.84,102.04 142.84,99.55C142.84,99.55 151.71,87.54 151.71,86.22C151.71,84.9 154.79,85.96 157.19,87.33Z" fill-opacity="0" stroke-linejoin="round" stroke="#000000" stroke-width="0.9" fill-rule="evenodd" id="path_145"/><path fill="#000000" d="M157.05,113.46C156.77,115.7 156.51,119.11 156.51,124.05C156.51,128.64 156.65,132.08 156.89,134.64C156.23,136.71 155.77,138.52 155.77,140.12C155.77,140.14 155.77,140.16 155.77,140.18C153.98,135.93 152.51,129.4 152.51,123.09C152.51,113.5 152.44,110.01 152.44,110.01C154.38,110.26 155.86,111.57 157.05,113.46Z" fill-opacity="0" stroke-linejoin="round" stroke="#000000" stroke-width="0.9" fill-rule="evenodd" id="path_146"/><path fill="#000000" d="M145.41,104.83C147.29,107.32 149.94,109.69 152.44,110.01C152.46,110.01 152.48,110.02 152.49,110.02C152.47,112.19 152.44,116.03 152.44,118.88C152.44,123.09 148.8,130.53 148.8,133.06C148.8,135.58 149.13,136.02 148.8,136.79C148.47,137.56 147.63,141.44 147.37,142.94C147.3,143.35 147.18,143.67 147.04,143.93C146.66,142.23 144.88,138.16 144.88,126.03C144.88,122.62 144.4,117.86 144,113.12C144.77,110.63 145.61,107.25 145.41,104.83Z" fill-opacity="0" stroke-linejoin="round" stroke="#000000" stroke-width="0.9" fill-rule="evenodd" id="path_147"/><path fill="#000000" d="M151.55,141.74C151.55,138.99 152.76,136.46 153.31,138.11C153.86,139.76 155.19,141.85 155.96,143.21C156.4,146.1 157.43,146.29 157.53,151.51C157.52,151.77 157.52,152.03 157.53,152.28C157.53,152.45 157.53,152.62 157.52,152.79C157.3,156.17 153.8,163.02 152.51,162.51C151.15,161.96 150.56,160.19 150.78,156.79C151,153.38 151.55,144.48 151.55,141.74Z" fill-opacity="0" stroke-linejoin="round" stroke="#000000" stroke-width="0.9" fill-rule="evenodd" id="path_148"/><path fill="#000000" d="M147.11,144.45C147.11,144.3 147.09,144.13 147.04,143.93C147.18,143.67 147.3,143.35 147.37,142.94C147.63,141.44 148.47,137.56 148.8,136.79C149.13,136.02 149.4,134.22 150.09,135.57C150.77,136.93 151.55,138.48 151.88,139.24C151.88,139.24 151.88,139.24 151.88,139.24C151.68,139.96 151.55,140.83 151.55,141.74C151.55,144.48 151,153.38 150.78,156.79C150.78,156.79 149.53,161.66 148.25,161.4C147.91,161.33 147.45,161.26 146.97,161.2C146.97,161.17 146.96,161.15 146.96,161.15C146.96,161.15 145.42,156.83 145.42,153.75C145.42,150.66 147.11,145.8 147.11,144.45Z" fill-opacity="0" stroke-linejoin="round" stroke="#000000" stroke-width="0.9" fill-rule="evenodd" id="path_149"/><path fill="#000000" d="M159.68,44.53C162.76,45.82 166.59,50.25 166.59,54.28C166.59,59.63 166.16,59.13 166.16,60.06C166.16,60.57 166.29,61.59 166.46,63.09C164.43,60.87 161.24,58.35 158.16,56.92C155.08,55.49 156.22,52.7 152.51,51.24C154.51,48.24 158.04,45.78 159.68,44.53Z" fill-opacity="0" stroke-linejoin="round" stroke="#000000" stroke-width="0.9" fill-rule="evenodd" id="path_150"/><path fill="#000000" d="M166.2,59.65C166.2,59.61 166.21,59.57 166.22,59.53C166.21,59.57 166.2,59.61 166.2,59.65Z" fill-opacity="0" stroke-linejoin="round" stroke="#000000" stroke-width="0.9" fill-rule="evenodd" id="path_151"/><path fill="#000000" d="M166.16,60.06C166.16,60.14 166.16,60.23 166.17,60.34C166.16,60.23 166.16,60.14 166.16,60.06Z" fill-opacity="0" stroke-linejoin="round" stroke="#000000" stroke-width="0.9" fill-rule="evenodd" id="path_152"/><path fill="#000000" d="M166.19,59.66C166.19,59.69 166.18,59.73 166.17,59.77C166.18,59.73 166.19,59.69 166.19,59.66Z" fill-opacity="0" stroke-linejoin="round" stroke="#000000" stroke-width="0.9" fill-rule="evenodd" id="path_153"/><path fill="#000000" d="M166.16,59.91C166.16,59.95 166.16,60 166.16,60.06C166.16,60 166.16,59.95 166.16,59.91Z" fill-opacity="0" stroke-linejoin="round" stroke="#000000" stroke-width="0.9" fill-rule="evenodd" id="path_154"/><path fill="#000000" d="M166.17,59.78C166.17,59.82 166.16,59.86 166.16,59.9C166.16,59.86 166.17,59.82 166.17,59.78Z" fill-opacity="0" stroke-linejoin="round" stroke="#000000" stroke-width="0.9" fill-rule="evenodd" id="path_155"/><path fill="#000000" d="M166.46,63.09C166.76,65.76 167.19,69.95 167.19,75.6C167.19,75.76 167.28,76.03 167.43,76.39C166.24,78.03 164.74,79.66 163.44,79.66C162.31,79.66 161.07,78.8 160.06,77.91C160.05,77.87 160.04,77.83 160.03,77.79C158.71,74.06 158.77,69.83 158.19,69.83C158.08,69.83 157.95,70 157.8,70.3C157.64,67.41 157.89,61.71 159.55,57.63C162.17,59.1 164.74,61.21 166.46,63.09Z" fill-opacity="0" stroke-linejoin="round" stroke="#000000" stroke-width="0.9" fill-rule="evenodd" id="path_156"/><path fill="#000000" d="M166.46,63.08C166.38,62.38 166.31,61.79 166.26,61.3C166.31,61.78 166.38,62.38 166.46,63.08Z" fill-opacity="0" stroke-linejoin="round" stroke="#000000" stroke-width="0.9" fill-rule="evenodd" id="path_157"/><path fill="#000000" d="M166.2,60.72C166.19,60.62 166.18,60.52 166.17,60.44C166.18,60.52 166.19,60.62 166.2,60.72Z" fill-opacity="0" stroke-linejoin="round" stroke="#000000" stroke-width="0.9" fill-rule="evenodd" id="path_158"/><path fill="#000000" d="M166.21,60.81C166.22,60.95 166.23,61.1 166.25,61.26C166.23,61.1 166.22,60.95 166.21,60.81Z" fill-opacity="0" stroke-linejoin="round" stroke="#000000" stroke-width="0.9" fill-rule="evenodd" id="path_159"/><path fill="#000000" d="M165.98,89.66C166.44,91.17 167.37,94.24 168.23,97.1C168.93,99.43 169.5,101.38 169.5,101.38C169.5,101.38 166.14,96.04 164.65,93.94C163.17,91.85 160.52,83.94 160.25,80.98C161.57,82.52 164.96,86.38 165.98,89.66Z" fill-opacity="0" stroke-linejoin="round" stroke="#000000" stroke-width="0.9" fill-rule="evenodd" id="path_160"/><path fill="#000000" d="M150.34,56.37C150.9,53.88 151.64,52.66 152.51,51.24C155.9,52.39 155.08,55.49 158.16,56.92C158.62,57.13 159.09,57.38 159.55,57.63C157.72,59.45 156.28,60.73 154.74,61.3C153.2,61.86 150.45,61.74 148.96,61.03C149.54,59.4 150.02,57.8 150.34,56.37Z" fill-opacity="0" stroke-linejoin="round" stroke="#000000" stroke-width="0.9" fill-rule="evenodd" id="path_161"/><path fill="#000000" d="M152.44,82.85C150.89,80.87 143.85,72.39 144.07,72.01C144.07,72.01 144.07,72.01 144.07,72C143.56,72.87 143.13,73.48 142.84,73.73C142.55,73.48 142.12,72.87 141.62,72C141.62,72.01 141.62,72.01 141.62,72.01C141.84,72.39 134.79,80.87 133.24,82.85C133.24,82.85 134.13,84.61 133.97,86.22C133.97,87.54 142.84,99.55 142.84,99.55C142.84,99.55 151.71,87.54 151.71,86.22C151.55,84.61 152.44,82.85 152.44,82.85Z" fill-opacity="0" stroke-linejoin="round" stroke="#000000" stroke-width="0.9" fill-rule="evenodd" id="path_162"/><path fill="#000000" d="M148.97,61.03C150.45,61.74 153.21,61.86 154.74,61.3C156.28,60.73 157.72,59.45 159.55,57.63C157.89,61.71 157.64,67.41 157.8,70.3C157.82,70.27 156.63,73.95 156.37,76.94C154.74,79.08 152.44,82.85 152.44,82.85C147.52,76.79 145.61,74.5 144.07,72.01C145.63,69.02 147.37,65.57 148.97,61.03Z" fill-opacity="0" stroke-linejoin="round" stroke="#000000" stroke-width="0.9" fill-rule="evenodd" id="path_163"/><path fill="#000000" d="M145.41,104.83C145.42,104.84 145.43,104.85 145.43,104.86C145.49,104.93 145.54,104.99 145.59,105.06C145.68,105.17 145.77,105.29 145.86,105.4C145.92,105.47 145.98,105.54 146.03,105.61C146.13,105.73 146.24,105.85 146.34,105.97C146.39,106.02 146.43,106.08 146.48,106.13C146.8,106.49 147.13,106.83 147.47,107.16C147.5,107.19 147.52,107.21 147.55,107.24C147.7,107.38 147.86,107.52 148.01,107.66C148.04,107.68 148.06,107.71 148.09,107.73C148.46,108.05 148.83,108.35 149.21,108.62C148.83,111.47 147.99,114.9 147.15,115.92C146.48,116.73 145.49,112.78 144.96,109.49C145.3,107.85 145.52,106.19 145.41,104.83Z" fill-opacity="0" stroke-linejoin="round" stroke="#000000" stroke-width="0.9" fill-rule="evenodd" id="path_164"/><path fill="#000000" d="M134.74,25.01C134.74,24.31 133.73,24.11 133.07,24.11C132.41,24.11 132.16,25.12 132.67,27.49C133.17,29.86 135.18,30.55 135.18,30.55L134.74,25.01Z" fill-opacity="0" stroke-linejoin="round" stroke="#000000" stroke-width="0.9" fill-rule="evenodd" id="path_165"/><path fill="#000000" d="M150.95,25.01C150.95,24.31 151.96,24.11 152.61,24.11C153.27,24.11 153.52,25.12 153.02,27.49C152.51,29.86 150.5,30.55 150.5,30.55L150.95,25.01Z" fill-opacity="0" stroke-linejoin="round" stroke="#000000" stroke-width="0.9" fill-rule="evenodd" id="path_166"/><path fill="#000000" d="M154.88,43.33L147.81,39.18L148.13,36.06C148.13,36.06 146.55,31.17 142.84,31.17C139.13,31.17 137.55,36.06 137.55,36.06L137.87,39.18L130.8,43.33C129.16,43.33 127.51,43.78 126,44.53C129.51,47.25 133.91,50 135.34,56.37C136.77,62.74 141.42,72.52 142.84,73.73C144.26,72.52 148.91,62.74 150.34,56.37C151.77,50 156.18,47.25 159.68,44.53C158.17,43.78 156.52,43.33 154.88,43.33Z" fill-opacity="0" stroke-linejoin="round" stroke="#000000" stroke-width="0.9" fill-rule="evenodd" id="path_167"/><path fill="#000000" d="M137.55,36.06C137.55,36.06 139.13,31.17 142.84,31.17C146.55,31.17 148.13,36.06 148.13,36.06C149.39,34.83 150.25,33.67 150.25,33.67C150.25,33.67 151.21,23.07 151.21,20.5C151.21,17.93 148.42,13 142.84,13C137.26,13 134.47,17.93 134.47,20.5C134.47,23.07 135.43,33.67 135.43,33.67C135.43,33.67 136.29,34.83 137.55,36.06Z" fill-opacity="0" stroke-linejoin="round" stroke="#000000" stroke-width="0.9" fill-rule="evenodd" id="path_168"/><path fill="#000000" d="M177.38,106.76C176.21,103.84 174.68,101.9 174.45,99.11C174.23,96.32 172.28,87.92 171.55,85.11C170.82,82.3 167.19,76.6 167.19,75.6C167.19,66.77 166.16,61.49 166.16,60.06C166.16,59.13 166.59,59.63 166.59,54.28C166.59,50.43 163.56,46.46 159.68,44.53C159.67,44.52 159.67,44.52 159.66,44.52C159.49,44.43 159.31,44.35 159.14,44.28C159.08,44.25 159.02,44.23 158.97,44.2C158.84,44.15 158.71,44.1 158.59,44.05C158.51,44.02 158.44,44 158.37,43.97C158.26,43.93 158.14,43.89 158.02,43.85C157.95,43.83 157.87,43.8 157.79,43.78C157.68,43.75 157.57,43.71 157.45,43.68C157.37,43.66 157.29,43.64 157.21,43.62C157.1,43.6 156.98,43.57 156.87,43.55C156.79,43.53 156.71,43.51 156.63,43.5C156.51,43.48 156.4,43.46 156.28,43.44C156.2,43.43 156.13,43.42 156.05,43.41C155.92,43.39 155.79,43.38 155.66,43.37C155.59,43.37 155.53,43.36 155.47,43.35C155.27,43.34 155.08,43.33 154.88,43.33L147.81,39.18L148.13,36.06C148.13,36.06 146.55,31.17 142.84,31.17C139.13,31.17 137.55,36.06 137.55,36.06L137.87,39.18L130.8,43.33C130.61,43.33 130.41,43.34 130.22,43.35C130.15,43.36 130.09,43.37 130.02,43.37C129.89,43.38 129.76,43.39 129.63,43.41C129.56,43.42 129.48,43.43 129.41,43.44C129.29,43.46 129.17,43.48 129.05,43.5C128.97,43.51 128.89,43.53 128.81,43.55C128.7,43.57 128.58,43.6 128.47,43.62C128.39,43.64 128.31,43.66 128.23,43.68C128.12,43.71 128,43.75 127.89,43.78C127.81,43.8 127.74,43.83 127.66,43.85C127.54,43.89 127.43,43.93 127.31,43.97C127.24,44 127.17,44.02 127.1,44.05C126.97,44.1 126.84,44.15 126.72,44.2C126.66,44.23 126.6,44.25 126.54,44.28C126.37,44.35 126.2,44.43 126.03,44.52C126.02,44.52 126.01,44.52 126,44.53H126C122.12,46.46 119.09,50.43 119.09,54.28C119.09,59.63 119.53,59.13 119.53,60.06C119.53,61.49 118.5,66.77 118.5,75.6C118.5,76.6 114.86,82.3 114.13,85.11C113.4,87.92 111.45,96.32 111.23,99.11C111,101.9 109.47,103.84 108.3,106.76C106.76,110.59 111.64,112.68 111.99,112.82C112.45,113.01 112.96,113 113.11,112.65C113.75,111.18 110.4,109.23 111,108.17C111.61,107.09 112.65,105.89 113.5,106.23C114.35,106.57 113.94,109.27 114.8,109.61C115.65,109.95 116.01,109.73 116.27,109.08C116.53,108.44 116.41,103.4 115.12,102.88C115.77,101.99 116.18,101.38 116.18,101.38C116.18,101.38 119.54,96.04 121.03,93.94C122.51,91.85 125.16,83.94 125.43,80.98C126.19,79.87 125.32,78.73 125.65,77.79C126.97,74.06 126.91,69.83 127.5,69.83C128.05,69.83 129.42,74.68 129.42,79.25C129.42,82.71 128.49,81.29 128.49,87.33C128.49,89.12 125.48,90.77 125.48,97.93C125.48,99.78 123.5,103.24 123.5,110.72C123.5,125.04 129.91,134.08 129.91,140.12C129.91,146.6 128.15,144.75 128.15,152.28C128.15,159.81 133.29,169.67 133.29,174.91C133.29,185.46 126.68,179.82 126.68,183.04C126.68,183.74 128.51,184.73 128.51,184.73L133.49,186.68L136.81,187C138.28,187 139.67,186.49 139.67,183.92C139.67,183.1 139.6,181.03 139.6,180.04C139.6,179.05 138.5,176.21 138.5,173.08C138.5,169.96 138.72,161.15 138.72,161.15C138.72,161.15 140.26,156.83 140.26,153.75C140.26,150.66 138.57,145.8 138.57,144.45C138.57,143.09 140.8,139.61 140.8,126.03C140.8,120.17 142.22,110.29 142.22,103.44H142.84H143.46C143.46,110.29 144.88,120.17 144.88,126.03C144.88,139.61 147.11,143.09 147.11,144.45C147.11,145.8 145.42,150.66 145.42,153.75C145.42,156.83 146.96,161.15 146.96,161.15C146.96,161.15 147.18,169.96 147.18,173.08C147.18,176.21 146.08,179.05 146.08,180.04C146.08,181.03 146.01,183.1 146.01,183.92C146.01,186.49 147.4,187 148.87,187L152.19,186.68L157.17,184.73C157.17,184.73 159,183.74 159,183.04C159,179.82 152.4,185.46 152.4,174.91C152.4,169.67 157.54,159.81 157.54,152.28C157.54,144.75 155.77,146.6 155.77,140.12C155.77,134.08 162.18,125.04 162.18,110.72C162.18,103.24 160.2,99.78 160.2,97.93C160.2,90.77 157.19,89.12 157.19,87.33C157.19,81.29 156.26,82.71 156.26,79.25C156.26,74.68 157.63,69.83 158.19,69.83C158.77,69.83 158.71,74.06 160.03,77.79C160.36,78.73 159.49,79.87 160.25,80.98C160.52,83.94 163.17,91.85 164.65,93.94C166.14,96.04 169.5,101.38 169.5,101.38C169.5,101.38 169.91,101.99 170.56,102.88C169.27,103.4 169.15,108.44 169.41,109.08C169.67,109.73 170.04,109.95 170.89,109.61C171.74,109.27 171.33,106.57 172.18,106.23C173.03,105.89 174.07,107.09 174.68,108.17C175.29,109.23 171.93,111.18 172.57,112.65C172.72,113 173.23,113.01 173.69,112.82C174.04,112.68 178.92,110.59 177.38,106.76Z" fill-opacity="0" stroke-linejoin="round" stroke="#000000" stroke-width="0.9" fill-rule="evenodd" id="path_169"/></svg>